<?xml version="1.0" standalone="no"?>
<!DOCTYPE svg PUBLIC "-//W3C//DTD SVG 1.1//EN" "http://www.w3.org/Graphics/SVG/1.1/DTD/svg11.dtd" >
<svg xmlns="http://www.w3.org/2000/svg" xmlns:xlink="http://www.w3.org/1999/xlink" version="1.1">
<metadata>
Created by FontForge 20170924 at Sun May 26 23:09:58 2019
 By www-data
Maximilian M_sgens
</metadata>
<defs>
<font id="BandeinsSansBold" horiz-adv-x="622" >
  <font-face 
    font-family="Bandeins Sans"
    font-weight="700"
    font-stretch="normal"
    units-per-em="1000"
    panose-1="0 0 5 0 0 0 0 0 0 0"
    ascent="800"
    descent="-200"
    x-height="500"
    cap-height="700"
    bbox="-548 -222 1110 926"
    underline-thickness="50"
    underline-position="-100"
    unicode-range="U+0020-25CA"
  />
<missing-glyph horiz-adv-x="660" 
 />
    <glyph glyph-name="arrowright" unicode="&#x2d;&#x3e;" horiz-adv-x="787" 
d="M493 589c60 -116 102 -164 266 -250v-74c-164 -86 -206 -134 -266 -250h-123c24 95 90 183 166 229h-508v116h506c-74 46 -140 133 -164 229h123z" />
    <glyph glyph-name="arrowleft" unicode="&#x3c;&#x2d;" horiz-adv-x="787" 
d="M759 360v-116h-506c74 -46 140 -133 164 -229h-123c-60 116 -102 164 -266 250v74c164 86 206 134 266 250h123c-24 -95 -90 -183 -166 -229h508z" />
    <glyph glyph-name="arrowboth" unicode="&#x3c;&#x2d;&#x3e;" horiz-adv-x="994" 
d="M688 597l278 -277v-36l-278 -277l-82 81l156 156h-530l156 -156l-82 -81l-278 277v36l278 277l82 -81l-156 -156h530l-156 156z" />
    <glyph glyph-name=".notdef" horiz-adv-x="660" 
 />
    <glyph glyph-name="space" unicode=" " horiz-adv-x="250" 
 />
    <glyph glyph-name="A" unicode="A" horiz-adv-x="731" 
d="M431 700l291 -700h-142l-79 189h-270l-80 -189h-142l291 700h131zM277 314h178l-89 213z" />
    <glyph glyph-name="B" unicode="B" horiz-adv-x="593" 
d="M467 354c56 -26 83 -81 83 -159c0 -113 -81 -195 -191 -195h-299v700h272c109 0 200 -101 200 -220c0 -59 -18 -98 -65 -126zM190 574v-171h114c53 0 93 36 93 85c0 51 -39 86 -93 86h-114zM322 126c53 0 93 37 93 87s-39 84 -93 84h-132v-171h132z" />
    <glyph glyph-name="C" unicode="C" horiz-adv-x="761" 
d="M396 -12c-205 0 -353 157 -353 362s148 362 353 362c159 0 285 -91 331 -241l-127 -43c-30 100 -105 158 -204 158c-127 0 -217 -102 -217 -236s90 -236 217 -236c99 0 174 58 204 158l127 -42c-47 -151 -172 -242 -331 -242z" />
    <glyph glyph-name="D" unicode="D" horiz-adv-x="693" 
d="M290 700c213 0 360 -147 360 -350s-147 -350 -360 -350h-230v700h230zM286 126c132 0 234 102 234 224s-102 224 -234 224h-96v-448h96z" />
    <glyph glyph-name="E" unicode="E" horiz-adv-x="560" 
d="M190 580v-184h278v-120h-278v-156h308v-120h-438v700h440v-120h-310z" />
    <glyph glyph-name="F" unicode="F" horiz-adv-x="517" 
d="M190 580v-179h278v-120h-278v-281h-130v700h440v-120h-310z" />
    <glyph glyph-name="G" unicode="G" horiz-adv-x="772" 
d="M446 251v120h261v-371h-100l-13 69c-48 -51 -122 -81 -201 -81c-204 0 -350 156 -350 362s146 362 350 362c157 0 280 -88 328 -236l-122 -41c-32 100 -107 157 -206 157c-129 0 -220 -104 -220 -242s91 -242 220 -242c103 0 185 61 193 143h-140z" />
    <glyph glyph-name="H" unicode="H" horiz-adv-x="688" 
d="M500 277h-312v-277h-128v700h128v-305h312v305h128v-700h-128v277z" />
    <glyph glyph-name="I" unicode="I" horiz-adv-x="250" 
d="M60 0v700h130v-700h-130z" />
    <glyph glyph-name="J" unicode="J" horiz-adv-x="541" 
d="M481 208c0 -127 -93 -221 -220 -221c-95 0 -171 52 -203 131c-10 25 -15 48 -15 79v45h128v-45c0 -53 37 -90 90 -90s90 37 90 90v503h130v-492z" />
    <glyph glyph-name="K" unicode="K" horiz-adv-x="652" 
d="M274 258l-86 -114v-144h-128v700h128v-340l257 340h160l-251 -335l272 -365h-158z" />
    <glyph glyph-name="L" unicode="L" horiz-adv-x="561" 
d="M518 120v-120h-458v700h130v-580h328z" />
    <glyph glyph-name="M" unicode="M" horiz-adv-x="881" 
d="M668 700h153v-700h-130v454l-187 -379h-127l-187 379v-454h-130v700h153l229 -475z" />
    <glyph glyph-name="N" unicode="N" horiz-adv-x="763" 
d="M573 700h130v-700h-131l-382 511v-511h-130v700h152l361 -487v487z" />
    <glyph glyph-name="O" unicode="O" horiz-adv-x="768" 
d="M384 -12c-204 0 -350 156 -350 362s146 362 350 362s350 -156 350 -362s-146 -362 -350 -362zM384 118c130 0 220 98 220 232s-90 232 -220 232s-220 -98 -220 -232s90 -232 220 -232z" />
    <glyph glyph-name="P" unicode="P" horiz-adv-x="569" 
d="M320 700c124 0 215 -91 215 -215s-91 -215 -215 -215h-130v-270h-130v700h260zM317 390c58 0 98 38 98 95s-40 95 -98 95h-127v-190h127z" />
    <glyph glyph-name="Q" unicode="Q" horiz-adv-x="786" 
d="M495 3c16 -33 96 -24 187 28l50 -99c-125 -66 -319 -104 -353 56c-196 7 -336 161 -336 362c0 206 146 362 350 362s350 -156 350 -362c0 -163 -96 -301 -248 -347zM173 350c0 -134 90 -232 220 -232s220 98 220 232s-90 232 -220 232s-220 -98 -220 -232z" />
    <glyph glyph-name="R" unicode="R" horiz-adv-x="640" 
d="M181 0h-121v700h283c123 0 213 -90 213 -213c0 -91 -52 -168 -135 -199l176 -288h-140l-166 274h-110v-274zM340 390c59 0 100 39 100 97s-41 97 -100 97h-159v-194h159z" />
    <glyph glyph-name="S" unicode="S" horiz-adv-x="641" 
d="M330 -12c-151 0 -257 72 -284 193c-2 17 -4 40 -3 53h127c-5 -78 54 -126 154 -126c88 0 148 37 148 89c0 61 -47 84 -175 108c-158 30 -231 88 -231 206c0 124 98 201 253 201c149 0 230 -58 262 -185l-112 -37c-24 74 -62 102 -146 102s-131 -31 -131 -84
c0 -57 43 -79 156 -100c171 -32 250 -95 250 -214c0 -123 -109 -206 -268 -206z" />
    <glyph glyph-name="T" unicode="T" horiz-adv-x="610" 
d="M240 0v580h-223v120h576v-120h-223v-580h-130z" />
    <glyph glyph-name="U" unicode="U" horiz-adv-x="672" 
d="M621 276c0 -173 -113 -288 -285 -288s-285 115 -285 288v424h130v-404c0 -118 55 -181 155 -181s155 63 155 181v404h130v-424z" />
    <glyph glyph-name="V" unicode="V" horiz-adv-x="765" 
d="M448 0h-131l-291 700h142l215 -529l214 529h142z" />
    <glyph glyph-name="W" unicode="W" horiz-adv-x="1039" 
d="M876 700h133l-224 -700h-128l-137 436l-137 -436h-129l-224 700h133l157 -499l135 432h129l135 -432z" />
    <glyph glyph-name="X" unicode="X" horiz-adv-x="708" 
d="M682 0h-145l-183 276l-183 -276h-145l255 363l-236 337h145l164 -252l164 252h145l-236 -337z" />
    <glyph glyph-name="Y" unicode="Y" horiz-adv-x="648" 
d="M477 700h145l-237 -405v-295h-130v295l-229 405h145l149 -262z" />
    <glyph glyph-name="Z" unicode="Z" horiz-adv-x="612" 
d="M214 120h355v-120h-526v100l351 480h-326v120h497v-100z" />
    <glyph glyph-name="a" unicode="a" horiz-adv-x="553" 
d="M477 147c0 -49 10 -43 50 -44v-103h-59c-37 0 -70 17 -90 46c-28 -35 -76 -58 -129 -58c-124 0 -206 71 -206 171c0 152 184 162 311 146v26c0 32 -38 57 -90 57c-42 0 -82 -21 -91 -60l-112 32c20 91 102 152 204 152c152 0 212 -113 212 -166v-199zM354 173v24
c-120 15 -187 6 -187 -38c0 -94 187 -62 187 14z" />
    <glyph glyph-name="b" unicode="b" 
d="M327 512c144 0 252 -116 252 -262s-108 -262 -252 -262c-52 0 -113 26 -151 65l-10 -53h-106v712h126v-259c36 37 87 59 141 59zM317 109c79 0 136 64 136 141s-57 141 -136 141c-78 0 -131 -61 -131 -141s53 -141 131 -141z" />
    <glyph glyph-name="c" unicode="c" horiz-adv-x="582" 
d="M548 162c-38 -108 -127 -171 -244 -171c-151 0 -261 113 -261 260s110 260 261 260c117 0 207 -63 244 -171l-120 -42c-21 58 -62 87 -124 87c-82 0 -135 -57 -135 -134s53 -134 135 -134c63 0 103 28 124 86z" />
    <glyph glyph-name="d" unicode="d" 
d="M436 717h126v-722h-106l-10 52c-39 -38 -99 -64 -151 -64c-145 0 -252 117 -252 267s107 267 252 267c56 0 107 -21 141 -55v255zM305 104c78 0 131 62 131 146s-53 146 -131 146c-80 0 -136 -65 -136 -146s56 -146 136 -146z" />
    <glyph glyph-name="e" unicode="e" horiz-adv-x="584" 
d="M170 212c12 -66 62 -102 122 -102c58 0 104 23 120 76l116 -40c-36 -103 -128 -158 -236 -158c-143 0 -249 118 -249 265c0 144 107 259 249 259s247 -114 249 -259v-41h-371zM292 390c-57 0 -102 -35 -119 -83h238c-17 48 -62 83 -119 83z" />
    <glyph glyph-name="f" unicode="f" horiz-adv-x="425" 
d="M336 575c-13 11 -27 16 -40 15c-32 0 -52 -21 -52 -58v-32h122v-112h-122v-388h-126v388h-84v112h84v32c0 104 74 180 177 180c35 0 67 -9 96 -27z" />
    <glyph glyph-name="g" unicode="g" horiz-adv-x="556" 
d="M339 104c91 0 168 -62 168 -153c0 -100 -93 -163 -228 -163s-228 63 -228 163c0 47 17 85 47 115c-19 19 -32 45 -32 68c0 29 18 48 47 67c-27 34 -42 75 -42 118c0 111 89 193 208 193c26 0 54 -5 80 -14c33 6 67 6 122 29l50 -85c-10 -5 -49 -22 -68 -29
c16 -28 24 -60 24 -94c0 -111 -89 -193 -208 -193h-4c-30 0 -59 6 -86 18c0 0 -15 -3 -15 -17s17 -23 47 -23h118zM279 396c-50 0 -82 -31 -82 -77c0 -48 30 -77 82 -77c50 0 82 31 82 77s-32 77 -82 77zM279 -106c66 0 102 21 102 57s-35 57 -102 57s-102 -21 -102 -57
s36 -57 102 -57z" />
    <glyph glyph-name="h" unicode="h" horiz-adv-x="582" 
d="M309 509c127 0 213 -87 213 -217v-292h-126v267c0 80 -42 126 -113 126c-58 0 -97 -55 -97 -138v-255h-126v715h126v-243c29 23 72 37 123 37z" />
    <glyph glyph-name="i" unicode="i" horiz-adv-x="259" 
d="M138 562c-43 0 -78 35 -78 78s35 78 78 78s78 -35 78 -78s-35 -78 -78 -78zM75 500h126v-500h-126v500z" />
    <glyph glyph-name="j" unicode="j" horiz-adv-x="326" 
d="M207 562c-43 0 -78 35 -78 78s35 78 78 78s78 -35 78 -78s-35 -78 -78 -78zM100 -212c-41 0 -88 19 -100 42l54 95c23 -11 27 -16 40 -16c32 0 50 22 50 59v532h126v-532c0 -99 -76 -180 -170 -180z" />
    <glyph glyph-name="k" unicode="k" horiz-adv-x="532" 
d="M320 500h157l-167 -212l188 -288h-153l-120 189l-39 -55v-134h-126v712h126v-374z" />
    <glyph glyph-name="l" unicode="l" horiz-adv-x="246" 
d="M60 712h126v-712h-126v712z" />
    <glyph glyph-name="m" unicode="m" horiz-adv-x="827" 
d="M589 512c120 0 187 -81 187 -225v-287h-126v247c0 107 -24 149 -80 149c-62 0 -89 -38 -89 -129v-267h-126v247c0 107 -24 149 -80 149c-62 0 -89 -38 -89 -129v-267h-126v500h106l9 -37c19 24 51 49 119 49c66 0 107 -24 136 -80c33 50 90 80 159 80z" />
    <glyph glyph-name="n" unicode="n" horiz-adv-x="552" 
d="M299 512c124 0 202 -88 202 -225v-287h-126v247c0 102 -29 149 -90 149c-66 0 -99 -42 -99 -129v-267h-126v500h106l9 -37c21 24 57 49 124 49z" />
    <glyph glyph-name="o" unicode="o" horiz-adv-x="608" 
d="M304 -9c-151 0 -261 113 -261 260s110 260 261 260s261 -113 261 -260s-110 -260 -261 -260zM304 117c82 0 135 57 135 134s-53 134 -135 134s-135 -57 -135 -134s53 -134 135 -134z" />
    <glyph glyph-name="p" unicode="p" 
d="M327 512c144 0 252 -116 252 -262c0 -150 -107 -267 -252 -267c-51 0 -105 24 -141 59v-254h-126v712h106l10 -52c39 38 99 64 151 64zM317 104c80 0 136 64 136 146c0 77 -57 141 -136 141c-78 0 -131 -61 -131 -141c0 -84 53 -146 131 -146z" />
    <glyph glyph-name="q" unicode="q" 
d="M456 505h106v-722h-126v255c-35 -35 -90 -60 -141 -60c-146 0 -252 118 -252 272c0 150 107 267 252 267c52 0 113 -26 151 -65zM305 99c79 0 131 63 131 151c0 84 -53 146 -131 146c-80 0 -136 -65 -136 -146c0 -86 56 -151 136 -151z" />
    <glyph glyph-name="r" unicode="r" horiz-adv-x="370" 
d="M299 510c13 0 35 -2 37 -5v-117c-16 5 -34 8 -51 8c-66 0 -99 -42 -99 -129v-267h-126v500h106l9 -37c21 23 56 47 124 47z" />
    <glyph glyph-name="s" unicode="s" horiz-adv-x="523" 
d="M268 -12c-64 0 -115 16 -155 49c-22 23 -71 68 -61 156h124c-5 -53 22 -88 88 -88c52 0 87 18 87 44c0 37 -28 42 -149 63c-92 16 -134 57 -134 139c0 97 76 161 193 161c114 0 178 -51 202 -159l-110 -36c-16 60 -37 79 -90 79c-47 0 -74 -18 -74 -47s9 -37 45 -44
c181 -35 238 -49 238 -156c0 -94 -86 -161 -204 -161z" />
    <glyph glyph-name="t" unicode="t" horiz-adv-x="439" 
d="M274 -12c-96 0 -151 59 -151 160v240h-80v113c49 -8 85 21 85 68v88h121v-157h93v-112h-93v-220c0 -49 10 -64 38 -64c21 0 42 8 52 22l57 -100c-37 -26 -78 -38 -122 -38z" />
    <glyph glyph-name="u" unicode="u" horiz-adv-x="561" 
d="M375 500h126v-500h-106l-8 36c-21 -23 -58 -48 -125 -48c-124 0 -202 88 -202 225v287h126v-247c0 -102 29 -149 90 -149c66 0 99 42 99 129v267z" />
    <glyph glyph-name="v" unicode="v" horiz-adv-x="610" 
d="M434 500h133l-212 -500h-101l-211 500h133l129 -302z" />
    <glyph glyph-name="w" unicode="w" horiz-adv-x="875" 
d="M694 500h134l-178 -500h-105l-107 306l-108 -306h-105l-178 500h134l97 -288l97 288h125l97 -288z" />
    <glyph glyph-name="x" unicode="x" horiz-adv-x="595" 
d="M548 0h-141l-109 169l-109 -169h-141l179 256l-180 244h142l109 -159l108 159h140l-177 -244z" />
    <glyph glyph-name="y" unicode="y" horiz-adv-x="569" 
d="M402 500h133l-208 -589c-33 -95 -126 -145 -215 -114c-35 12 -68 43 -78 73l75 65c8 -23 28 -40 48 -40c33 0 50 19 73 87l6 18h-15l-177 500h133l110 -315z" />
    <glyph glyph-name="z" unicode="z" horiz-adv-x="498" 
d="M210 116h237v-116h-396v97l235 287h-227v116h385v-97z" />
    <glyph glyph-name="zero" unicode="0" horiz-adv-x="639" 
d="M324 650c155 0 272 -149 272 -334s-114 -326 -272 -326c-160 0 -281 145 -281 326c0 183 123 334 281 334zM324 530c-87 0 -163 -105 -163 -214c0 -110 74 -208 163 -208c87 0 153 94 153 208c0 113 -69 214 -153 214z" />
    <glyph glyph-name="one" unicode="1" horiz-adv-x="357" 
d="M173 409h-126v106h67c34 0 59 24 59 58v72h120v-645h-120v409z" />
    <glyph glyph-name="two" unicode="2" horiz-adv-x="566" 
d="M329 226c-72 -40 -128 -55 -138 -111h310v-120h-441v69c0 142 99 203 180 244s140 76 140 130c0 56 -34 90 -88 90c-85 0 -113 -78 -105 -125h-125c-11 90 64 247 229 247c130 0 215 -81 215 -207c0 -111 -103 -176 -177 -217z" />
    <glyph glyph-name="three" unicode="3" horiz-adv-x="538" 
d="M390 338c49 -17 93 -77 93 -140c0 -118 -103 -208 -226 -208c-134 0 -231 91 -218 208h121c-9 -49 32 -85 98 -85c57 0 101 32 101 88c0 50 -51 90 -116 90h-50v94h49c65 0 101 28 101 77c0 46 -36 67 -86 67c-60 0 -91 -24 -85 -70l-125 1c-5 112 82 190 210 190
c114 0 211 -78 211 -180c0 -51 -31 -115 -78 -132z" />
    <glyph glyph-name="four" unicode="4" horiz-adv-x="574" 
d="M431 241h100v-116h-100v-130h-114v130h-287v90c116 127 200 265 257 434h144v-408zM200 241h117l1 202c-28 -65 -68 -140 -118 -202z" />
    <glyph glyph-name="five" unicode="5" horiz-adv-x="590" 
d="M292 470c134 0 243 -108 243 -239c0 -132 -111 -241 -244 -241c-129 0 -237 104 -244 236l118 19c0 -82 49 -139 126 -139c69 0 128 57 128 125c0 67 -58 124 -128 124c-56 0 -95 -23 -108 -65l-110 42l55 312h368v-115h-273l-16 -79c24 13 54 20 85 20z" />
    <glyph glyph-name="six" unicode="6" horiz-adv-x="598" 
d="M300 -20c-150 0 -257 124 -257 300c0 290 170 379 304 379c116 0 175 -52 175 -52l-58 -101c-49 28 -70 35 -120 35c-77 0 -156 -65 -166 -121c28 32 78 44 133 44c132 0 236 -106 236 -242c0 -133 -112 -242 -247 -242zM300 95c70 0 132 59 132 127s-62 127 -132 127
s-132 -59 -132 -127s62 -127 132 -127z" />
    <glyph glyph-name="seven" unicode="7" horiz-adv-x="579" 
d="M34 644h511v-91c-183 -158 -279 -338 -273 -553h-121c-4 209 73 392 208 528h-325v116z" />
    <glyph glyph-name="eight" unicode="8" horiz-adv-x="600" 
d="M445 349c67 -33 100 -85 100 -151c0 -124 -100 -210 -246 -210c-144 0 -244 85 -244 210c0 66 33 118 101 151c-48 24 -69 61 -69 109c0 112 89 194 212 194c125 0 214 -80 214 -194c0 -48 -20 -85 -68 -109zM299 537c-59 0 -100 -33 -100 -79c0 -48 39 -80 100 -80
c63 0 101 31 101 80c0 47 -40 79 -101 79zM299 104c77 0 124 36 124 94c0 62 -47 99 -124 99s-123 -38 -123 -99c0 -58 46 -94 123 -94z" />
    <glyph glyph-name="nine" unicode="9" horiz-adv-x="581" 
d="M290 659c150 0 257 -124 257 -300c0 -290 -170 -379 -304 -379c-116 0 -175 52 -175 52l58 101c49 -28 70 -35 120 -35c77 0 156 65 166 121c-28 -32 -78 -44 -133 -44c-132 0 -236 106 -236 242c0 133 112 242 247 242zM290 544c-70 0 -132 -59 -132 -127
s62 -127 132 -127s132 59 132 127s-62 127 -132 127z" />
    <glyph glyph-name="period" unicode="." horiz-adv-x="242" 
d="M121 -10c-43 0 -78 35 -78 78s35 78 78 78s78 -35 78 -78s-35 -78 -78 -78z" />
    <glyph glyph-name="comma" unicode="," horiz-adv-x="251" 
d="M100 0c-28 10 -48 38 -48 68c0 43 35 78 78 78c42 0 78 -36 78 -78c0 -108 -111 -176 -126 -183l-39 57c25 15 48 39 57 58z" />
    <glyph glyph-name="colon" unicode=":" horiz-adv-x="242" 
d="M121 355c-43 0 -78 35 -78 78s35 78 78 78s78 -35 78 -78s-35 -78 -78 -78zM121 -10c-43 0 -78 35 -78 78s35 78 78 78s78 -35 78 -78s-35 -78 -78 -78z" />
    <glyph glyph-name="semicolon" unicode=";" horiz-adv-x="254" 
d="M121 355c-43 0 -78 35 -78 78s35 78 78 78s78 -35 78 -78s-35 -78 -78 -78zM103 -4c-28 10 -48 38 -48 68c0 43 35 78 78 78c42 0 78 -36 78 -78c0 -73 -53 -152 -125 -184l-40 58c25 15 48 39 57 58z" />
    <glyph glyph-name="ellipsis" unicode="&#x2026;" horiz-adv-x="624" 
d="M121 146c43 0 78 -35 78 -78s-35 -78 -78 -78s-78 35 -78 78s35 78 78 78zM312 146c43 0 78 -35 78 -78s-35 -78 -78 -78s-78 35 -78 78s35 78 78 78zM503 146c43 0 78 -35 78 -78s-35 -78 -78 -78s-78 35 -78 78s35 78 78 78z" />
    <glyph glyph-name="exclam" unicode="!" horiz-adv-x="258" 
d="M202 700l-21 -459h-103l-21 459h145zM129 -10c-43 0 -78 35 -78 78s35 78 78 78s78 -35 78 -78s-35 -78 -78 -78z" />
    <glyph glyph-name="exclamdown" unicode="&#xa1;" horiz-adv-x="258" 
d="M129 510c43 0 78 -35 78 -78s-35 -78 -78 -78s-78 35 -78 78s35 78 78 78zM202 -200h-145l21 459h103z" />
    <glyph glyph-name="question" unicode="?" horiz-adv-x="475" 
d="M154 222c0 115 57 150 107 190c35 28 57 47 57 90c0 44 -39 83 -83 83c-53 0 -84 -37 -89 -104l-118 41c7 66 76 188 207 188c114 0 212 -93 212 -200c0 -104 -52 -144 -96 -180c-43 -35 -67 -49 -67 -109v-15h-130v16zM219 -10c-43 0 -78 35 -78 78s35 78 78 78
s78 -35 78 -78s-35 -78 -78 -78z" />
    <glyph glyph-name="questiondown" unicode="&#xbf;" horiz-adv-x="475" 
d="M256 510c43 0 78 -35 78 -78s-35 -78 -78 -78s-78 35 -78 78s35 78 78 78zM321 278c0 -115 -57 -150 -107 -190c-35 -28 -57 -47 -57 -90c0 -44 39 -83 83 -83c53 0 84 37 89 104l118 -41c-7 -66 -76 -188 -207 -188c-114 0 -212 93 -212 200c0 106 52 144 96 180
c43 35 67 49 67 109v15h130v-16z" />
    <glyph glyph-name="periodcentered" unicode="&#xb7;" horiz-adv-x="267" 
d="M121 235c-43 0 -78 35 -78 78s35 78 78 78s78 -35 78 -78s-35 -78 -78 -78z" />
    <glyph glyph-name="bullet" unicode="&#x2022;" horiz-adv-x="441" 
d="M208 98c-91 0 -165 74 -165 165s74 165 165 165s165 -74 165 -165s-74 -165 -165 -165z" />
    <glyph glyph-name="asterisk" unicode="*" horiz-adv-x="514" 
d="M480 555l-109 -58l109 -56l-62 -107l-106 67l6 -124h-122l6 124l-106 -67l-62 107l109 56l-109 58l61 108l105 -65l-4 122h122l-4 -122l105 65z" />
    <glyph glyph-name="numbersign" unicode="#" horiz-adv-x="711" 
d="M38 173l21 116h105l19 110h-105l21 116h105l32 185h116l-32 -185h132l32 185h116l-32 -185h100l-21 -116h-100l-19 -110h100l-18 -116h-103l-31 -173h-116l31 173h-132l-31 -173h-116l31 173h-105zM280 289h132l19 110h-132z" />
    <glyph glyph-name="slash" unicode="/" horiz-adv-x="509" 
d="M367 700h125l-350 -700h-125z" />
    <glyph glyph-name="backslash" unicode="\" horiz-adv-x="534" 
d="M168 700l349 -700h-125l-349 700h125z" />
    <glyph glyph-name="parenleft" unicode="(" horiz-adv-x="386" 
d="M358 733c-111 -110 -177 -267 -177 -410c0 -146 67 -304 179 -411l-89 -78c-135 137 -211 316 -211 489c0 171 75 349 208 486z" />
    <glyph glyph-name="parenright" unicode=")" horiz-adv-x="386" 
d="M28 733l90 76c133 -137 208 -315 208 -486c0 -173 -76 -352 -211 -489l-89 78c112 107 179 265 179 411c0 143 -66 300 -177 410z" />
    <glyph glyph-name="braceleft" unicode="{" horiz-adv-x="430" 
d="M272 451c0 -67 -40 -103 -74 -122c48 -27 74 -70 74 -124v-167c0 -32 25 -57 57 -57h41v-119h-40c-98 0 -177 79 -177 177v160c0 35 -28 63 -63 65l-47 1v126l46 1c36 2 64 30 64 66v161c0 98 79 176 177 176h40v-118h-41c-32 0 -57 -25 -57 -57v-169z" />
    <glyph glyph-name="braceright" unicode="}" horiz-adv-x="430" 
d="M341 392l46 -1v-126l-47 -1c-35 -2 -63 -30 -63 -65v-160c0 -98 -79 -177 -177 -177h-40v119h41c32 0 57 25 57 57v167c0 54 26 97 74 124c-34 19 -74 55 -74 122v169c0 32 -25 57 -57 57h-41v118h40c98 0 177 -78 177 -176v-161c0 -36 28 -64 64 -66z" />
    <glyph glyph-name="bracketleft" unicode="[" horiz-adv-x="336" 
d="M51 -138v933h217v-118h-98v-696h98v-119h-217z" />
    <glyph glyph-name="bracketright" unicode="]" horiz-adv-x="337" 
d="M277 -138h-217v119h98v696h-98v118h217v-933z" />
    <glyph glyph-name="hyphen" unicode="-" horiz-adv-x="407" 
d="M43 227v116h321v-116h-321z" />
    <glyph glyph-name="endash" unicode="&#x2013;" 
d="M43 227v116h536v-116h-536z" />
    <glyph glyph-name="emdash" unicode="&#x2014;" horiz-adv-x="950" 
d="M43 227v116h864v-116h-864z" />
    <glyph glyph-name="underscore" unicode="_" 
d="M43 -128v116h536v-116h-536z" />
    <glyph glyph-name="quotesinglbase" unicode="&#x201a;" horiz-adv-x="251" 
d="M100 -5c-28 10 -48 38 -48 68c0 43 35 78 78 78c42 0 78 -36 78 -78c0 -73 -53 -152 -125 -184l-40 58c25 15 48 39 57 58z" />
    <glyph glyph-name="quotedblbase" unicode="&#x201e;" horiz-adv-x="449" 
d="M100 -15c-28 10 -48 38 -48 68c0 43 35 78 78 78c42 0 78 -36 78 -78c0 -107 -98 -172 -126 -184l-39 58c25 15 48 39 57 58zM298 -15c-28 10 -48 38 -48 68c0 43 35 78 78 78c42 0 78 -36 78 -78c0 -107 -98 -172 -126 -184l-39 58c25 15 48 39 57 58z" />
    <glyph glyph-name="quotedblleft" unicode="&#x201c;" horiz-adv-x="448" 
d="M348 622c28 -9 48 -37 48 -67c0 -43 -36 -79 -78 -79s-78 36 -78 78c0 73 56 158 125 185l40 -58c-25 -15 -48 -39 -57 -59zM151 618c28 -9 48 -37 48 -67c0 -43 -36 -79 -78 -79s-78 36 -78 78c0 73 56 158 125 185l40 -58c-25 -15 -48 -39 -57 -59z" />
    <glyph glyph-name="quotedblright" unicode="&#x201d;" horiz-adv-x="449" 
d="M100 583c-28 10 -48 38 -48 68c0 43 35 78 78 78c40 0 75 -37 75 -81c0 -73 -48 -144 -122 -181l-40 58c25 15 48 39 57 58zM301 583c-28 10 -48 38 -48 68c0 43 35 78 78 78c40 0 75 -37 75 -81c0 -73 -48 -144 -122 -181l-40 58c25 15 48 39 57 58z" />
    <glyph glyph-name="quoteleft" unicode="&#x2018;" horiz-adv-x="251" 
d="M151 619c28 -10 48 -38 48 -68c0 -43 -35 -78 -78 -78c-42 0 -78 36 -78 78c0 73 53 152 125 184l40 -58c-25 -15 -48 -39 -57 -58z" />
    <glyph glyph-name="quoteright" unicode="&#x2019;" horiz-adv-x="251" 
d="M100 584c-28 9 -48 37 -48 67c0 43 36 79 78 79s78 -36 78 -78c0 -73 -55 -156 -126 -184l-39 57c26 15 48 39 57 59z" />
    <glyph glyph-name="guillemotleft" unicode="&#xab;" horiz-adv-x="551" 
d="M180 78l-146 211l146 211h125l-144 -211l144 -211h-125zM375 78l-146 211l146 211h125l-144 -211l144 -211h-125z" />
    <glyph glyph-name="guillemotright" unicode="&#xbb;" horiz-adv-x="551" 
d="M159 78h-125l144 211l-144 211h125l146 -211zM354 78h-125l144 211l-144 211h125l146 -211z" />
    <glyph glyph-name="guilsinglleft" unicode="&#x2039;" horiz-adv-x="357" 
d="M189 78l-146 211l146 211h125l-144 -211l144 -211h-125z" />
    <glyph glyph-name="guilsinglright" unicode="&#x203a;" horiz-adv-x="357" 
d="M168 78h-125l144 211l-144 211h125l146 -211z" />
    <glyph glyph-name="quotedbl" unicode="&#x22;" horiz-adv-x="411" 
d="M69 397c0 0 -43 169 -43 205c0 43 35 78 78 78s78 -35 78 -78c0 -36 -43 -205 -43 -205h-70zM255 397c0 0 -43 169 -43 205c0 43 35 78 78 78s78 -35 78 -78c0 -36 -43 -205 -43 -205h-70z" />
    <glyph glyph-name="quotesingle" unicode="'" horiz-adv-x="242" 
d="M86 397c0 0 -43 169 -43 205c0 43 35 78 78 78s78 -35 78 -78c0 -36 -43 -205 -43 -205h-70z" />
    <glyph glyph-name="asciicircum" unicode="^" horiz-adv-x="480" 
d="M437 414h-127l-73 144l-69 -144h-125l142 281h104z" />
    <glyph glyph-name="Aacute" unicode="&#xc1;" horiz-adv-x="731" 
d="M558 905l-146 -157h-113l100 157h159zM431 700l291 -700h-142l-79 189h-270l-80 -189h-142l291 700h131zM277 314h178l-89 213z" />
    <glyph glyph-name="Acircumflex" unicode="&#xc2;" horiz-adv-x="731" 
d="M363 827l-73 -78h-136l161 169h96l167 -169h-138zM431 700l291 -700h-142l-79 189h-270l-80 -189h-142l291 700h131zM277 314h178l-89 213z" />
    <glyph glyph-name="Adieresis" unicode="&#xc4;" horiz-adv-x="731" 
d="M271 748c-43 0 -78 35 -78 78s35 78 78 78s78 -35 78 -78s-35 -78 -78 -78zM461 748c-43 0 -78 35 -78 78s35 78 78 78s78 -35 78 -78s-35 -78 -78 -78zM431 700l291 -700h-142l-79 189h-270l-80 -189h-142l291 700h131zM277 314h178l-89 213z" />
    <glyph glyph-name="Agrave" unicode="&#xc0;" horiz-adv-x="731" 
d="M424 748h-113l-146 157h159zM431 700l291 -700h-142l-79 189h-270l-80 -189h-142l291 700h131zM277 314h178l-89 213z" />
    <glyph glyph-name="Aring" unicode="&#xc5;" horiz-adv-x="731" 
d="M438 683l284 -683h-142l-79 189h-270l-80 -189h-142l284 684c-34 23 -57 63 -57 107c0 73 58 130 131 130c72 0 129 -58 129 -130c0 -45 -23 -85 -58 -108zM367 829c-20 0 -37 -16 -37 -36c0 -21 16 -37 37 -37c19 0 36 18 36 37c0 20 -16 36 -36 36zM277 314h178
l-89 213z" />
    <glyph glyph-name="Atilde" unicode="&#xc3;" horiz-adv-x="731" 
d="M284 741h-89c-7 92 32 145 106 145c40 0 69 -19 91 -32c18 -13 26 -16 35 -16c20 0 26 14 19 44h89c4 -54 -5 -91 -28 -114c-19 -21 -45 -32 -77 -32c-58 0 -99 52 -123 52c-17 0 -27 -17 -23 -47zM431 700l291 -700h-142l-79 189h-270l-80 -189h-142l291 700h131z
M277 314h178l-89 213z" />
    <glyph glyph-name="AE" unicode="&#xc6;" horiz-adv-x="913" 
d="M9 0l291 700h536v-120h-310v-184h278v-120h-278v-156h308v-120h-438v189h-165l-80 -189h-142zM277 314h119v248h-17z" />
    <glyph glyph-name="Ccedilla" unicode="&#xc7;" horiz-adv-x="752" 
d="M381 114c99 0 174 58 204 158l127 -42c-40 -129 -137 -214 -264 -236l-19 -22c36 -14 60 -49 60 -88c0 -53 -46 -99 -111 -99c-51 0 -97 37 -111 92l77 16c3 -13 17 -20 27 -20c12 0 17 4 17 12c0 11 -15 16 -29 14l-56 51l31 41c-180 22 -306 170 -306 359
c0 205 148 362 353 362c159 0 285 -91 331 -241l-127 -43c-30 100 -105 158 -204 158c-127 0 -217 -102 -217 -236s90 -236 217 -236z" />
    <glyph glyph-name="Eth" unicode="&#xd0;" horiz-adv-x="744" 
d="M334 720c208 0 350 -151 350 -370s-142 -370 -350 -370h-230v330h-78v116h78v294h230zM330 106c125 0 224 107 224 244s-99 244 -224 244h-96v-168h113v-116h-113v-204h96z" />
    <glyph glyph-name="Eacute" unicode="&#xc9;" horiz-adv-x="560" 
d="M319 748h-113l100 157h159zM190 580v-184h278v-120h-278v-156h308v-120h-438v700h440v-120h-310z" />
    <glyph glyph-name="Ecircumflex" unicode="&#xca;" horiz-adv-x="581" 
d="M492 748h-138l-77 78l-73 -78h-136l161 169h96zM190 580v-184h278v-120h-278v-156h308v-120h-438v700h440v-120h-310z" />
    <glyph glyph-name="Edieresis" unicode="&#xcb;" horiz-adv-x="560" 
d="M186 904c43 0 78 -35 78 -78s-35 -78 -78 -78s-78 35 -78 78s35 78 78 78zM376 904c43 0 78 -35 78 -78s-35 -78 -78 -78s-78 35 -78 78s35 78 78 78zM190 580v-184h278v-120h-278v-156h308v-120h-438v700h440v-120h-310z" />
    <glyph glyph-name="Egrave" unicode="&#xc8;" horiz-adv-x="560" 
d="M290 751l-146 157h159l100 -157h-113zM190 580v-184h278v-120h-278v-156h308v-120h-438v700h440v-120h-310z" />
    <glyph glyph-name="Iacute" unicode="&#xcd;" horiz-adv-x="253" 
d="M184 747h-113l100 157h159zM60 0v700h130v-700h-130z" />
    <glyph glyph-name="Icircumflex" unicode="&#xce;" horiz-adv-x="424" 
d="M424 748h-138l-77 78l-73 -78h-136l161 169h96zM147 0v700h130v-700h-130z" />
    <glyph glyph-name="Idieresis" unicode="&#xcf;" horiz-adv-x="296" 
d="M53 907c43 0 78 -35 78 -78s-35 -78 -78 -78s-78 35 -78 78s35 78 78 78zM243 907c43 0 78 -35 78 -78s-35 -78 -78 -78s-78 35 -78 78s35 78 78 78zM83 0v700h130v-700h-130z" />
    <glyph glyph-name="Igrave" unicode="&#xcc;" horiz-adv-x="250" 
d="M69 748l-146 157h159l100 -157h-113zM60 0v700h130v-700h-130z" />
    <glyph glyph-name="Ntilde" unicode="&#xd1;" horiz-adv-x="763" 
d="M311 742h-89c-7 92 32 145 106 145c40 0 69 -19 91 -32c18 -13 26 -16 35 -16c20 0 26 14 19 44h89c4 -54 -5 -91 -28 -114c-19 -21 -45 -32 -77 -32c-58 0 -99 52 -123 52c-17 0 -27 -17 -23 -47zM573 700h130v-700h-131l-382 511v-511h-130v700h152l361 -487v487z" />
    <glyph glyph-name="Oacute" unicode="&#xd3;" horiz-adv-x="768" 
d="M445 748h-113l100 157h159zM384 -12c-204 0 -350 156 -350 362s146 362 350 362s350 -156 350 -362s-146 -362 -350 -362zM384 118c130 0 220 98 220 232s-90 232 -220 232s-220 -98 -220 -232s90 -232 220 -232z" />
    <glyph glyph-name="Ocircumflex" unicode="&#xd4;" horiz-adv-x="768" 
d="M596 747h-138l-77 78l-73 -78h-136l161 169h96zM384 -12c-204 0 -350 156 -350 362s146 362 350 362s350 -156 350 -362s-146 -362 -350 -362zM384 118c130 0 220 98 220 232s-90 232 -220 232s-220 -98 -220 -232s90 -232 220 -232z" />
    <glyph glyph-name="Odieresis" unicode="&#xd6;" horiz-adv-x="768" 
d="M289 902c43 0 78 -35 78 -78s-35 -78 -78 -78s-78 35 -78 78s35 78 78 78zM479 902c43 0 78 -35 78 -78s-35 -78 -78 -78s-78 35 -78 78s35 78 78 78zM384 -12c-204 0 -350 156 -350 362s146 362 350 362s350 -156 350 -362s-146 -362 -350 -362zM384 118
c130 0 220 98 220 232s-90 232 -220 232s-220 -98 -220 -232s90 -232 220 -232z" />
    <glyph glyph-name="Ograve" unicode="&#xd2;" horiz-adv-x="768" 
d="M336 748l-146 157h159l100 -157h-113zM384 -12c-204 0 -350 156 -350 362s146 362 350 362s350 -156 350 -362s-146 -362 -350 -362zM384 118c130 0 220 98 220 232s-90 232 -220 232s-220 -98 -220 -232s90 -232 220 -232z" />
    <glyph glyph-name="Oslash" unicode="&#xd8;" horiz-adv-x="802" 
d="M751 669l-94 -112c41 -64 62 -142 62 -208c0 -202 -143 -362 -340 -362c-68 0 -131 19 -185 56l-68 -81l-92 77l75 89c-46 66 -70 149 -70 221c0 202 143 362 340 362c75 0 143 -23 197 -65l83 99zM169 349c0 -32 10 -77 29 -115l295 311c-33 24 -72 36 -114 36
c-124 0 -210 -102 -210 -232zM589 349c0 24 -7 65 -22 100l-290 -305c30 -18 65 -27 102 -27c124 0 210 102 210 232z" />
    <glyph glyph-name="Otilde" unicode="&#xd5;" horiz-adv-x="768" 
d="M455 751c-58 0 -99 52 -123 52c-17 0 -27 -17 -23 -47h-89c-7 92 32 145 106 145c40 0 69 -19 91 -32c18 -13 26 -16 35 -16c20 0 26 14 19 44h89c4 -54 -5 -91 -28 -114c-19 -21 -45 -32 -77 -32zM384 -12c-204 0 -350 156 -350 362s146 362 350 362s350 -156 350 -362
s-146 -362 -350 -362zM384 118c130 0 220 98 220 232s-90 232 -220 232s-220 -98 -220 -232s90 -232 220 -232z" />
    <glyph glyph-name="OE" unicode="&#x152;" horiz-adv-x="1113" 
d="M1053 580h-310v-184h278v-120h-278v-156h308v-120h-438v63c-59 -50 -133 -75 -220 -75c-206 0 -350 158 -350 362s144 362 350 362c87 0 161 -25 220 -75v63h440v-120zM393 118c132 0 220 100 220 232s-88 232 -220 232s-220 -100 -220 -232s88 -232 220 -232z" />
    <glyph glyph-name="Thorn" unicode="&#xde;" horiz-adv-x="569" 
d="M320 600c124 0 215 -91 215 -215s-91 -215 -215 -215h-130v-170h-130v710h131v-110h129zM317 290c58 0 98 38 98 95s-40 95 -98 95h-126v-180l-1 -1v-9h127z" />
    <glyph glyph-name="Uacute" unicode="&#xda;" horiz-adv-x="672" 
d="M376 748h-113l100 157h159zM621 276c0 -173 -113 -288 -285 -288s-285 115 -285 288v424h130v-404c0 -118 55 -181 155 -181s155 63 155 181v404h130v-424z" />
    <glyph glyph-name="Ucircumflex" unicode="&#xdb;" horiz-adv-x="672" 
d="M548 747h-138l-77 78l-73 -78h-136l161 169h96zM621 276c0 -173 -113 -288 -285 -288s-285 115 -285 288v424h130v-404c0 -118 55 -181 155 -181s155 63 155 181v404h130v-424z" />
    <glyph glyph-name="Udieresis" unicode="&#xdc;" horiz-adv-x="672" 
d="M241 903c43 0 78 -35 78 -78s-35 -78 -78 -78s-78 35 -78 78s35 78 78 78zM431 903c43 0 78 -35 78 -78s-35 -78 -78 -78s-78 35 -78 78s35 78 78 78zM621 276c0 -173 -113 -288 -285 -288s-285 115 -285 288v424h130v-404c0 -118 55 -181 155 -181s155 63 155 181v404
h130v-424z" />
    <glyph glyph-name="Ugrave" unicode="&#xd9;" horiz-adv-x="672" 
d="M337 748l-146 157h159l100 -157h-113zM621 276c0 -173 -113 -288 -285 -288s-285 115 -285 288v424h130v-404c0 -118 55 -181 155 -181s155 63 155 181v404h130v-424z" />
    <glyph glyph-name="Wacute" unicode="&#x1e82;" horiz-adv-x="1039" 
d="M725 905l-146 -157h-113l100 157h159zM876 700h133l-224 -700h-128l-137 436l-137 -436h-129l-224 700h133l157 -499l135 432h129l135 -432z" />
    <glyph glyph-name="Wcircumflex" unicode="&#x174;" horiz-adv-x="1039" 
d="M517 829l-73 -78h-136l161 169h96l167 -169h-138zM876 700h133l-224 -700h-128l-137 436l-137 -436h-129l-224 700h133l157 -499l135 432h129l135 -432z" />
    <glyph glyph-name="Wdieresis" unicode="&#x1e84;" horiz-adv-x="1039" 
d="M425 749c-43 0 -78 35 -78 78s35 78 78 78s78 -35 78 -78s-35 -78 -78 -78zM615 749c-43 0 -78 35 -78 78s35 78 78 78s78 -35 78 -78s-35 -78 -78 -78zM876 700h133l-224 -700h-128l-137 436l-137 -436h-129l-224 700h133l157 -499l135 432h129l135 -432z" />
    <glyph glyph-name="Wgrave" unicode="&#x1e80;" horiz-adv-x="1039" 
d="M576 748h-113l-146 157h159zM876 700h133l-224 -700h-128l-137 436l-137 -436h-129l-224 700h133l157 -499l135 432h129l135 -432z" />
    <glyph glyph-name="Yacute" unicode="&#xdd;" horiz-adv-x="648" 
d="M483 905l-146 -157h-113l100 157h159zM477 700h145l-237 -405v-295h-130v295l-229 405h145l149 -262z" />
    <glyph glyph-name="Ycircumflex" unicode="&#x176;" horiz-adv-x="648" 
d="M340 826l-73 -78h-136l161 169h96l167 -169h-138zM477 700h145l-237 -405v-295h-130v295l-229 405h145l149 -262z" />
    <glyph glyph-name="Ydieresis" unicode="&#x178;" horiz-adv-x="648" 
d="M229 748c-43 0 -78 35 -78 78s35 78 78 78s78 -35 78 -78s-35 -78 -78 -78zM419 748c-43 0 -78 35 -78 78s35 78 78 78s78 -35 78 -78s-35 -78 -78 -78zM477 700h145l-237 -405v-295h-130v295l-229 405h145l149 -262z" />
    <glyph glyph-name="Ygrave" unicode="&#x1ef2;" horiz-adv-x="648" 
d="M422 748h-113l-146 157h159zM477 700h145l-237 -405v-295h-130v295l-229 405h145l149 -262z" />
    <glyph glyph-name="aacute" unicode="&#xe1;" horiz-adv-x="553" 
d="M466 706l-146 -157h-113l100 157h159zM477 147c0 -49 10 -43 50 -44v-103h-59c-37 0 -70 17 -90 46c-28 -35 -76 -58 -129 -58c-124 0 -206 71 -206 171c0 152 184 162 311 146v26c0 32 -38 57 -90 57c-42 0 -82 -21 -91 -60l-112 32c20 91 102 152 204 152
c152 0 212 -113 212 -166v-199zM354 173v24c-120 15 -187 6 -187 -38c0 -94 187 -62 187 14z" />
    <glyph glyph-name="acircumflex" unicode="&#xe2;" horiz-adv-x="553" 
d="M287 615l-73 -78h-136l161 169h96l167 -169h-138zM477 147c0 -49 10 -43 50 -44v-103h-59c-37 0 -70 17 -90 46c-28 -35 -76 -58 -129 -58c-124 0 -206 71 -206 171c0 152 184 162 311 146v26c0 32 -38 57 -90 57c-42 0 -82 -21 -91 -60l-112 32c20 91 102 152 204 152
c152 0 212 -113 212 -166v-199zM354 173v24c-120 15 -187 6 -187 -38c0 -94 187 -62 187 14z" />
    <glyph glyph-name="adieresis" unicode="&#xe4;" horiz-adv-x="553" 
d="M170 707c43 0 78 -35 78 -78s-35 -78 -78 -78s-78 35 -78 78s35 78 78 78zM360 707c43 0 78 -35 78 -78s-35 -78 -78 -78s-78 35 -78 78s35 78 78 78zM477 147c0 -49 10 -43 50 -44v-103h-59c-37 0 -70 17 -90 46c-28 -35 -76 -58 -129 -58c-124 0 -206 71 -206 171
c0 152 184 162 311 146v26c0 32 -38 57 -90 57c-42 0 -82 -21 -91 -60l-112 32c20 91 102 152 204 152c152 0 212 -113 212 -166v-199zM354 173v24c-120 15 -187 6 -187 -38c0 -94 187 -62 187 14z" />
    <glyph glyph-name="agrave" unicode="&#xe0;" horiz-adv-x="553" 
d="M266 549l-146 157h159l100 -157h-113zM477 147c0 -49 10 -43 50 -44v-103h-59c-37 0 -70 17 -90 46c-28 -35 -76 -58 -129 -58c-124 0 -206 71 -206 171c0 152 184 162 311 146v26c0 32 -38 57 -90 57c-42 0 -82 -21 -91 -60l-112 32c20 91 102 152 204 152
c152 0 212 -113 212 -166v-199zM354 173v24c-120 15 -187 6 -187 -38c0 -94 187 -62 187 14z" />
    <glyph glyph-name="aring" unicode="&#xe5;" horiz-adv-x="553" 
d="M270 544c-50 0 -89 39 -89 87c0 49 39 87 89 87c48 0 86 -39 86 -87s-39 -87 -86 -87zM270 607c12 0 24 12 24 25s-11 24 -24 24c-14 0 -25 -11 -25 -24c0 -14 10 -25 25 -25zM477 147c0 -49 10 -43 50 -44v-103h-59c-37 0 -70 17 -90 46c-28 -35 -76 -58 -129 -58
c-124 0 -206 71 -206 171c0 152 184 162 311 146v26c0 32 -38 57 -90 57c-42 0 -82 -21 -91 -60l-112 32c20 91 102 152 204 152c152 0 212 -113 212 -166v-199zM354 173v24c-120 15 -187 6 -187 -38c0 -94 187 -62 187 14z" />
    <glyph glyph-name="atilde" unicode="&#xe3;" horiz-adv-x="553" 
d="M341 554c-58 0 -99 52 -123 52c-17 0 -27 -17 -23 -47h-89c-7 92 32 145 106 145c40 0 69 -19 91 -32c18 -13 26 -16 35 -16c20 0 26 14 19 44h89c4 -54 -5 -91 -28 -114c-19 -21 -45 -32 -77 -32zM477 147c0 -49 10 -43 50 -44v-103h-59c-37 0 -70 17 -90 46
c-28 -35 -76 -58 -129 -58c-124 0 -206 71 -206 171c0 152 184 162 311 146v26c0 32 -38 57 -90 57c-42 0 -82 -21 -91 -60l-112 32c20 91 102 152 204 152c152 0 212 -113 212 -166v-199zM354 173v24c-120 15 -187 6 -187 -38c0 -94 187 -62 187 14z" />
    <glyph glyph-name="ae" unicode="&#xe6;" horiz-adv-x="895" 
d="M852 258v-51h-371c14 -55 62 -97 122 -97c58 0 104 33 120 86l116 -40c-36 -103 -128 -168 -236 -168c-69 0 -132 28 -177 79c-47 -50 -112 -79 -177 -79c-126 0 -206 73 -206 186c0 152 184 145 311 129v28c0 32 -38 57 -90 57c-42 0 -73 -21 -88 -65l-115 37
c20 91 102 152 204 152c70 0 130 -24 170 -68c45 44 104 68 168 68c141 0 247 -113 249 -254zM484 312h238c-18 44 -63 78 -119 78s-101 -34 -119 -78zM354 178v27c-126 16 -187 10 -187 -31c0 -109 187 -87 187 4z" />
    <glyph glyph-name="ccedilla" unicode="&#xe7;" horiz-adv-x="573" 
d="M289 117c63 0 103 28 124 86l120 -41c-29 -82 -88 -139 -166 -161l-26 -29c36 -14 60 -49 60 -88c0 -53 -46 -99 -111 -99c-51 0 -97 37 -111 92l77 16c3 -13 17 -20 27 -20c12 0 17 4 17 12c0 11 -15 16 -29 14l-56 51l33 44c-130 18 -220 124 -220 257
c0 147 110 260 261 260c117 0 207 -63 244 -171l-120 -42c-21 58 -62 87 -124 87c-82 0 -135 -57 -135 -134s53 -134 135 -134z" />
    <glyph glyph-name="eth" unicode="&#xf0;" horiz-adv-x="598" 
d="M424 602c87 -93 131 -182 131 -308c0 -180 -106 -305 -257 -305c-136 0 -247 111 -247 247c0 140 101 237 236 247c51 4 91 -8 122 -32c-18 31 -47 63 -86 99l-170 -77v101l74 38c-25 10 -50 12 -72 9v107c55 6 124 -16 186 -56l139 69v-111zM298 104
c72 0 132 60 132 132s-60 132 -132 132s-132 -60 -132 -132s60 -132 132 -132z" />
    <glyph glyph-name="eacute" unicode="&#xe9;" horiz-adv-x="584" 
d="M328 549h-113l100 157h159zM170 212c12 -66 62 -102 122 -102c58 0 104 23 120 76l116 -40c-36 -103 -128 -158 -236 -158c-143 0 -249 118 -249 265c0 144 107 259 249 259s247 -114 249 -259v-41h-371zM292 390c-57 0 -102 -35 -119 -83h238c-17 48 -62 83 -119 83z
" />
    <glyph glyph-name="ecircumflex" unicode="&#xea;" horiz-adv-x="584" 
d="M504 536h-138l-77 78l-73 -78h-136l161 169h96zM170 212c12 -66 62 -102 122 -102c58 0 104 23 120 76l116 -40c-36 -103 -128 -158 -236 -158c-143 0 -249 118 -249 265c0 144 107 259 249 259s247 -114 249 -259v-41h-371zM292 390c-57 0 -102 -35 -119 -83h238
c-17 48 -62 83 -119 83z" />
    <glyph glyph-name="edieresis" unicode="&#xeb;" horiz-adv-x="584" 
d="M194 708c43 0 78 -35 78 -78s-35 -78 -78 -78s-78 35 -78 78s35 78 78 78zM384 708c43 0 78 -35 78 -78s-35 -78 -78 -78s-78 35 -78 78s35 78 78 78zM170 212c12 -66 62 -102 122 -102c58 0 104 23 120 76l116 -40c-36 -103 -128 -158 -236 -158
c-143 0 -249 118 -249 265c0 144 107 259 249 259s247 -114 249 -259v-41h-371zM292 390c-57 0 -102 -35 -119 -83h238c-17 48 -62 83 -119 83z" />
    <glyph glyph-name="egrave" unicode="&#xe8;" horiz-adv-x="584" 
d="M286 551l-146 157h159l100 -157h-113zM170 212c12 -66 62 -102 122 -102c58 0 104 23 120 76l116 -40c-36 -103 -128 -158 -236 -158c-143 0 -249 118 -249 265c0 144 107 259 249 259s247 -114 249 -259v-41h-371zM292 390c-57 0 -102 -35 -119 -83h238
c-17 48 -62 83 -119 83z" />
    <glyph glyph-name="iacute" unicode="&#xed;" horiz-adv-x="318" 
d="M159 550h-113l100 157h159zM43 510h126v-520h-126v520z" />
    <glyph glyph-name="icircumflex" unicode="&#xee;" horiz-adv-x="424" 
d="M424 537h-138l-77 78l-73 -78h-136l161 169h96zM149 510h126v-520h-126v520z" />
    <glyph glyph-name="idieresis" unicode="&#xef;" horiz-adv-x="346" 
d="M78 707c43 0 78 -35 78 -78s-35 -78 -78 -78s-78 35 -78 78s35 78 78 78zM268 707c43 0 78 -35 78 -78s-35 -78 -78 -78s-78 35 -78 78s35 78 78 78zM110 510h126v-520h-126v520z" />
    <glyph glyph-name="igrave" unicode="&#xec;" horiz-adv-x="315" 
d="M159 549l-146 157h159l100 -157h-113zM128 510h126v-520h-126v520z" />
    <glyph glyph-name="ntilde" unicode="&#xf1;" horiz-adv-x="543" 
d="M181 561h-89c-7 92 32 145 106 145c40 0 69 -19 91 -32c18 -13 26 -16 35 -16c20 0 26 14 19 44h89c4 -54 -5 -91 -28 -114c-19 -21 -45 -32 -77 -32c-58 0 -99 52 -123 52c-17 0 -27 -17 -23 -47zM281 512c124 0 202 -88 202 -225v-287h-126v247c0 102 -29 149 -90 149
c-66 0 -99 -42 -99 -129v-267h-126v500h106l9 -37c21 24 57 49 124 49z" />
    <glyph glyph-name="oacute" unicode="&#xf3;" horiz-adv-x="608" 
d="M351 550h-113l100 157h159zM304 -9c-151 0 -261 113 -261 260s110 260 261 260s261 -113 261 -260s-110 -260 -261 -260zM304 117c82 0 135 57 135 134s-53 134 -135 134s-135 -57 -135 -134s53 -134 135 -134z" />
    <glyph glyph-name="ocircumflex" unicode="&#xf4;" horiz-adv-x="608" 
d="M516 580h-138l-77 78l-73 -78h-136l161 169h96zM304 -9c-151 0 -261 113 -261 260s110 260 261 260s261 -113 261 -260s-110 -260 -261 -260zM304 117c82 0 135 57 135 134s-53 134 -135 134s-135 -57 -135 -134s53 -134 135 -134z" />
    <glyph glyph-name="odieresis" unicode="&#xf6;" horiz-adv-x="608" 
d="M209 710c43 0 78 -35 78 -78s-35 -78 -78 -78s-78 35 -78 78s35 78 78 78zM399 710c43 0 78 -35 78 -78s-35 -78 -78 -78s-78 35 -78 78s35 78 78 78zM304 -9c-151 0 -261 113 -261 260s110 260 261 260s261 -113 261 -260s-110 -260 -261 -260zM304 117
c82 0 135 57 135 134s-53 134 -135 134s-135 -57 -135 -134s53 -134 135 -134z" />
    <glyph glyph-name="ograve" unicode="&#xf2;" horiz-adv-x="608" 
d="M299 551l-146 157h159l100 -157h-113zM304 -9c-151 0 -261 113 -261 260s110 260 261 260s261 -113 261 -260s-110 -260 -261 -260zM304 117c82 0 135 57 135 134s-53 134 -135 134s-135 -57 -135 -134s53 -134 135 -134z" />
    <glyph glyph-name="oslash" unicode="&#xf8;" horiz-adv-x="631" 
d="M588 486l-61 -73c27 -45 42 -100 42 -162c0 -162 -105 -280 -251 -280c-48 0 -92 13 -129 36l-54 -65l-92 77l63 76c-25 43 -39 97 -39 156c0 162 105 280 251 280c46 0 88 -12 124 -33l54 64zM193 251c0 -17 2 -32 5 -47l161 194c-12 5 -26 7 -41 7
c-75 0 -125 -62 -125 -154zM443 251c0 19 -2 37 -6 53l-165 -198c14 -6 29 -9 46 -9c75 0 125 62 125 154z" />
    <glyph glyph-name="otilde" unicode="&#xf5;" horiz-adv-x="608" 
d="M371 554c-58 0 -99 52 -123 52c-17 0 -27 -17 -23 -47h-89c-7 92 32 145 106 145c40 0 69 -19 91 -32c18 -13 26 -16 35 -16c20 0 26 14 19 44h89c4 -54 -5 -91 -28 -114c-19 -21 -45 -32 -77 -32zM304 -9c-151 0 -261 113 -261 260s110 260 261 260s261 -113 261 -260
s-110 -260 -261 -260zM304 117c82 0 135 57 135 134s-53 134 -135 134s-135 -57 -135 -134s53 -134 135 -134z" />
    <glyph glyph-name="oe" unicode="&#x153;" horiz-adv-x="1000" 
d="M952 253v-41h-371c12 -66 62 -102 122 -102c58 0 104 23 120 76l116 -40c-36 -103 -128 -158 -236 -158c-81 0 -150 38 -195 97c-46 -58 -119 -94 -204 -94c-151 0 -261 113 -261 260s110 260 261 260c85 0 158 -36 204 -94c45 58 115 95 195 95c142 0 247 -114 249 -259
zM584 307h238c-17 48 -62 83 -119 83s-102 -35 -119 -83zM304 117c82 0 135 57 135 134s-53 134 -135 134s-135 -57 -135 -134s53 -134 135 -134z" />
    <glyph glyph-name="thorn" unicode="&#xfe;" 
d="M327 522c146 0 252 -118 252 -272s-106 -272 -252 -272c-45 0 -101 27 -141 64v-264h-126v932h123v-246c39 35 95 58 144 58zM317 99c80 0 136 65 136 151s-56 151 -136 151c-79 0 -131 -63 -131 -151s52 -151 131 -151z" />
    <glyph glyph-name="uacute" unicode="&#xfa;" horiz-adv-x="561" 
d="M469 708l-146 -157h-113l100 157h159zM375 500h126v-500h-106l-8 36c-21 -23 -58 -48 -125 -48c-124 0 -202 88 -202 225v287h126v-247c0 -102 29 -149 90 -149c66 0 99 42 99 129v267z" />
    <glyph glyph-name="ucircumflex" unicode="&#xfb;" horiz-adv-x="561" 
d="M277 658l-73 -78h-136l161 169h96l167 -169h-138zM375 500h126v-500h-106l-8 36c-21 -23 -58 -48 -125 -48c-124 0 -202 88 -202 225v287h126v-247c0 -102 29 -149 90 -149c66 0 99 42 99 129v267z" />
    <glyph glyph-name="udieresis" unicode="&#xfc;" horiz-adv-x="561" 
d="M186 554c-43 0 -78 35 -78 78s35 78 78 78s78 -35 78 -78s-35 -78 -78 -78zM376 554c-43 0 -78 35 -78 78s35 78 78 78s78 -35 78 -78s-35 -78 -78 -78zM375 500h126v-500h-106l-8 36c-21 -23 -58 -48 -125 -48c-124 0 -202 88 -202 225v287h126v-247
c0 -102 29 -149 90 -149c66 0 99 42 99 129v267z" />
    <glyph glyph-name="ugrave" unicode="&#xf9;" horiz-adv-x="561" 
d="M363 551h-113l-146 157h159zM375 500h126v-500h-106l-8 36c-21 -23 -58 -48 -125 -48c-124 0 -202 88 -202 225v287h126v-247c0 -102 29 -149 90 -149c66 0 99 42 99 129v267z" />
    <glyph glyph-name="wacute" unicode="&#x1e83;" horiz-adv-x="875" 
d="M644 708l-146 -157h-113l100 157h159zM694 500h134l-178 -500h-105l-107 306l-108 -306h-105l-178 500h134l97 -288l97 288h125l97 -288z" />
    <glyph glyph-name="wcircumflex" unicode="&#x175;" horiz-adv-x="875" 
d="M447 658l-73 -78h-136l161 169h96l167 -169h-138zM694 500h134l-178 -500h-105l-107 306l-108 -306h-105l-178 500h134l97 -288l97 288h125l97 -288z" />
    <glyph glyph-name="wdieresis" unicode="&#x1e85;" horiz-adv-x="875" 
d="M343 554c-43 0 -78 35 -78 78s35 78 78 78s78 -35 78 -78s-35 -78 -78 -78zM533 554c-43 0 -78 35 -78 78s35 78 78 78s78 -35 78 -78s-35 -78 -78 -78zM694 500h134l-178 -500h-105l-107 306l-108 -306h-105l-178 500h134l97 -288l97 288h125l97 -288z" />
    <glyph glyph-name="wgrave" unicode="&#x1e81;" horiz-adv-x="875" 
d="M492 550h-113l-146 157h159zM694 500h134l-178 -500h-105l-107 306l-108 -306h-105l-178 500h134l97 -288l97 288h125l97 -288z" />
    <glyph glyph-name="yacute" unicode="&#xfd;" horiz-adv-x="569" 
d="M493 708l-146 -157h-113l100 157h159zM402 500h133l-208 -589c-33 -95 -126 -145 -215 -114c-35 12 -68 43 -78 73l75 65c8 -23 28 -40 48 -40c33 0 50 19 73 87l6 18h-15l-177 500h133l110 -315z" />
    <glyph glyph-name="ycircumflex" unicode="&#x177;" horiz-adv-x="569" 
d="M309 658l-73 -78h-136l161 169h96l167 -169h-138zM402 500h133l-208 -589c-33 -95 -126 -145 -215 -114c-35 12 -68 43 -78 73l75 65c8 -23 28 -40 48 -40c33 0 50 19 73 87l6 18h-15l-177 500h133l110 -315z" />
    <glyph glyph-name="ydieresis" unicode="&#xff;" horiz-adv-x="569" 
d="M190 554c-43 0 -78 35 -78 78s35 78 78 78s78 -35 78 -78s-35 -78 -78 -78zM380 554c-43 0 -78 35 -78 78s35 78 78 78s78 -35 78 -78s-35 -78 -78 -78zM402 500h133l-208 -589c-33 -95 -126 -145 -215 -114c-35 12 -68 43 -78 73l75 65c8 -23 28 -40 48 -40
c33 0 50 19 73 87l6 18h-15l-177 500h133l110 -315z" />
    <glyph glyph-name="ygrave" unicode="&#x1ef3;" horiz-adv-x="569" 
d="M355 550h-113l-146 157h159zM402 500h133l-208 -589c-33 -95 -126 -145 -215 -114c-35 12 -68 43 -78 73l75 65c8 -23 28 -40 48 -40c33 0 50 19 73 87l6 18h-15l-177 500h133l110 -315z" />
    <glyph glyph-name="uni0307" unicode="&#x307;" horiz-adv-x="0" 
d="M-147 730c43 0 78 -35 78 -78s-35 -78 -78 -78s-78 35 -78 78s35 78 78 78z" />
    <glyph glyph-name="gravecomb" unicode="&#x300;" horiz-adv-x="0" 
d="M-315 748l-146 157h159l100 -157h-113z" />
    <glyph glyph-name="acutecomb" unicode="&#x301;" horiz-adv-x="0" 
d="M-257 748h-113l100 157h159z" />
    <glyph glyph-name="uni0302" unicode="&#x302;" horiz-adv-x="0" 
d="M-124 748h-138l-77 78l-73 -78h-136l161 169h96z" />
    <glyph glyph-name="uni030A" unicode="&#x30a;" horiz-adv-x="0" 
d="M-278 545c-16 0 -33 3 -48 10c-15 6 -27 14 -39 25c-13 11 -22 23 -28 40c-7 15 -11 32 -11 49c0 16 3 33 10 49c9 18 17 30 30 40c9 10 21 18 38 27c17 6 31 9 48 9c16 0 32 -3 50 -9c19 -11 30 -18 40 -27c11 -11 20 -25 25 -40c8 -15 12 -32 12 -49
c0 -16 -3 -33 -10 -49c-9 -17 -17 -29 -29 -39c-10 -11 -24 -20 -38 -26c-14 -7 -32 -10 -50 -10zM-279 636c10 0 18 3 24 10c6 5 10 14 10 23s-3 17 -10 26c-6 5 -15 8 -24 8c-10 0 -16 -3 -22 -9c-6 -7 -10 -16 -10 -25s4 -18 10 -24s12 -9 22 -9z" />
    <glyph glyph-name="tildecomb" unicode="&#x303;" horiz-adv-x="0" 
d="M-222 574c-58 0 -99 52 -123 52c-17 0 -27 -17 -23 -47h-89c-7 92 32 145 106 145c40 0 69 -19 91 -32c18 -13 26 -16 35 -16c20 0 26 14 19 44h89c4 -54 -5 -91 -28 -114c-19 -21 -45 -32 -77 -32z" />
    <glyph glyph-name="uni0327" unicode="&#x327;" horiz-adv-x="0" 
d="M-144 25l-37 -33c36 -14 60 -49 60 -88c0 -63 -46 -109 -111 -109c-51 0 -97 37 -111 92l77 26c3 -13 17 -20 27 -20c12 0 17 4 17 12c0 11 -15 16 -29 14l-56 51l46 55h117z" />
    <glyph glyph-name="acute" unicode="&#xb4;" horiz-adv-x="379" 
d="M173 748h-113l100 157h159z" />
    <glyph glyph-name="breve" unicode="&#x2d8;" horiz-adv-x="438" 
d="M268 720h109c12 -98 -62 -180 -158 -180s-170 82 -158 180h109c-18 -31 14 -75 49 -75s67 44 49 75z" />
    <glyph glyph-name="caron" unicode="&#x2c7;" horiz-adv-x="544" 
d="M346 749h138l-167 -169h-96l-161 169h136l73 -78z" />
    <glyph glyph-name="cedilla" unicode="&#xb8;" horiz-adv-x="342" 
d="M269 25l-47 -53c36 -14 60 -49 60 -88c0 -53 -46 -99 -111 -99c-51 0 -97 37 -111 92l77 16c3 -13 17 -20 27 -20c12 0 17 4 17 12c0 11 -15 16 -29 14l-56 51l56 75h117z" />
    <glyph glyph-name="circumflex" unicode="&#x2c6;" horiz-adv-x="544" 
d="M484 580h-138l-77 78l-73 -78h-136l161 169h96z" />
    <glyph glyph-name="dieresis" unicode="&#xa8;" horiz-adv-x="466" 
d="M138 730c43 0 78 -35 78 -78s-35 -78 -78 -78s-78 35 -78 78s35 78 78 78zM328 730c43 0 78 -35 78 -78s-35 -78 -78 -78s-78 35 -78 78s35 78 78 78z" />
    <glyph glyph-name="dotaccent" unicode="&#x2d9;" horiz-adv-x="276" 
d="M138 730c43 0 78 -35 78 -78s-35 -78 -78 -78s-78 35 -78 78s35 78 78 78z" />
    <glyph glyph-name="grave" unicode="`" horiz-adv-x="379" 
d="M206 748l-146 157h159l100 -157h-113z" />
    <glyph glyph-name="hungarumlaut" unicode="&#x2dd;" horiz-adv-x="552" 
d="M173 748h-113l100 157h159zM346 748h-113l100 157h159z" />
    <glyph glyph-name="macron" unicode="&#xaf;" horiz-adv-x="440" 
d="M60 700h320v-105h-320v105z" />
    <glyph glyph-name="ogonek" unicode="&#x2db;" horiz-adv-x="309" 
d="M184 -221c-70 0 -124 51 -124 119c0 46 36 100 91 135l73 -35c-30 -16 -65 -56 -65 -92c0 -40 63 -45 90 -24v-84c-15 -12 -38 -19 -65 -19z" />
    <glyph glyph-name="ring" unicode="&#x2da;" horiz-adv-x="380" 
d="M191 512c-73 0 -131 58 -131 129c0 73 58 130 131 130c72 0 129 -58 129 -130c0 -71 -58 -129 -129 -129zM191 606c19 0 36 18 36 37c0 20 -16 36 -36 36s-37 -16 -37 -36c0 -21 16 -37 37 -37z" />
    <glyph glyph-name="tilde" unicode="&#x2dc;" horiz-adv-x="462" 
d="M296 574c-59 0 -98 52 -123 52c-17 0 -27 -17 -23 -47h-89c-7 92 32 145 106 145c38 0 67 -17 89 -32c21 -12 29 -16 37 -16c20 0 26 14 19 44h89c4 -54 -5 -91 -28 -114c-19 -21 -45 -32 -77 -32z" />
    <glyph glyph-name="Gbreve" unicode="&#x11e;" horiz-adv-x="772" 
d="M382 746c-96 0 -170 82 -158 180h109c-18 -31 14 -75 49 -75s67 44 49 75h109c12 -98 -62 -180 -158 -180zM446 251v120h261v-371h-100l-13 69c-48 -51 -122 -81 -201 -81c-204 0 -350 156 -350 362s146 362 350 362c157 0 280 -88 328 -236l-122 -41
c-32 100 -107 157 -206 157c-129 0 -220 -104 -220 -242s91 -242 220 -242c103 0 185 61 193 143h-140z" />
    <glyph glyph-name="Scedilla" unicode="&#x15e;" horiz-adv-x="641" 
d="M598 194c0 -107 -83 -184 -209 -202l-18 -20c36 -14 60 -49 60 -88c0 -53 -46 -99 -111 -99c-51 0 -97 37 -111 92l77 16c3 -13 17 -20 27 -20c12 0 17 4 17 12c0 11 -15 16 -29 14l-56 51l31 41c-122 16 -206 84 -230 190c-2 17 -4 40 -3 53h127
c-5 -78 54 -126 154 -126c88 0 148 37 148 89c0 61 -47 84 -175 108c-158 30 -231 88 -231 206c0 124 98 201 253 201c149 0 230 -58 262 -185l-112 -37c-24 74 -62 102 -146 102s-131 -31 -131 -84c0 -57 43 -79 156 -100c171 -32 250 -95 250 -214z" />
    <glyph glyph-name="gbreve" unicode="&#x11f;" horiz-adv-x="561" 
d="M319 720h109c12 -98 -62 -180 -158 -180s-170 82 -158 180h109c-18 -31 14 -75 49 -75s67 44 49 75zM339 104c91 0 168 -62 168 -153c0 -100 -93 -163 -228 -163s-228 63 -228 163c0 47 17 85 47 115c-19 19 -32 45 -32 68c0 29 18 48 47 67c-27 34 -42 75 -42 118
c0 111 89 193 208 193c26 0 54 -5 80 -14c33 6 67 6 122 29l50 -85c-10 -5 -49 -22 -68 -29c16 -28 24 -60 24 -94c0 -111 -89 -193 -208 -193h-4c-30 0 -59 6 -86 18c0 0 -15 -3 -15 -17s17 -23 47 -23h118zM279 396c-50 0 -82 -31 -82 -77c0 -48 30 -77 82 -77
c50 0 82 31 82 77s-32 77 -82 77zM279 -106c66 0 102 21 102 57s-35 57 -102 57s-102 -21 -102 -57s36 -57 102 -57z" />
    <glyph glyph-name="scedilla" unicode="&#x15f;" horiz-adv-x="523" 
d="M472 149c0 -76 -56 -134 -139 -154l-21 -23c36 -14 60 -49 60 -88c0 -53 -46 -99 -111 -99c-51 0 -97 37 -111 92l77 16c3 -13 17 -20 27 -20c12 0 17 4 17 12c0 11 -15 16 -29 14l-56 51l31 42c-41 6 -75 21 -104 45c-22 23 -71 68 -61 156h124c-5 -53 22 -88 88 -88
c52 0 87 18 87 44c0 37 -28 42 -149 63c-92 16 -134 57 -134 139c0 97 76 161 193 161c114 0 178 -51 202 -159l-110 -36c-16 60 -37 79 -90 79c-47 0 -74 -18 -74 -47s9 -37 45 -44c181 -35 238 -49 238 -156z" />
    <glyph glyph-name="germandbls" unicode="&#xdf;" horiz-adv-x="598" 
d="M413 278c64 -21 159 -85 159 -233c0 -151 -128 -265 -302 -257v119c107 -9 178 52 178 141c0 98 -71 159 -178 150v63l61 119h-128v-390h-126v542c0 104 74 180 177 180c35 0 67 -9 96 -27l-55 -110c-13 11 -27 16 -40 15c-32 0 -52 -21 -52 -58v-32h322z" />
    <glyph glyph-name="germandbls.ss01" horiz-adv-x="593" 
d="M424 360c53 -16 126 -72 126 -175c0 -116 -97 -193 -225 -193c-28 0 -56 5 -80 14v134c28 -17 43 -22 77 -22c70 0 102 34 102 89c0 50 -46 95 -102 95h-88v96h70c53 0 93 43 93 95c0 57 -39 89 -93 89c-70 0 -114 -48 -114 -124v-458h-130v480c0 130 105 228 244 228
c117 0 220 -96 220 -218c0 -68 -36 -117 -100 -130z" />
    <glyph glyph-name="f_f" horiz-adv-x="684" 
d="M498 532v-32h122v-112h-122v-388h-126v388h-128v-388h-126v388h-84v112h84v32c0 104 74 180 177 180c35 0 67 -9 96 -27l-55 -110c-13 11 -27 16 -40 15c-32 0 -52 -21 -52 -58v-32h128v32c0 104 74 180 177 180c35 0 67 -9 96 -27l-55 -110c-13 11 -27 16 -40 15
c-32 0 -52 -21 -52 -58z" />
    <glyph glyph-name="f_f_f" horiz-adv-x="954" 
d="M755 532v-32h122v-112h-122v-388h-126v388h-128v-388h-126v388h-84v1h-44v-388h-126v388h-84v112h84v32c0 104 74 180 177 180c35 0 67 -9 96 -27l-55 -110c-13 11 -27 16 -40 15c-32 0 -52 -21 -52 -58v-32h122v-1h6v32c0 104 74 180 177 180c35 0 67 -9 96 -27
l-55 -110c-13 11 -27 16 -40 15c-32 0 -52 -21 -52 -58v-32h128v32c0 104 74 180 177 180c35 0 67 -9 96 -27l-55 -110c-13 11 -27 16 -40 15c-32 0 -52 -21 -52 -58z" />
    <glyph glyph-name="f_f_i" horiz-adv-x="832" 
d="M688 562c-43 0 -78 35 -78 78s35 78 78 78s78 -35 78 -78s-35 -78 -78 -78zM751 500v-500h-126v388h-148v-388h-126v388h-121v-388h-126v388h-84v112h84v32c0 104 74 180 177 180c35 0 67 -9 96 -27l-55 -110c-13 11 -27 16 -40 15c-32 0 -52 -21 -52 -58v-32h121v32
c0 104 74 180 177 180c35 0 56 -6 85 -21l-55 -111c-6 5 -18 10 -29 10c-32 0 -52 -21 -52 -58v-32h274z" />
    <glyph glyph-name="f_f_j" horiz-adv-x="846" 
d="M663 500h106v-532c0 -99 -76 -180 -170 -180c-38 0 -86 18 -100 40l53 98c9 -11 24 -17 41 -17c32 0 50 22 50 59v420h-153v-388h-126v388h-134v-388h-126v388h-84v112h84v32c0 104 74 180 177 180c35 0 67 -9 96 -27l-55 -110c-13 11 -27 16 -40 15
c-32 0 -52 -21 -52 -58v-32h134v32c0 104 74 180 177 180c35 0 58 -5 87 -23l-52 -108c-10 5 -22 9 -34 9c-32 0 -52 -21 -52 -58v-32h173zM706 571c-38 0 -68 30 -68 68s30 68 68 68s68 -30 68 -68s-30 -68 -68 -68z" />
    <glyph glyph-name="f_f_l" horiz-adv-x="808" 
d="M558 712c125 0 183 -87 190 -100v-612h-126v570c-17 14 -37 20 -63 20c-33 0 -52 -22 -52 -58v-32h92v-112h-92v-388h-126v388h-137v-388h-126v388h-84v112h84v32c0 104 74 180 177 180c35 0 67 -9 96 -27l-55 -110c-13 11 -27 16 -40 15c-32 0 -52 -21 -52 -58v-32h137
v32c0 104 74 180 177 180z" />
    <glyph glyph-name="f_i" horiz-adv-x="591" 
d="M455 562c-43 0 -78 35 -78 78s35 78 78 78s78 -35 78 -78s-35 -78 -78 -78zM518 500v-500h-126v388h-148v-388h-126v388h-84v112h84v32c0 104 74 180 177 180c35 0 56 -6 85 -21l-55 -111c-6 5 -18 10 -29 10c-32 0 -52 -21 -52 -58v-32h274z" />
    <glyph glyph-name="f_j" horiz-adv-x="586" 
d="M353 -212c-38 0 -86 18 -100 40l53 98c9 -11 24 -17 41 -17c32 0 50 22 50 59v420h-153v-388h-126v388h-84v112h84v32c0 104 74 180 177 180c35 0 58 -5 87 -23l-52 -108c-10 5 -22 9 -34 9c-32 0 -52 -21 -52 -58v-32h173h106v-532c0 -99 -76 -180 -170 -180zM460 571
c-38 0 -68 30 -68 68s30 68 68 68s68 -30 68 -68s-30 -68 -68 -68z" />
    <glyph glyph-name="f_l" horiz-adv-x="545" 
d="M304 712c125 0 183 -87 190 -100v-612h-126v570c-17 14 -37 20 -63 20c-33 0 -52 -22 -52 -58v-32h92v-112h-92v-388h-126v388h-84v112h84v32c0 104 74 180 177 180z" />
    <glyph glyph-name="uni2080" unicode="&#x2080;" horiz-adv-x="409" 
d="M207 356c102 0 176 -93 176 -219c0 -125 -73 -215 -176 -215c-105 0 -181 91 -181 215c0 125 77 219 181 219zM207 252c-45 0 -82 -51 -82 -115c0 -65 35 -112 82 -112c45 0 77 46 77 112c0 65 -34 115 -77 115z" />
    <glyph glyph-name="uni2081" unicode="&#x2081;" horiz-adv-x="219" 
d="M101 186h-72v89h53c12 0 19 8 19 20v55h101v-420h-101v256z" />
    <glyph glyph-name="uni2082" unicode="&#x2082;" horiz-adv-x="349" 
d="M207 72c-30 -18 -53 -31 -65 -45h170v-97h-283v54c0 66 37 119 112 160c46 27 73 43 73 77c0 25 -13 38 -36 38c-38 0 -62 -40 -40 -72h-106c-16 52 32 171 144 171c83 0 139 -54 139 -134c0 -82 -67 -126 -108 -152z" />
    <glyph glyph-name="uni2083" unicode="&#x2083;" horiz-adv-x="344" 
d="M129 70c-16 -28 1 -50 39 -50c26 0 46 20 46 44c0 22 -23 39 -55 39h-42v93h42c31 0 46 11 46 32c0 17 -17 32 -38 32c-35 0 -43 -11 -33 -41h-99c-17 76 44 137 132 137c74 0 136 -57 136 -124c0 -37 -11 -64 -32 -83c28 -23 41 -51 41 -87c0 -77 -66 -140 -145 -140
c-91 0 -154 66 -137 148h99z" />
    <glyph glyph-name="uni2084" unicode="&#x2084;" horiz-adv-x="361" 
d="M278 98h57v-93h-57v-75h-92v75h-165v70c68 83 118 173 151 275h106v-252zM143 98h43l1 92c-8 -24 -22 -54 -44 -92z" />
    <glyph glyph-name="uni2085" unicode="&#x2085;" horiz-adv-x="361" 
d="M153 257l-5 -28c10 3 20 4 32 4c86 0 155 -70 155 -156c0 -85 -71 -155 -156 -155c-84 0 -155 72 -154 159l91 5c-5 -31 19 -69 63 -69c35 0 62 27 62 60c0 35 -27 63 -62 63c-31 0 -46 -11 -58 -36l-82 26l39 220h235v-93h-160z" />
    <glyph glyph-name="uni2086" unicode="&#x2086;" horiz-adv-x="369" 
d="M198 231c82 0 145 -67 145 -152c0 -83 -69 -152 -152 -152c-93 0 -158 76 -158 186c0 146 73 238 186 238c42 0 76 -11 112 -36l-42 -74c-32 19 -42 23 -72 23c-35 0 -60 -19 -76 -43c17 6 36 10 57 10zM191 10c38 0 69 31 69 69s-31 69 -69 69s-69 -31 -69 -69
s31 -69 69 -69z" />
    <glyph glyph-name="uni2087" unicode="&#x2087;" horiz-adv-x="337" 
d="M21 345h311v-65c-133 -108 -162 -251 -158 -345h-85c-4 123 38 247 110 327h-178v83z" />
    <glyph glyph-name="uni2088" unicode="&#x2088;" horiz-adv-x="377" 
d="M290 159c38 -29 56 -61 56 -99c0 -82 -65 -138 -158 -138s-157 57 -157 138c0 41 18 74 53 100c-23 24 -34 49 -34 77c0 73 58 127 138 127s139 -53 139 -127c0 -28 -10 -50 -37 -78zM188 270c-27 0 -46 -14 -46 -33c0 -22 16 -35 46 -35c31 0 47 13 47 35
c0 19 -19 33 -47 33zM188 16c38 0 60 17 60 44c0 28 -22 45 -60 45s-60 -17 -60 -45c0 -27 22 -44 60 -44z" />
    <glyph glyph-name="uni2089" unicode="&#x2089;" horiz-adv-x="376" 
d="M182 359c96 0 161 -77 161 -189c0 -149 -74 -243 -189 -243c-49 0 -82 14 -113 37l41 75c34 -19 41 -24 74 -24c36 0 62 20 78 45c-17 -7 -38 -11 -59 -11c-84 0 -148 68 -148 155c0 85 70 155 155 155zM182 133c39 0 71 32 71 71s-32 71 -71 71s-71 -32 -71 -71
s32 -71 71 -71z" />
    <glyph glyph-name="uni2070" unicode="&#x2070;" horiz-adv-x="409" 
d="M207 778c102 0 176 -93 176 -219c0 -125 -73 -215 -176 -215c-105 0 -181 91 -181 215c0 125 77 219 181 219zM207 674c-45 0 -82 -51 -82 -115c0 -65 35 -112 82 -112c45 0 77 46 77 112c0 65 -34 115 -77 115z" />
    <glyph glyph-name="uni00B9" unicode="&#xb9;" horiz-adv-x="220" 
d="M101 607h-72v89h53c12 0 19 8 19 20v55h101v-420h-101v256z" />
    <glyph glyph-name="uni00B2" unicode="&#xb2;" horiz-adv-x="346" 
d="M207 492c-30 -18 -53 -31 -65 -45h170v-97h-283v54c0 66 37 119 112 160c46 27 73 43 73 77c0 25 -13 38 -36 38c-38 0 -62 -40 -40 -72h-106c-16 52 32 171 144 171c83 0 139 -54 139 -134c0 -82 -68 -125 -108 -152z" />
    <glyph glyph-name="uni00B3" unicode="&#xb3;" horiz-adv-x="343" 
d="M129 492c-16 -28 1 -50 39 -50c26 0 46 20 46 44c0 22 -23 39 -55 39h-42v93h42c31 0 46 11 46 32c0 17 -17 32 -38 32c-35 0 -43 -11 -33 -41h-99c-17 76 44 137 132 137c74 0 136 -57 136 -124c0 -37 -11 -64 -32 -83c28 -23 41 -51 41 -87c0 -77 -66 -140 -145 -140
c-91 0 -154 66 -137 148h99z" />
    <glyph glyph-name="uni2074" unicode="&#x2074;" horiz-adv-x="358" 
d="M21 496c68 83 118 173 151 275h106v-252h57v-93h-57v-75h-92v75h-165v70zM193 608c-11 -25 -29 -69 -45 -93h44z" />
    <glyph glyph-name="uni2075" unicode="&#x2075;" horiz-adv-x="361" 
d="M153 682l-5 -28c10 3 20 4 32 4c86 0 155 -70 155 -156c0 -85 -71 -155 -156 -155c-84 0 -155 72 -154 159l91 5c-5 -31 19 -69 63 -69c35 0 62 27 62 60c0 35 -27 63 -62 63c-31 0 -46 -11 -58 -36l-82 26l39 220h235v-93h-160z" />
    <glyph glyph-name="uni2076" unicode="&#x2076;" horiz-adv-x="369" 
d="M198 652c82 0 145 -67 145 -152c0 -83 -69 -152 -152 -152c-93 0 -158 76 -158 186c0 146 73 238 186 238c42 0 76 -11 112 -36l-42 -74c-32 19 -42 23 -72 23c-35 0 -60 -19 -76 -43c17 6 36 10 57 10zM191 431c38 0 69 31 69 69s-31 69 -69 69s-69 -31 -69 -69
s31 -69 69 -69z" />
    <glyph glyph-name="uni2077" unicode="&#x2077;" horiz-adv-x="337" 
d="M21 766h311v-65c-133 -108 -162 -251 -158 -345h-85c-4 123 38 247 110 327h-178v83z" />
    <glyph glyph-name="uni2078" unicode="&#x2078;" horiz-adv-x="377" 
d="M290 581c38 -29 56 -61 56 -99c0 -82 -65 -138 -158 -138s-157 57 -157 138c0 41 18 74 53 100c-23 24 -34 49 -34 77c0 73 58 127 138 127s139 -53 139 -127c0 -28 -10 -50 -37 -78zM188 692c-27 0 -46 -14 -46 -33c0 -22 16 -35 46 -35c31 0 47 13 47 35
c0 19 -19 33 -47 33zM188 438c38 0 60 17 60 44c0 28 -22 45 -60 45s-60 -17 -60 -45c0 -27 22 -44 60 -44z" />
    <glyph glyph-name="uni2079" unicode="&#x2079;" horiz-adv-x="374" 
d="M181 781c96 0 161 -77 161 -189c0 -149 -74 -243 -189 -243c-49 0 -82 14 -113 37l41 75c34 -19 41 -24 74 -24c36 0 62 20 78 45c-17 -7 -38 -11 -59 -11c-84 0 -148 68 -148 155c0 85 70 155 155 155zM181 555c39 0 71 32 71 71s-32 71 -71 71s-71 -32 -71 -71
s32 -71 71 -71z" />
    <glyph glyph-name="fraction" unicode="&#x2044;" horiz-adv-x="330" 
d="M338 720h128l-474 -740h-128z" />
    <glyph glyph-name="ellipsis.001" horiz-adv-x="596" 
d="M122 126c43 0 78 -35 78 -78s-35 -78 -78 -78s-78 35 -78 78s35 78 78 78zM313 126c43 0 78 -35 78 -78s-35 -78 -78 -78s-78 35 -78 78s35 78 78 78z" />
    <glyph glyph-name="cent" unicode="&#xa2;" horiz-adv-x="571" 
d="M349 236c27 14 48 39 59 73l120 -41c-31 -87 -96 -147 -179 -165v-103h-110v103c-117 25 -196 131 -196 254s79 229 196 254v101h110v-101c83 -18 150 -78 179 -165l-120 -42c-11 34 -32 60 -59 74v-242zM169 357c0 -52 27 -100 70 -121v242c-43 -21 -70 -69 -70 -121z
" />
    <glyph glyph-name="currency" unicode="&#xa4;" horiz-adv-x="620" 
d="M523 319c0 -41 -12 -79 -33 -112l87 -87l-81 -80l-90 91c-28 -14 -60 -22 -93 -22c-37 0 -71 9 -100 24l-90 -89l-80 80l86 86c-19 32 -30 69 -30 109c0 35 8 67 23 96l-79 79l80 80l76 -76c33 20 72 32 114 32c39 0 75 -11 106 -29l77 77l81 -80l-79 -79
c16 -30 25 -64 25 -100zM209 319c0 -55 46 -100 104 -100c55 0 100 45 100 100s-45 101 -100 101c-58 0 -104 -44 -104 -101z" />
    <glyph glyph-name="dollar" unicode="$" horiz-adv-x="580" 
d="M537 181c0 -100 -77 -172 -192 -188v-52h-105v54c-99 17 -170 79 -194 174c-2 14 -3 33 -3 52h125c0 -54 25 -92 72 -107v152c-55 15 -100 41 -134 75c-28 29 -42 70 -42 121c0 99 68 168 176 184v54h105v-55c120 -19 192 -97 181 -208h-125c0 46 -16 76 -56 88v-170
c120 -25 192 -71 192 -174zM187 459c0 -32 17 -57 53 -75v141c-34 -11 -53 -35 -53 -66zM345 114c42 13 70 40 70 70c0 38 -24 51 -70 61v-131z" />
    <glyph glyph-name="Euro" unicode="&#x20ac;" horiz-adv-x="661" 
d="M455 533c-74 0 -133 -35 -167 -90h259v-107h-291c-1 -6 -1 -12 -1 -18s0 -12 1 -18h291v-105h-259c34 -55 93 -89 167 -89c61 0 97 3 155 24v-118c-39 -20 -87 -29 -155 -29c-146 0 -258 85 -302 212h-85v105h65v18v18h-65v107h86c44 126 155 211 301 211
c68 0 116 -9 155 -29v-117c-55 19 -90 25 -155 25z" />
    <glyph glyph-name="sterling" unicode="&#xa3;" horiz-adv-x="562" 
d="M286 266c18 -55 8 -111 -23 -147h249v-119h-469v119h21c91 0 123 91 92 146l-113 -2v111h48c-6 15 -18 45 -18 74c0 119 92 201 223 201c122 0 201 -63 232 -185l-112 -37c-23 70 -59 102 -116 102c-60 0 -101 -35 -101 -84c0 -29 16 -50 33 -71h218v-106z" />
    <glyph glyph-name="yen" unicode="&#xa5;" 
d="M588 643l-175 -284h107v-91h-151v-28h151v-91h-151v-149h-123v149h-151v91h151v28h-149v91h107l-170 284h137l136 -235l143 235h138z" />
    <glyph glyph-name="plus" unicode="+" 
d="M579 343v-116h-207v-203h-116v203h-213v116h213v217h116v-217h207z" />
    <glyph glyph-name="minus" unicode="&#x2212;" horiz-adv-x="642" 
d="M43 227v116h556v-116h-556z" />
    <glyph glyph-name="multiply" unicode="&#xd7;" horiz-adv-x="562" 
d="M511 459l-150 -150l150 -150l-82 -81l-149 150l-148 -148l-81 82l147 147l-147 147l81 82l147 -147l150 150z" />
    <glyph glyph-name="divide" unicode="&#xf7;" 
d="M311 374c-42 0 -78 36 -78 78c0 43 35 78 78 78s78 -35 78 -78s-35 -78 -78 -78zM43 227v116h536v-116h-536zM311 40c-42 0 -78 36 -78 78c0 43 35 78 78 78s78 -35 78 -78s-35 -78 -78 -78z" />
    <glyph glyph-name="equal" unicode="=" horiz-adv-x="602" 
d="M43 325v116h516v-116h-516zM43 117v116h516v-116h-516z" />
    <glyph glyph-name="notequal" unicode="&#x2260;" horiz-adv-x="602" 
d="M559 325h-170l-46 -92h216v-116h-274l-49 -97h-125l49 97h-117v116h175l46 92h-221v116h279l45 90h125l-45 -90h112v-116z" />
    <glyph glyph-name="greater" unicode="&#x3e;" horiz-adv-x="516" 
d="M51 90v121l265 108l-265 104v122l431 -177v-105z" />
    <glyph glyph-name="less" unicode="&#x3c;" horiz-adv-x="516" 
d="M465 90l-431 173v105l431 177v-122l-265 -104l265 -108v-121z" />
    <glyph glyph-name="greaterequal" unicode="&#x2265;" horiz-adv-x="517" 
d="M474 368v-105l-429 -172h429v-107h-431v227l265 108l-265 104v122z" />
    <glyph glyph-name="lessequal" unicode="&#x2264;" horiz-adv-x="517" 
d="M474 545v-122l-265 -104l265 -108v-227h-431v107h429l-429 172v105z" />
    <glyph glyph-name="plusminus" unicode="&#xb1;" 
d="M372 393h207v-116h-207v-153h-116v153h-213v116h213v167h116v-167zM43 -8v116h536v-116h-536z" />
    <glyph glyph-name="approxequal" unicode="&#x2248;" horiz-adv-x="625" 
d="M408 286c-36 0 -71 10 -106 30l-47 25c-17 10 -30 13 -44 12c-14 0 -24 -3 -35 -12c-13 -11 -28 -28 -45 -51l-88 65c23 39 47 68 75 89c25 18 57 27 92 27c18 0 37 -2 53 -6l29 -12l67 -35c18 -8 34 -13 49 -14c14 0 24 4 35 12c10 6 21 20 42 50l88 -66
c-22 -38 -46 -66 -74 -87c-27 -18 -59 -27 -91 -27zM417 99c-36 0 -71 10 -106 30l-47 25c-17 10 -30 13 -44 12c-14 0 -24 -3 -35 -12c-13 -11 -28 -28 -45 -51l-88 65c23 39 47 68 75 89c25 18 57 27 92 27c18 0 37 -2 53 -6l29 -12l67 -35c18 -8 34 -13 49 -14
c14 0 24 4 35 12c10 6 21 20 42 50l88 -66c-22 -38 -46 -66 -74 -87c-27 -18 -59 -27 -91 -27z" />
    <glyph glyph-name="asciitilde" unicode="~" horiz-adv-x="616" 
d="M408 180c-36 0 -71 10 -106 30l-46 25c-20 10 -32 13 -45 12c-14 0 -24 -3 -35 -12c-13 -11 -28 -28 -45 -51l-88 65c23 39 47 68 75 89c25 18 57 27 92 27c18 0 37 -2 51 -6c20 -5 40 -15 53 -23l45 -25c16 -8 33 -12 49 -13c14 0 24 4 35 12c10 6 21 20 42 50l88 -67
c-26 -41 -49 -68 -75 -86s-58 -27 -90 -27z" />
    <glyph glyph-name="logicalnot" unicode="&#xac;" horiz-adv-x="582" 
d="M539 343v-296h-116v180h-380v116h496z" />
    <glyph glyph-name="emptyset" unicode="&#x2205;" horiz-adv-x="628" 
d="M602 486l-60 -58c33 -46 53 -100 53 -156c0 -146 -134 -281 -280 -281c-59 0 -116 22 -163 58l-58 -56l-68 68l59 57c-32 45 -51 99 -51 154c0 145 136 280 281 280c58 0 114 -21 160 -56l60 58zM136 272c0 -28 9 -56 24 -81l240 232c-26 17 -56 27 -85 27
c-89 0 -179 -89 -179 -178zM493 272c0 29 -10 58 -25 83l-242 -234c27 -17 58 -28 89 -28c89 0 178 90 178 179z" />
    <glyph glyph-name="infinity" unicode="&#x221e;" horiz-adv-x="896" 
d="M650 520c121 0 220 -99 220 -220s-99 -220 -220 -220c-71 0 -142 46 -201 130c-63 -84 -133 -130 -203 -130c-121 0 -220 99 -220 220s99 220 220 220c70 0 140 -46 203 -130c60 83 131 130 201 130zM246 198c78 0 148 101 148 101s-82 103 -148 103
c-56 0 -102 -46 -102 -102s46 -102 102 -102zM650 198c56 0 102 46 102 102s-46 102 -102 102c-75 0 -138 -102 -138 -102s52 -102 138 -102z" />
    <glyph glyph-name="integral" unicode="&#x222b;" horiz-adv-x="461" 
d="M378 726h40v-118h-41c-30 0 -53 -24 -57 -60l-60 -550c-12 -102 -85 -174 -177 -174h-40v119h41c31 0 53 23 57 61l60 550c11 100 85 172 177 172z" />
    <glyph glyph-name="product" unicode="&#x220f;" horiz-adv-x="722" 
d="M662 700v-110h-110v-687h-120v687h-142v-687h-120v687h-110v110h602z" />
    <glyph glyph-name="summation" unicode="&#x2211;" horiz-adv-x="620" 
d="M586 714v-120h-384l257 -274v-21l-257 -274h384v-120h-552v112l274 293l-274 292v112h552z" />
    <glyph glyph-name="radical" unicode="&#x221a;" horiz-adv-x="817" 
d="M808 807v-122h-204l-276 -685h-95l-207 530h123l132 -345l249 622h278z" />
    <glyph glyph-name="partialdiff" unicode="&#x2202;" horiz-adv-x="590" 
d="M547 284c0 -175 -106 -295 -257 -295c-135 0 -247 109 -247 242c0 136 104 242 236 242c54 0 98 -11 136 -42c-34 95 -180 193 -268 190v107c128 0 400 -141 400 -444zM422 231c0 68 -62 127 -132 127s-132 -59 -132 -127s62 -127 132 -127s132 59 132 127z" />
    <glyph glyph-name="percent" unicode="%" horiz-adv-x="791" 
d="M206 321c-89 0 -163 77 -163 161c0 86 74 165 163 165c88 0 159 -78 159 -165c0 -85 -70 -161 -159 -161zM111 0l444 635h127l-445 -635h-126zM206 420c34 0 60 31 60 62c0 33 -27 66 -60 66c-34 0 -64 -35 -64 -66c0 -30 29 -62 64 -62zM589 -12c-89 0 -163 77 -163 161
c0 86 74 165 163 165c88 0 159 -78 159 -165c0 -85 -70 -161 -159 -161zM589 87c34 0 60 31 60 62c0 33 -27 66 -60 66c-34 0 -64 -35 -64 -66c0 -30 29 -62 64 -62z" />
    <glyph glyph-name="perthousand" unicode="&#x2030;" horiz-adv-x="1144" 
d="M206 321c-89 0 -163 77 -163 161c0 86 74 165 163 165c88 0 159 -78 159 -165c0 -85 -70 -161 -159 -161zM111 0l444 635h127l-445 -635h-126zM206 420c34 0 60 31 60 62c0 33 -27 66 -60 66c-34 0 -64 -35 -64 -66c0 -30 29 -62 64 -62zM589 -12c-89 0 -163 77 -163 161
c0 86 74 165 163 165c88 0 159 -78 159 -165c0 -85 -70 -161 -159 -161zM951 -12c-89 0 -163 77 -163 161c0 86 74 165 163 165c88 0 159 -78 159 -165c0 -85 -70 -161 -159 -161zM589 87c34 0 60 31 60 62c0 33 -27 66 -60 66c-34 0 -64 -35 -64 -66c0 -30 29 -62 64 -62z
M951 87c34 0 60 31 60 62c0 33 -27 66 -60 66c-34 0 -64 -35 -64 -66c0 -30 29 -62 64 -62z" />
    <glyph glyph-name="arrowup" unicode="&#x2191;" horiz-adv-x="630" 
d="M352 696c86 -164 134 -206 250 -266v-123c-100 26 -185 86 -229 156v-463h-116v464c-45 -70 -130 -131 -229 -157v123c116 60 164 102 250 266h74z" />
    <glyph glyph-name="uni2197" unicode="&#x2197;" horiz-adv-x="638" 
d="M608 475c-55 -176 -51 -241 -12 -363l-86 -86c-51 82 -66 190 -46 276l-339 -337l-82 81l338 340c-87 -21 -195 -6 -277 45l87 87c122 -40 187 -43 363 11z" />
    <glyph glyph-name="uni2198" unicode="&#x2198;" horiz-adv-x="636" 
d="M604 397c-40 -122 -43 -187 11 -363l-54 -54c-176 55 -241 51 -363 12l-86 86c82 51 190 66 276 46l-337 339l81 82l340 -338c-21 87 -6 195 45 277z" />
    <glyph glyph-name="arrowdown" unicode="&#x2193;" horiz-adv-x="630" 
d="M373 225c46 74 133 140 229 164v-123c-116 -60 -164 -102 -250 -266h-74c-86 164 -134 206 -250 266v123c95 -24 183 -90 229 -166v473h116v-471z" />
    <glyph glyph-name="uni2199" unicode="&#x2199;" horiz-adv-x="636" 
d="M278 118c86 21 195 5 276 -45l-86 -86c-122 39 -187 43 -363 -12l-54 54c54 176 51 241 11 363l87 87c50 -82 66 -190 44 -277l341 338l81 -82z" />
    <glyph glyph-name="uni2196" unicode="&#x2196;" horiz-adv-x="638" 
d="M595 41l-82 -81l-340 337c21 -86 5 -195 -45 -276l-86 86c39 122 43 187 -12 363l54 54c176 -54 241 -51 363 -11l87 -87c-82 -50 -190 -66 -277 -44z" />
    <glyph glyph-name="arrowupdn" unicode="&#x2195;" horiz-adv-x="631" 
d="M380 204l106 106l81 -82l-227 -228h-36l-227 228l81 82l106 -106v292l-106 -106l-81 82l227 228h36l227 -228l-81 -82l-106 106v-292z" />
    <glyph glyph-name="lozenge" unicode="&#x25ca;" horiz-adv-x="499" 
d="M299 608l174 -304l-174 -304h-103l-170 304l170 304h103zM251 134l97 170l-97 170l-101 -170z" />
    <glyph glyph-name="at" unicode="@" horiz-adv-x="1014" 
d="M507 760c256 0 464 -208 464 -464c0 -165 -79 -269 -205 -269c-71 0 -132 31 -160 81c-32 -32 -83 -53 -129 -53c-124 0 -216 102 -216 241s92 241 216 241c46 0 94 -19 124 -47l7 40h96v-323c0 -37 27 -67 62 -67c47 0 83 69 83 156c0 188 -154 342 -342 342
s-342 -154 -342 -342s154 -342 342 -342c62 0 125 18 179 52l65 -105c-73 -46 -156 -69 -244 -69c-256 0 -464 208 -464 464s208 464 464 464zM486 165c64 0 106 51 106 131s-42 131 -106 131c-65 0 -111 -53 -111 -131s46 -131 111 -131z" />
    <glyph glyph-name="ampersand" unicode="&#x26;" horiz-adv-x="763" 
d="M681 378v-123c-52 5 -89 -12 -139 -62l-2 -2l180 -191h-162l-101 108l-54 -59c-40 -39 -92 -61 -148 -62s-111 21 -149 60c-43 44 -65 103 -63 167c2 58 27 109 70 146c11 10 33 23 49 29c-35 32 -72 68 -72 135c0 107 83 190 190 190c105 0 190 -85 190 -190
c0 -72 -34 -114 -110 -160l97 -91l26 30c50 52 104 75 176 75h22zM270 431c57 27 82 56 82 93c0 40 -32 72 -72 72c-41 0 -72 -31 -72 -72c0 -24 20 -55 62 -93zM254 105h1c23 0 45 9 63 26l54 61l-121 125c-63 -42 -87 -64 -90 -108c-2 -28 9 -57 30 -78
c17 -17 39 -26 63 -26z" />
    <glyph glyph-name="paragraph" unicode="&#xb6;" horiz-adv-x="664" 
d="M443 695v-792h-120v362h-57c-124 0 -215 91 -215 215s91 215 215 215h177zM493 695h120v-792h-120v792z" />
    <glyph glyph-name="section" unicode="&#xa7;" horiz-adv-x="552" 
d="M276 -189c-131 0 -217 89 -217 215h119c0 -67 31 -97 98 -97c57 0 100 34 100 77c0 58 -73 62 -128 71c-131 21 -205 92 -205 180c0 43 31 101 81 140c-42 36 -66 87 -66 141c0 109 95 194 218 194c130 0 217 -90 217 -214h-119c0 59 -33 96 -98 96
c-56 0 -100 -34 -100 -76c0 -43 48 -80 122 -94c137 -26 211 -97 211 -187c0 -36 -29 -96 -67 -127c32 -29 52 -75 52 -124c0 -110 -96 -195 -218 -195zM275 174c63 0 116 39 116 81c0 41 -52 80 -116 80c-62 0 -115 -39 -115 -80s53 -81 115 -81z" />
    <glyph glyph-name="copyright" unicode="&#xa9;" horiz-adv-x="905" 
d="M453 -99c-227 0 -410 183 -410 410s183 409 410 409c226 0 409 -183 409 -409c0 -227 -182 -410 -409 -410zM453 21c160 0 289 130 289 290s-129 289 -289 289s-290 -129 -290 -289c0 -161 129 -290 290 -290zM633 244c-25 -84 -95 -136 -180 -136
c-110 0 -192 88 -192 204s82 204 192 204c84 0 154 -52 181 -136l-100 -34c-10 42 -40 66 -81 66c-51 0 -88 -41 -88 -100s37 -100 88 -100c39 0 67 22 82 66z" />
    <glyph glyph-name="registered" unicode="&#xae;" horiz-adv-x="905" 
d="M453 -99c-227 0 -410 183 -410 410s183 409 410 409c226 0 409 -183 409 -409c0 -227 -182 -410 -409 -410zM453 21c160 0 289 130 289 290s-129 289 -289 289s-290 -129 -290 -289c0 -161 129 -290 290 -290zM415 121h-99v382h148c69 0 120 -51 120 -120
c0 -41 -20 -78 -53 -100l93 -162h-119l-80 141h-10v-141zM458 357c14 0 25 7 25 26c0 21 -11 29 -25 29h-47v-55h47z" />
    <glyph glyph-name="trademark" unicode="&#x2122;" horiz-adv-x="778" 
d="M26 613v97h305v-97h-99v-269h-102v269h-104zM647 710h105v-366h-102v147l-53 -102h-85l-54 103v-148h-102v366h105l94 -200z" />
    <glyph glyph-name="degree" unicode="&#xb0;" horiz-adv-x="362" 
d="M181 396c-76 0 -138 62 -138 138s62 138 138 138c75 0 138 -63 138 -138s-63 -138 -138 -138zM181 494c22 0 40 18 40 40s-18 40 -40 40s-40 -18 -40 -40s18 -40 40 -40z" />
    <glyph glyph-name="bar" unicode="|" horiz-adv-x="230" 
d="M60 700h110v-797h-110v797z" />
    <glyph glyph-name="brokenbar" unicode="&#xa6;" horiz-adv-x="230" 
d="M60 354v346h110v-346h-110zM60 -97v318h110v-318h-110z" />
    <glyph glyph-name="dagger" unicode="&#x2020;" horiz-adv-x="438" 
d="M387 580v-116h-107v-285h-116v285h-113v116h113v115h116v-115h107z" />
    <glyph glyph-name="daggerdbl" unicode="&#x2021;" horiz-adv-x="438" 
d="M387 484h-107v-52h107v-116h-107v-95h-116v95h-113v116h113v52h-113v116h113v95h116v-95h107v-116z" />
    <glyph glyph-name="uni0308" unicode="&#x308;" horiz-adv-x="0" 
d="M-302 710c43 0 78 -35 78 -78s-35 -78 -78 -78s-78 35 -78 78s35 78 78 78zM-112 710c43 0 78 -35 78 -78s-35 -78 -78 -78s-78 35 -78 78s35 78 78 78z" />
    </font>
</defs>
</svg>
