<?xml version="1.0" standalone="no"?>
<!DOCTYPE svg PUBLIC "-//W3C//DTD SVG 1.1//EN" "http://www.w3.org/Graphics/SVG/1.1/DTD/svg11.dtd" >
<svg xmlns="http://www.w3.org/2000/svg" xmlns:xlink="http://www.w3.org/1999/xlink" version="1.1">
<metadata>
Created by FontForge 20170924 at Sun May 26 23:09:58 2019
 By www-data
Maximilian M_sgens
</metadata>
<defs>
<font id="BandeinsSansLight" horiz-adv-x="0" >
  <font-face 
    font-family="Bandeins Sans Light"
    font-weight="300"
    font-stretch="normal"
    units-per-em="1000"
    panose-1="0 0 5 0 0 0 0 0 0 0"
    ascent="800"
    descent="-200"
    x-height="500"
    cap-height="700"
    bbox="-504 -212 1035 901"
    underline-thickness="50"
    underline-position="-100"
    unicode-range="U+0020-25CA"
  />
<missing-glyph horiz-adv-x="600" 
 />
    <glyph glyph-name="arrowright" unicode="&#x2d;&#x3e;" horiz-adv-x="743" 
d="M453 559c55 -104 106 -158 254 -238v-38c-148 -80 -199 -134 -254 -238h-64c34 86 119 204 206 229h-559v56h559c-87 25 -172 143 -206 229h64z" />
    <glyph glyph-name="arrowleft" unicode="&#x3c;&#x2d;" horiz-adv-x="743" 
d="M290 559h64c-34 -86 -119 -204 -206 -229h559v-56h-559c87 -25 172 -143 206 -229h-64c-55 104 -106 158 -254 238v38c148 80 199 134 254 238z" />
    <glyph glyph-name="arrowboth" unicode="&#x3c;&#x2d;&#x3e;" horiz-adv-x="950" 
d="M666 555l248 -247v-12l-248 -247l-40 39l186 186h-674l186 -186l-40 -39l-248 247v12l248 247l40 -39l-186 -186h674l-186 186z" />
    <glyph glyph-name=".notdef" horiz-adv-x="600" 
 />
    <glyph glyph-name="space" unicode=" " horiz-adv-x="250" 
 />
    <glyph glyph-name="A" unicode="A" horiz-adv-x="669" 
d="M380 700l267 -700h-78l-79 219h-310l-80 -219h-78l267 700h91zM202 284h266l-133 356z" />
    <glyph glyph-name="B" unicode="B" horiz-adv-x="583" 
d="M87 0v700h242c92 0 170 -88 170 -195c0 -74 -25 -121 -94 -151v-4c68 -21 112 -94 112 -180c0 -101 -67 -170 -161 -170h-269zM157 383h144c70 0 123 52 123 125c0 75 -51 126 -123 126h-144v-251zM157 66h162c70 0 123 52 123 127c0 74 -52 124 -123 124h-162v-251z" />
    <glyph glyph-name="C" unicode="C" horiz-adv-x="737" 
d="M389 -12c-190 0 -323 145 -323 362s133 362 323 362c135 0 244 -72 293 -193l-71 -24c-39 96 -120 151 -222 151c-145 0 -254 -118 -254 -296s109 -296 254 -296c102 0 183 55 222 151l71 -23c-50 -123 -158 -194 -293 -194z" />
    <glyph glyph-name="D" unicode="D" horiz-adv-x="683" 
d="M287 700c199 0 330 -135 330 -350s-131 -350 -330 -350h-200v700h200zM283 66c150 0 264 118 264 284s-114 284 -264 284h-126v-568h126z" />
    <glyph glyph-name="E" unicode="E" horiz-adv-x="549" 
d="M152 640v-274h278v-60h-278v-246h308v-60h-373v700h375v-60h-310z" />
    <glyph glyph-name="F" unicode="F" horiz-adv-x="495" 
d="M152 640v-274h278v-60h-278v-306h-65v700h375v-60h-310z" />
    <glyph glyph-name="G" unicode="G" horiz-adv-x="752" 
d="M469 311h201v-311h-50l-16 87h-4c-40 -62 -128 -99 -214 -99c-189 0 -320 144 -320 362s131 362 320 362c133 0 239 -69 289 -188l-65 -22c-41 96 -122 150 -224 150c-147 0 -255 -120 -255 -302s108 -302 255 -302c130 0 223 90 223 203h-140v60z" />
    <glyph glyph-name="H" unicode="H" horiz-adv-x="682" 
d="M527 307h-372v-307h-68v700h68v-335h372v335h68v-700h-68v307z" />
    <glyph glyph-name="I" unicode="I" horiz-adv-x="244" 
d="M87 0v700h70v-700h-70z" />
    <glyph glyph-name="J" unicode="J" horiz-adv-x="531" 
d="M444 179c0 -111 -80 -191 -190 -191c-80 0 -148 42 -175 112c-8 21 -12 40 -13 68v15h68v-15c0 -69 51 -120 120 -120s120 51 120 120v532h70v-521z" />
    <glyph glyph-name="K" unicode="K" horiz-adv-x="609" 
d="M271 319l-116 -155v-164h-68v700h68v-420l309 420h86l-235 -325l250 -375h-84z" />
    <glyph glyph-name="L" unicode="L" horiz-adv-x="547" 
d="M481 62v-62h-394v700h66v-638h328z" />
    <glyph glyph-name="M" unicode="M" horiz-adv-x="867" 
d="M87 0v700h97l247 -551h9l244 551h96v-700h-62v582h-9l-234 -507h-83l-234 507h-9v-582h-62z" />
    <glyph glyph-name="N" unicode="N" horiz-adv-x="749" 
d="M161 607h-8v-607h-66v700h99l402 -582h8v582h66v-700h-78z" />
    <glyph glyph-name="O" unicode="O" horiz-adv-x="772" 
d="M386 -12c-189 0 -320 144 -320 362s131 362 320 362s320 -144 320 -362s-131 -362 -320 -362zM386 58c149 0 250 114 250 292s-101 292 -250 292s-250 -114 -250 -292s101 -292 250 -292z" />
    <glyph glyph-name="P" unicode="P" horiz-adv-x="552" 
d="M312 700c108 0 185 -77 185 -185s-77 -185 -185 -185h-160v-330h-65v700h225zM304 390c75 0 128 52 128 125s-53 125 -128 125h-152v-250h152z" />
    <glyph glyph-name="Q" unicode="Q" horiz-adv-x="772" 
d="M456 -4c-9 -120 159 -58 206 -36l23 -45c-126 -57 -274 -75 -288 73c-194 -5 -331 141 -331 362c0 218 131 362 320 362s320 -144 320 -362c0 -188 -96 -320 -250 -354zM136 350c0 -178 101 -292 250 -292s250 114 250 292s-101 292 -250 292s-250 -114 -250 -292z" />
    <glyph glyph-name="R" unicode="R" horiz-adv-x="617" 
d="M148 0h-61v700h253c107 0 183 -76 183 -183c0 -92 -61 -166 -151 -181l179 -336h-69l-176 334h-158v-334zM334 390c76 0 130 53 130 127s-54 127 -130 127h-186v-254h186z" />
    <glyph glyph-name="S" unicode="S" horiz-adv-x="627" 
d="M323 -12c-137 0 -233 62 -254 169l-3 17h68c11 -78 80 -126 183 -126s178 49 178 119c0 82 -63 139 -199 169c-147 33 -207 103 -207 205c0 106 84 170 223 170c124 0 193 -40 225 -135l-57 -19c-29 67 -79 95 -164 95c-99 0 -161 -43 -161 -114c0 -74 52 -121 180 -151
c154 -37 226 -117 226 -223s-95 -176 -238 -176z" />
    <glyph glyph-name="T" unicode="T" horiz-adv-x="582" 
d="M256 0v640h-223v60h516v-60h-223v-640h-70z" />
    <glyph glyph-name="U" unicode="U" horiz-adv-x="664" 
d="M587 246c0 -157 -100 -258 -255 -258s-255 101 -255 258v454h70v-434c0 -134 67 -211 185 -211s185 77 185 211v434h70v-454z" />
    <glyph glyph-name="V" unicode="V" horiz-adv-x="713" 
d="M402 0h-91l-267 700h78l225 -615h20l224 615h78z" />
    <glyph glyph-name="W" unicode="W" horiz-adv-x="987" 
d="M497 530h-5l-162 -530h-76l-205 700h62l181 -593h4l160 526h75l160 -526h4l181 593h62l-205 -700h-75z" />
    <glyph glyph-name="X" unicode="X" horiz-adv-x="634" 
d="M319 296h-4l-197 -296h-74l236 363l-217 337h74l178 -271h4l178 271h74l-217 -337l236 -363h-74z" />
    <glyph glyph-name="Y" unicode="Y" horiz-adv-x="580" 
d="M251 333l-207 367h75l165 -294h4l173 294h75l-215 -367v-332h-70v332z" />
    <glyph glyph-name="Z" unicode="Z" horiz-adv-x="598" 
d="M146 64v-4h386v-60h-466v60l382 576v4h-357v60h437v-60z" />
    <glyph glyph-name="a" unicode="a" horiz-adv-x="534" 
d="M440 117c0 -48 14 -63 50 -63v-54h-29c-37 0 -76 22 -86 58h-4c-14 -40 -74 -70 -129 -70c-109 0 -176 59 -176 156c0 138 188 147 311 124v93c0 48 -53 87 -120 87c-45 0 -85 -23 -108 -63l-58 23c25 63 90 104 167 104c134 0 182 -90 182 -136v-259zM377 221
c-153 24 -247 -4 -247 -77c0 -151 247 -113 247 14v63z" />
    <glyph glyph-name="b" unicode="b" horiz-adv-x="612" 
d="M87 0v712h66v-282c18 39 99 82 161 82c136 0 232 -104 232 -272c0 -148 -96 -252 -232 -252c-69 0 -137 44 -158 81h-4l-13 -69h-52zM314 49c91 0 166 80 166 191c0 131 -75 211 -166 211c-90 0 -161 -78 -161 -211c0 -113 71 -191 161 -191z" />
    <glyph glyph-name="c" unicode="c" horiz-adv-x="555" 
d="M500 114c-37 -79 -110 -123 -203 -123c-136 0 -231 102 -231 260s95 260 231 260c93 0 166 -45 203 -123l-62 -23c-28 52 -77 82 -141 82c-100 0 -165 -75 -165 -196s65 -197 165 -197c64 0 113 30 141 82z" />
    <glyph glyph-name="d" unicode="d" horiz-adv-x="614" 
d="M288 512c64 0 142 -38 171 -87v287h66v-712h-52l-13 69h-4c-27 -46 -112 -81 -168 -81c-130 0 -222 105 -222 262s92 262 222 262zM298 49c96 0 161 77 161 201s-65 201 -161 201c-97 0 -166 -79 -166 -201s69 -201 166 -201z" />
    <glyph glyph-name="e" unicode="e" horiz-adv-x="590" 
d="M130 227c0 -102 75 -177 165 -177c69 0 120 29 147 79l58 -21c-37 -75 -109 -120 -205 -120c-138 0 -229 106 -229 265c0 155 92 259 229 259c136 0 227 -111 229 -264v-21h-394zM295 450c-94 0 -153 -62 -163 -168h328c-10 106 -71 168 -165 168z" />
    <glyph glyph-name="f" unicode="f" horiz-adv-x="389" 
d="M314 647c-9 2 -19 4 -27 3c-50 0 -82 -35 -82 -88v-62h122v-52h-122v-448h-66v448h-85v52h85v62c0 87 61 150 147 150c20 0 34 -3 50 -10z" />
    <glyph glyph-name="g" unicode="g" horiz-adv-x="534" 
d="M335 64c76 0 138 -62 138 -138c0 -82 -80 -138 -198 -138s-198 56 -198 138c0 53 25 97 69 121c-35 15 -54 42 -54 87c0 48 22 79 66 90c-41 32 -61 76 -61 125c0 94 75 163 178 163c27 0 54 -5 77 -14c43 5 91 25 111 33l22 -45c-24 -10 -48 -20 -75 -28
c28 -28 43 -67 43 -109c0 -94 -75 -163 -178 -163h-4c-23 0 -47 4 -64 13c-29 0 -60 -23 -60 -60c0 -56 55 -75 110 -75h78zM275 456c-66 0 -112 -43 -112 -107c0 -65 44 -107 112 -107c66 0 112 43 112 107s-46 107 -112 107zM275 -156c82 0 132 33 132 87
c0 55 -49 87 -132 87s-132 -32 -132 -87c0 -54 50 -87 132 -87z" />
    <glyph glyph-name="h" unicode="h" horiz-adv-x="571" 
d="M157 434c10 45 80 75 149 75c111 0 183 -74 183 -187v-322h-66v290c0 107 -51 156 -134 156c-74 0 -136 -68 -136 -168v-278h-66v710h66v-276h4z" />
    <glyph glyph-name="i" unicode="i" horiz-adv-x="249" 
d="M135 621c-27 0 -48 21 -48 48s21 48 48 48s48 -21 48 -48s-21 -48 -48 -48zM102 500h66v-500h-66v500z" />
    <glyph glyph-name="j" unicode="j" horiz-adv-x="294" 
d="M180 621c-27 0 -48 21 -48 48s21 48 48 48s48 -21 48 -48s-21 -48 -48 -48zM73 -212c-22 0 -48 8 -62 18l29 53c11 -6 24 -10 35 -10c43 0 72 40 72 89v562h66v-562c0 -83 -62 -150 -140 -150z" />
    <glyph glyph-name="k" unicode="k" horiz-adv-x="497" 
d="M331 500h83l-145 -208l173 -292h-82l-137 245l-70 -99v-146h-66v712h66v-454z" />
    <glyph glyph-name="l" unicode="l" horiz-adv-x="240" 
d="M87 712h66v-712h-66v712z" />
    <glyph glyph-name="m" unicode="m" horiz-adv-x="821" 
d="M586 512c102 0 157 -68 157 -195v-317h-66v275c0 123 -33 179 -110 179c-80 0 -119 -52 -119 -159v-295h-66v275c0 123 -33 179 -110 179c-80 0 -119 -52 -119 -159v-295h-66v500h52l15 -60h4c18 25 50 72 133 72c66 0 108 -26 133 -99h4c20 62 85 99 158 99z" />
    <glyph glyph-name="n" unicode="n" horiz-adv-x="546" 
d="M139 500l15 -60h4c17 25 54 72 138 72c106 0 172 -74 172 -195v-317h-66v273c0 117 -41 179 -120 179c-84 0 -129 -56 -129 -159v-293h-66v500h52z" />
    <glyph glyph-name="o" unicode="o" horiz-adv-x="594" 
d="M297 -9c-136 0 -231 102 -231 260s95 260 231 260s231 -102 231 -260s-95 -260 -231 -260zM297 57c100 0 165 73 165 194s-65 194 -165 194s-165 -73 -165 -194s65 -194 165 -194z" />
    <glyph glyph-name="p" unicode="p" horiz-adv-x="612" 
d="M324 -12c-59 0 -145 27 -172 87l1 -287h-66v712h52l13 -69h4c27 46 112 81 168 81c130 0 222 -105 222 -262s-92 -262 -222 -262zM314 451c-96 0 -161 -77 -161 -201s65 -201 161 -201c97 0 166 79 166 201s-69 201 -166 201z" />
    <glyph glyph-name="q" unicode="q" horiz-adv-x="612" 
d="M525 500v-712h-66l1 287c-27 -60 -113 -87 -172 -87c-130 0 -222 105 -222 262s92 262 222 262c56 0 141 -35 168 -81h4l13 69h52zM298 451c-97 0 -166 -79 -166 -201s69 -201 166 -201c96 0 161 77 161 201s-65 201 -161 201z" />
    <glyph glyph-name="r" unicode="r" horiz-adv-x="358" 
d="M158 434c17 23 49 68 138 68h7v-59c-7 1 -14 1 -21 1c-75 0 -129 -78 -129 -167v-267h-66v480h52l15 -56h4z" />
    <glyph glyph-name="s" unicode="s" horiz-adv-x="515" 
d="M264 -12c-57 0 -101 14 -134 41c-20 20 -50 53 -53 109h62c4 -56 52 -93 121 -93s117 29 117 74c0 56 -51 76 -172 125c-76 31 -111 70 -111 137c0 80 63 131 163 131c90 0 141 -34 166 -110l-55 -17c-19 50 -52 71 -109 71c-63 0 -104 -30 -104 -77c0 -42 23 -63 73 -85
c165 -73 210 -98 210 -175s-72 -131 -174 -131z" />
    <glyph glyph-name="t" unicode="t" horiz-adv-x="409" 
d="M262 -12c-79 0 -116 45 -116 130v330h-80v53c50 5 85 45 85 98v58h56v-157h93v-52h-93v-310c0 -64 21 -94 68 -94c15 0 29 3 42 9l26 -46c-25 -13 -52 -19 -81 -19z" />
    <glyph glyph-name="u" unicode="u" horiz-adv-x="555" 
d="M416 0l-15 65h-4c-10 -19 -31 -77 -138 -77c-106 0 -172 74 -172 195v317h66v-277c0 -117 41 -179 120 -179c84 0 129 56 129 159v297h66v-500h-52z" />
    <glyph glyph-name="v" unicode="v" horiz-adv-x="564" 
d="M66 500h65l149 -394h4l149 394h65l-188 -500h-57z" />
    <glyph glyph-name="w" unicode="w" horiz-adv-x="821" 
d="M253 106l121 394h73l121 -394h4l121 394h62l-158 -500h-53l-129 403h-8l-130 -403h-53l-158 500h58l125 -394h4z" />
    <glyph glyph-name="x" unicode="x" horiz-adv-x="530" 
d="M268 194h-5l-123 -194h-70l160 256l-159 244h69l123 -184h5l121 184h68l-157 -244l160 -256h-70z" />
    <glyph glyph-name="y" unicode="y" horiz-adv-x="531" 
d="M277 -109c-26 -79 -92 -119 -167 -95c-19 6 -43 21 -56 37l37 31c11 -14 33 -28 56 -28c42 0 65 42 86 106l19 58h-22l-162 500h66l135 -409h4l140 409h63z" />
    <glyph glyph-name="z" unicode="z" horiz-adv-x="490" 
d="M149 61v-5h264v-56h-336v57l262 382v5h-254v56h325v-57z" />
    <glyph glyph-name="zero" unicode="0" horiz-adv-x="661" 
d="M335 650c149 0 252 -137 252 -334c0 -196 -100 -326 -252 -326c-154 0 -261 133 -261 326c0 194 109 334 261 334zM335 590c-115 0 -203 -120 -203 -274s85 -268 203 -268c116 0 193 110 193 268s-80 274 -193 274z" />
    <glyph glyph-name="one" unicode="1" horiz-adv-x="351" 
d="M197 468h-126v46h37c51 0 89 38 89 88v42h61v-644h-61v468z" />
    <glyph glyph-name="two" unicode="2" horiz-adv-x="560" 
d="M322 257c-56 -44 -172 -111 -164 -197h310v-60h-381v39c0 92 58 155 164 238c78 61 156 99 156 191c0 73 -47 120 -118 120c-72 0 -129 -55 -135 -125h-66c6 82 70 187 200 187c114 0 185 -68 185 -177c0 -126 -80 -160 -151 -216z" />
    <glyph glyph-name="three" unicode="3" horiz-adv-x="527" 
d="M122 138c9 -51 60 -85 128 -85c74 0 131 55 131 128c0 68 -64 130 -146 130h-20v54h19c82 0 131 50 131 117c0 61 -51 107 -116 107c-66 0 -106 -24 -115 -70l-65 1c6 76 80 130 180 130c98 0 181 -74 181 -160c0 -60 -16 -124 -95 -150v-5c72 -31 110 -97 110 -157
c0 -103 -88 -188 -196 -188c-105 0 -183 62 -189 148h62z" />
    <glyph glyph-name="four" unicode="4" horiz-adv-x="556" 
d="M49 188c109 137 191 284 249 446h92v-438h100v-56h-100v-130h-54v130h-287v48zM322 540c-28 -84 -114 -242 -193 -344h207l1 344h-15z" />
    <glyph glyph-name="five" unicode="5" horiz-adv-x="599" 
d="M195 589l-37 -195h4c25 27 77 46 132 46c128 0 223 -95 223 -224s-96 -226 -224 -226c-115 0 -205 78 -222 183l55 13c9 -78 77 -140 167 -140c97 0 168 72 168 170s-71 169 -168 169c-65 0 -110 -21 -133 -58l-61 23l49 294h334v-55h-287z" />
    <glyph glyph-name="six" unicode="6" horiz-adv-x="587" 
d="M293 -10c-135 0 -227 110 -227 275c0 238 103 384 274 384c68 0 106 -16 134 -32l-30 -53c-33 17 -59 24 -107 24c-115 0 -193 -110 -206 -261c21 64 102 97 173 97c116 0 206 -94 206 -217c0 -120 -97 -217 -217 -217zM293 45c88 0 162 74 162 162s-74 162 -162 162
s-162 -74 -162 -162s74 -162 162 -162z" />
    <glyph glyph-name="seven" unicode="7" horiz-adv-x="557" 
d="M502 597c-209 -181 -271 -433 -273 -597h-57c4 213 92 460 231 584v4h-349v56h448v-47z" />
    <glyph glyph-name="eight" unicode="8" horiz-adv-x="594" 
d="M296 -7c-128 0 -214 72 -214 185c0 70 38 130 111 163v4c-58 36 -79 84 -79 133c0 101 76 169 182 169c108 0 184 -67 184 -169c0 -49 -21 -97 -81 -133v-4c75 -33 113 -95 113 -163c0 -113 -86 -185 -216 -185zM296 363c79 0 131 44 131 115c0 70 -54 114 -131 114
c-75 0 -130 -46 -130 -114c0 -71 53 -115 130 -115zM296 49c94 0 154 48 154 129c0 83 -61 134 -154 134s-153 -51 -153 -134c0 -81 60 -129 153 -129z" />
    <glyph glyph-name="nine" unicode="9" horiz-adv-x="565" 
d="M283 649c135 0 227 -110 227 -275c0 -238 -103 -384 -274 -384c-68 0 -106 16 -134 32l30 53c33 -17 59 -24 107 -24c115 0 193 110 206 261c-21 -64 -102 -97 -173 -97c-116 0 -206 94 -206 217c0 120 97 217 217 217zM283 594c-88 0 -162 -74 -162 -162
s74 -162 162 -162s162 74 162 162s-74 162 -162 162z" />
    <glyph glyph-name="period" unicode="." horiz-adv-x="238" 
d="M119 -10c-30 0 -53 23 -53 53s23 53 53 53s53 -23 53 -53s-23 -53 -53 -53z" />
    <glyph glyph-name="comma" unicode="," horiz-adv-x="238" 
d="M117 -4c-25 -4 -51 20 -51 47c0 30 23 53 53 53c29 0 53 -24 53 -53c0 -86 -72 -139 -92 -151l-14 19c35 28 56 63 51 85z" />
    <glyph glyph-name="colon" unicode=":" horiz-adv-x="238" 
d="M119 405c-30 0 -53 23 -53 53s23 53 53 53s53 -23 53 -53s-23 -53 -53 -53zM119 -10c-30 0 -53 23 -53 53s23 53 53 53s53 -23 53 -53s-23 -53 -53 -53z" />
    <glyph glyph-name="semicolon" unicode=";" horiz-adv-x="250" 
d="M119 405c-30 0 -53 23 -53 53s23 53 53 53s53 -23 53 -53s-23 -53 -53 -53zM129 -4c-25 -4 -51 20 -51 47c0 30 23 53 53 53c29 0 53 -24 53 -53c0 -86 -72 -139 -92 -151l-14 19c35 28 56 63 51 85z" />
    <glyph glyph-name="ellipsis" unicode="&#x2026;" horiz-adv-x="610" 
d="M119 96c30 0 53 -23 53 -53s-23 -53 -53 -53s-53 23 -53 53s23 53 53 53zM305 96c30 0 53 -23 53 -53s-23 -53 -53 -53s-53 23 -53 53s23 53 53 53zM491 96c30 0 53 -23 53 -53s-23 -53 -53 -53s-53 23 -53 53s23 53 53 53z" />
    <glyph glyph-name="exclam" unicode="!" horiz-adv-x="260" 
d="M173 700l-21 -469h-43l-21 469h85zM130 -10c-30 0 -53 23 -53 53s23 53 53 53s53 -23 53 -53s-23 -53 -53 -53z" />
    <glyph glyph-name="exclamdown" unicode="&#xa1;" horiz-adv-x="260" 
d="M130 510c30 0 53 -23 53 -53s-23 -53 -53 -53s-53 23 -53 53s23 53 53 53zM173 -200h-85l21 469h43z" />
    <glyph glyph-name="question" unicode="?" horiz-adv-x="426" 
d="M157 252c0 97 45 126 95 166c35 28 69 57 69 114c0 59 -53 113 -113 113c-58 0 -98 -34 -113 -93l-59 20c17 61 72 138 172 138c97 0 182 -80 182 -170s-40 -120 -84 -156c-43 -35 -79 -55 -79 -133v-40h-70v41zM192 -10c-30 0 -53 23 -53 53s23 53 53 53s53 -23 53 -53
s-23 -53 -53 -53z" />
    <glyph glyph-name="questiondown" unicode="&#xbf;" horiz-adv-x="426" 
d="M234 510c30 0 53 -23 53 -53s-23 -53 -53 -53s-53 23 -53 53s23 53 53 53zM269 248c0 -97 -45 -126 -95 -166c-35 -28 -69 -57 -69 -114c0 -59 53 -113 113 -113c58 0 98 34 113 93l59 -20c-17 -61 -72 -138 -172 -138c-97 0 -182 80 -182 170s40 120 84 156
c43 35 79 55 79 133v40h70v-41z" />
    <glyph glyph-name="periodcentered" unicode="&#xb7;" horiz-adv-x="238" 
d="M119 260c-30 0 -53 23 -53 53s23 53 53 53s53 -23 53 -53s-23 -53 -53 -53z" />
    <glyph glyph-name="bullet" unicode="&#x2022;" horiz-adv-x="402" 
d="M201 128c-75 0 -135 60 -135 135s60 135 135 135s135 -60 135 -135s-60 -135 -135 -135z" />
    <glyph glyph-name="asterisk" unicode="*" horiz-adv-x="472" 
d="M206 307l6 126v24l-127 -81l-31 53l133 68l-133 70l32 54l124 -78v22l-5 125h62l-5 -125v-22l124 78l31 -54l-133 -70l133 -68l-30 -53l-127 81v-24l6 -126h-60z" />
    <glyph glyph-name="numbersign" unicode="#" horiz-adv-x="688" 
d="M60 193l9 56h105l35 190h-105l9 56h105l35 205h56l-35 -205h192l35 205h56l-35 -205h100l-9 -56h-100l-35 -190h100l-8 -56h-101l-34 -193h-56l34 193h-192l-34 -193h-56l34 193h-105zM230 249h192l35 190h-192z" />
    <glyph glyph-name="slash" unicode="/" horiz-adv-x="474" 
d="M382 700h59l-349 -700h-59z" />
    <glyph glyph-name="backslash" unicode="\" horiz-adv-x="507" 
d="M125 700l349 -700h-59l-349 700h59z" />
    <glyph glyph-name="parenleft" unicode="(" horiz-adv-x="342" 
d="M296 761c-104 -116 -165 -270 -165 -438c0 -172 62 -326 167 -440l-43 -37c-119 129 -184 294 -184 477c0 182 64 345 181 474z" />
    <glyph glyph-name="parenright" unicode=")" horiz-adv-x="341" 
d="M46 761l44 36c117 -129 180 -292 180 -474c0 -183 -64 -348 -183 -477l-43 37c105 114 167 268 167 440c0 168 -61 322 -165 438z" />
    <glyph glyph-name="braceleft" unicode="{" horiz-adv-x="404" 
d="M312 -138c-82 0 -147 65 -147 147v190c0 51 -41 93 -93 95l-18 1v66l17 1c53 2 94 44 94 96v191c0 81 66 146 147 146h10v-58h-11c-48 0 -87 -39 -87 -87v-199c0 -78 -66 -113 -93 -120v-4c27 -7 93 -44 93 -122v-197c0 -48 39 -87 87 -87h11v-59h-10z" />
    <glyph glyph-name="braceright" unicode="}" horiz-adv-x="393" 
d="M81 -138h-10v59h11c48 0 87 39 87 87v197c0 78 66 115 93 122v4c-27 7 -93 42 -93 120v199c0 48 -39 87 -87 87h-11v58h10c81 0 147 -65 147 -146v-191c0 -52 41 -94 94 -96l16 -1v-66l-17 -1c-52 -2 -93 -44 -93 -95v-190c0 -82 -65 -147 -147 -147z" />
    <glyph glyph-name="bracketleft" unicode="[" horiz-adv-x="310" 
d="M66 -138v933h157v-58h-98v-816h98v-59h-157z" />
    <glyph glyph-name="bracketright" unicode="]" horiz-adv-x="311" 
d="M234 -138h-157v59h98v816h-98v58h157v-933z" />
    <glyph glyph-name="hyphen" unicode="-" horiz-adv-x="393" 
d="M66 257v56h261v-56h-261z" />
    <glyph glyph-name="endash" unicode="&#x2013;" horiz-adv-x="608" 
d="M66 257v56h476v-56h-476z" />
    <glyph glyph-name="emdash" unicode="&#x2014;" horiz-adv-x="936" 
d="M66 257v56h804v-56h-804z" />
    <glyph glyph-name="underscore" unicode="_" horiz-adv-x="608" 
d="M66 -118v56h476v-56h-476z" />
    <glyph glyph-name="quotesinglbase" unicode="&#x201a;" horiz-adv-x="238" 
d="M117 -4c-25 -4 -51 20 -51 47c0 30 23 53 53 53c29 0 53 -24 53 -53c0 -86 -72 -149 -92 -161l-14 19c35 28 56 73 51 95z" />
    <glyph glyph-name="quotedblbase" unicode="&#x201e;" horiz-adv-x="398" 
d="M117 6c-25 -4 -51 20 -51 47c0 30 23 53 53 53c29 0 53 -24 53 -53c0 -86 -72 -149 -92 -161l-14 19c35 28 56 73 51 95zM277 6c-25 -4 -51 20 -51 47c0 30 23 53 53 53c29 0 53 -24 53 -53c0 -86 -72 -149 -92 -161l-14 19c35 28 56 73 51 95z" />
    <glyph glyph-name="quotedblleft" unicode="&#x201c;" horiz-adv-x="398" 
d="M121 591c26 5 51 -17 51 -45c0 -29 -24 -54 -53 -54s-53 24 -53 53c0 91 72 149 92 162l14 -19c-36 -28 -57 -71 -51 -97zM281 593c25 4 51 -20 51 -47c0 -30 -23 -53 -53 -53c-29 0 -53 24 -53 53c0 91 72 149 92 161l14 -19c-35 -28 -56 -68 -51 -95z" />
    <glyph glyph-name="quotedblright" unicode="&#x201d;" horiz-adv-x="398" 
d="M277 611c-26 -5 -51 17 -51 45c0 29 24 54 53 54s53 -24 53 -53c0 -86 -72 -148 -92 -161l-14 19c36 28 57 75 51 96zM117 609c-25 -4 -51 20 -51 47c0 30 23 53 53 53c29 0 53 -24 53 -53c0 -86 -71 -147 -92 -160l-14 19c35 28 56 72 51 94z" />
    <glyph glyph-name="quoteleft" unicode="&#x2018;" horiz-adv-x="238" 
d="M121 593c25 4 51 -20 51 -47c0 -30 -23 -53 -53 -53c-29 0 -53 24 -53 53c0 91 72 149 92 161l14 -19c-35 -28 -56 -68 -51 -95z" />
    <glyph glyph-name="quoteright" unicode="&#x2019;" horiz-adv-x="238" 
d="M117 611c-26 -5 -51 17 -51 45c0 29 24 54 53 54s53 -24 53 -53c0 -90 -72 -148 -92 -161l-14 19c36 28 57 71 51 96z" />
    <glyph glyph-name="guillemotleft" unicode="&#xab;" horiz-adv-x="506" 
d="M192 138l-126 181l126 181h53l-124 -181l124 -181h-53zM387 138l-126 181l126 181h53l-124 -181l124 -181h-53z" />
    <glyph glyph-name="guillemotright" unicode="&#xbb;" horiz-adv-x="506" 
d="M119 138h-53l124 181l-124 181h53l126 -181zM314 138h-53l124 181l-124 181h53l126 -181z" />
    <glyph glyph-name="guilsinglleft" unicode="&#x2039;" horiz-adv-x="311" 
d="M192 138l-126 181l126 181h53l-124 -181l124 -181h-53z" />
    <glyph glyph-name="guilsinglright" unicode="&#x203a;" horiz-adv-x="311" 
d="M119 138h-53l124 181l-124 181h53l126 -181z" />
    <glyph glyph-name="quotedbl" unicode="&#x22;" horiz-adv-x="385" 
d="M113 421c-9 33 -39 163 -39 191c0 27 21 48 48 48s48 -21 48 -48c0 -28 -30 -158 -39 -191h-18zM254 421c-9 33 -39 163 -39 191c0 27 21 48 48 48s48 -21 48 -48c0 -28 -30 -158 -39 -191h-18z" />
    <glyph glyph-name="quotesingle" unicode="'" horiz-adv-x="244" 
d="M113 421c-9 33 -39 163 -39 191c0 27 21 48 48 48s48 -21 48 -48c0 -28 -30 -158 -39 -191h-18z" />
    <glyph glyph-name="asciicircum" unicode="^" horiz-adv-x="428" 
d="M66 444l112 221h68l116 -221h-59l-80 159h-22l-76 -159h-59z" />
    <glyph glyph-name="Aacute" unicode="&#xc1;" horiz-adv-x="665" 
d="M453 875l-90 -97h-47l62 97h75zM380 700l267 -700h-78l-79 219h-310l-80 -219h-78l267 700h91zM202 284h266l-133 356z" />
    <glyph glyph-name="Acircumflex" unicode="&#xc2;" horiz-adv-x="665" 
d="M332 860l-84 -81h-54l111 109h56l115 -109h-54l-88 81h-2zM380 700l267 -700h-78l-79 219h-310l-80 -219h-78l267 700h91zM202 284h266l-133 356z" />
    <glyph glyph-name="Adieresis" unicode="&#xc4;" horiz-adv-x="665" 
d="M240 778c-27 0 -48 21 -48 48s21 48 48 48s48 -21 48 -48s-21 -48 -48 -48zM430 778c-27 0 -48 21 -48 48s21 48 48 48s48 -21 48 -48s-21 -48 -48 -48zM380 700l267 -700h-78l-79 219h-310l-80 -219h-78l267 700h91zM202 284h266l-133 356z" />
    <glyph glyph-name="Agrave" unicode="&#xc0;" horiz-adv-x="669" 
d="M349 778h-47l-90 97h75zM379 700l267 -700h-78l-79 219h-310l-80 -219h-78l267 700h91zM201 284h266l-133 356z" />
    <glyph glyph-name="Aring" unicode="&#xc5;" horiz-adv-x="665" 
d="M382 694l265 -694h-78l-79 219h-310l-80 -219h-78l264 692c-39 17 -65 55 -65 99c0 61 49 110 111 110c60 0 109 -49 109 -110c0 -42 -24 -78 -59 -97zM265 792c0 -37 30 -67 67 -67c36 0 66 31 66 67s-30 66 -66 66c-37 0 -67 -30 -67 -66zM202 284h266l-133 356z" />
    <glyph glyph-name="Atilde" unicode="&#xc3;" horiz-adv-x="669" 
d="M277 818c-27 0 -47 -18 -53 -47h-30c2 55 29 85 77 85c32 0 53 -14 73 -27c17 -10 33 -21 53 -21c28 0 47 17 51 44h28c-1 -31 -8 -51 -21 -64c-14 -15 -32 -22 -55 -22c-60 0 -76 52 -123 52zM380 700l267 -700h-78l-79 219h-310l-80 -219h-78l267 700h91zM202 284h266
l-133 356z" />
    <glyph glyph-name="AE" unicode="&#xc6;" horiz-adv-x="862" 
d="M22 0l267 700h486v-60h-310v-274h278v-60h-278v-246h308v-60h-378v219h-215l-80 -219h-78zM202 284h193v356h-61z" />
    <glyph glyph-name="Ccedilla" unicode="&#xc7;" horiz-adv-x="739" 
d="M398 54c102 0 183 55 222 151l71 -23c-46 -114 -143 -183 -264 -193l-17 -39c28 6 65 -30 65 -66c0 -47 -33 -79 -81 -79c-45 0 -66 33 -73 50l24 14c9 -15 26 -26 42 -26c28 0 47 16 47 42c0 27 -21 45 -48 43l-29 27l23 33c-180 9 -305 152 -305 362
c0 217 133 362 323 362c135 0 244 -72 293 -193l-71 -24c-39 96 -120 151 -222 151c-145 0 -254 -118 -254 -296s109 -296 254 -296z" />
    <glyph glyph-name="Eth" unicode="&#xd0;" horiz-adv-x="708" 
d="M322 690c191 0 320 -137 320 -340s-129 -340 -320 -340h-200v330h-78v56h78v294h200zM318 76c142 0 254 120 254 274s-112 274 -254 274h-126v-228h113v-56h-113v-264h126z" />
    <glyph glyph-name="Eacute" unicode="&#xc9;" horiz-adv-x="550" 
d="M283 778h-47l62 97h75zM148 640v-274h278v-60h-278v-246h308v-60h-373v700h375v-60h-310z" />
    <glyph glyph-name="Ecircumflex" unicode="&#xca;" horiz-adv-x="550" 
d="M130 778l111 109h56l115 -109h-54l-88 81h-2l-84 -81h-54zM148 640v-274h278v-60h-278v-246h308v-60h-373v700h375v-60h-310z" />
    <glyph glyph-name="Edieresis" unicode="&#xcb;" horiz-adv-x="550" 
d="M176 874c27 0 48 -21 48 -48s-21 -48 -48 -48s-48 21 -48 48s21 48 48 48zM366 874c27 0 48 -21 48 -48s-21 -48 -48 -48s-48 21 -48 48s21 48 48 48zM148 640v-274h278v-60h-278v-246h308v-60h-373v700h375v-60h-310z" />
    <glyph glyph-name="Egrave" unicode="&#xc8;" horiz-adv-x="550" 
d="M274 781l-90 97h75l62 -97h-47zM148 640v-274h278v-60h-278v-246h308v-60h-373v700h375v-60h-310z" />
    <glyph glyph-name="Iacute" unicode="&#xcd;" horiz-adv-x="257" 
d="M141 777h-47l62 97h75zM83 0v700h70v-700h-70z" />
    <glyph glyph-name="Icircumflex" unicode="&#xce;" horiz-adv-x="282" 
d="M-5 778l111 109h56l115 -109h-54l-88 81h-2l-84 -81h-54zM101 0v700h70v-700h-70z" />
    <glyph glyph-name="Idieresis" unicode="&#xcf;" horiz-adv-x="286" 
d="M43 827c27 0 48 -21 48 -48s-21 -48 -48 -48s-48 21 -48 48s21 48 48 48zM233 827c27 0 48 -21 48 -48s-21 -48 -48 -48s-48 21 -48 48s21 48 48 48zM103 0v700h70v-700h-70z" />
    <glyph glyph-name="Igrave" unicode="&#xcc;" horiz-adv-x="246" 
d="M101 778l-90 97h75l62 -97h-47zM93 0v700h70v-700h-70z" />
    <glyph glyph-name="Ntilde" unicode="&#xd1;" horiz-adv-x="755" 
d="M449 767c-60 0 -76 52 -123 52c-27 0 -47 -18 -53 -47h-30c2 55 29 85 77 85c32 0 53 -14 73 -27c17 -10 33 -21 53 -21c28 0 47 17 51 44h28c-1 -31 -8 -51 -21 -64c-14 -15 -32 -22 -55 -22zM175 607h-8v-607h-66v700h99l402 -582h8v582h66v-700h-78z" />
    <glyph glyph-name="Oacute" unicode="&#xd3;" horiz-adv-x="774" 
d="M399 778h-47l62 97h75zM386 -12c-189 0 -320 144 -320 362s131 362 320 362s320 -144 320 -362s-131 -362 -320 -362zM386 58c149 0 250 114 250 292s-101 292 -250 292s-250 -114 -250 -292s101 -292 250 -292z" />
    <glyph glyph-name="Ocircumflex" unicode="&#xd4;" horiz-adv-x="774" 
d="M245 777l111 109h56l115 -109h-54l-88 81h-2l-84 -81h-54zM386 -12c-189 0 -320 144 -320 362s131 362 320 362s320 -144 320 -362s-131 -362 -320 -362zM386 58c149 0 250 114 250 292s-101 292 -250 292s-250 -114 -250 -292s101 -292 250 -292z" />
    <glyph glyph-name="Odieresis" unicode="&#xd6;" horiz-adv-x="774" 
d="M291 872c27 0 48 -21 48 -48s-21 -48 -48 -48s-48 21 -48 48s21 48 48 48zM481 872c27 0 48 -21 48 -48s-21 -48 -48 -48s-48 21 -48 48s21 48 48 48zM386 -12c-189 0 -320 144 -320 362s131 362 320 362s320 -144 320 -362s-131 -362 -320 -362zM386 58
c149 0 250 114 250 292s-101 292 -250 292s-250 -114 -250 -292s101 -292 250 -292z" />
    <glyph glyph-name="Ograve" unicode="&#xd2;" horiz-adv-x="774" 
d="M363 778l-90 97h75l62 -97h-47zM386 -12c-189 0 -320 144 -320 362s131 362 320 362s320 -144 320 -362s-131 -362 -320 -362zM386 58c149 0 250 114 250 292s-101 292 -250 292s-250 -114 -250 -292s101 -292 250 -292z" />
    <glyph glyph-name="Oslash" unicode="&#xd8;" horiz-adv-x="792" 
d="M726 695l-89 -106c45 -63 69 -141 69 -240c0 -215 -129 -362 -320 -362c-81 0 -147 23 -200 67l-67 -80l-46 39l71 85c-51 62 -78 146 -78 251c0 215 129 362 320 362c88 0 158 -27 211 -77l83 99zM136 349c0 -83 19 -147 54 -197l362 428c-42 40 -97 61 -166 61
c-151 0 -250 -116 -250 -292zM636 349c0 76 -16 137 -46 184l-359 -424c41 -35 90 -52 155 -52c151 0 250 116 250 292z" />
    <glyph glyph-name="Otilde" unicode="&#xd5;" horiz-adv-x="774" 
d="M447 781c-60 0 -76 52 -123 52c-27 0 -47 -18 -53 -47h-30c2 55 29 85 77 85c32 0 53 -14 73 -27c17 -10 33 -21 53 -21c28 0 47 17 51 44h28c-1 -31 -8 -51 -21 -64c-14 -15 -32 -22 -55 -22zM386 -12c-189 0 -320 144 -320 362s131 362 320 362s320 -144 320 -362
s-131 -362 -320 -362zM386 58c149 0 250 114 250 292s-101 292 -250 292s-250 -114 -250 -292s101 -292 250 -292z" />
    <glyph glyph-name="OE" unicode="&#x152;" horiz-adv-x="1103" 
d="M1016 640h-310v-274h278v-60h-278v-241h308v-60h-378v108c-59 -79 -144 -120 -250 -120c-189 0 -320 144 -320 357c0 218 131 362 320 362c106 0 191 -41 250 -120v108h380v-60zM386 63c149 0 250 114 250 287c0 178 -101 292 -250 292s-250 -114 -250 -292
c0 -173 101 -287 250 -287z" />
    <glyph glyph-name="Thorn" unicode="&#xde;" horiz-adv-x="557" 
d="M317 570c108 0 185 -77 185 -185s-77 -185 -185 -185h-160v-190h-70v690h71v-130h159zM314 260c75 0 128 52 128 125s-53 125 -128 125h-156v-198l-1 -1v-51h157z" />
    <glyph glyph-name="Uacute" unicode="&#xda;" horiz-adv-x="664" 
d="M340 778h-47l62 97h75zM583 246c0 -157 -100 -258 -255 -258s-255 101 -255 258v454h70v-434c0 -134 67 -211 185 -211s185 77 185 211v434h70v-454z" />
    <glyph glyph-name="Ucircumflex" unicode="&#xdb;" horiz-adv-x="664" 
d="M186 777l111 109h56l115 -109h-54l-88 81h-2l-84 -81h-54zM583 246c0 -157 -100 -258 -255 -258s-255 101 -255 258v454h70v-434c0 -134 67 -211 185 -211s185 77 185 211v434h70v-454z" />
    <glyph glyph-name="Udieresis" unicode="&#xdc;" horiz-adv-x="664" 
d="M233 873c27 0 48 -21 48 -48s-21 -48 -48 -48s-48 21 -48 48s21 48 48 48zM423 873c27 0 48 -21 48 -48s-21 -48 -48 -48s-48 21 -48 48s21 48 48 48zM583 246c0 -157 -100 -258 -255 -258s-255 101 -255 258v454h70v-434c0 -134 67 -211 185 -211s185 77 185 211v434h70
v-454z" />
    <glyph glyph-name="Ugrave" unicode="&#xd9;" horiz-adv-x="664" 
d="M322 778l-90 97h75l62 -97h-47zM583 246c0 -157 -100 -258 -255 -258s-255 101 -255 258v454h70v-434c0 -134 67 -211 185 -211s185 77 185 211v434h70v-454z" />
    <glyph glyph-name="Wacute" unicode="&#x1e82;" horiz-adv-x="988" 
d="M519 778h-47l62 97h75zM495 530h-5l-162 -530h-76l-205 700h62l181 -593h4l160 526h75l160 -526h4l181 593h62l-205 -700h-75z" />
    <glyph glyph-name="Wcircumflex" unicode="&#x174;" horiz-adv-x="988" 
d="M351 780l111 109h56l115 -109h-54l-88 81h-2l-84 -81h-54zM495 530h-5l-162 -530h-76l-205 700h62l181 -593h4l160 526h75l160 -526h4l181 593h62l-205 -700h-75z" />
    <glyph glyph-name="Wdieresis" unicode="&#x1e84;" horiz-adv-x="988" 
d="M397 875c27 0 48 -21 48 -48s-21 -48 -48 -48s-48 21 -48 48s21 48 48 48zM587 875c27 0 48 -21 48 -48s-21 -48 -48 -48s-48 21 -48 48s21 48 48 48zM495 530h-5l-162 -530h-76l-205 700h62l181 -593h4l160 526h75l160 -526h4l181 593h62l-205 -700h-75z" />
    <glyph glyph-name="Wgrave" unicode="&#x1e80;" horiz-adv-x="988" 
d="M461 778l-90 97h75l62 -97h-47zM495 530h-5l-162 -530h-76l-205 700h62l181 -593h4l160 526h75l160 -526h4l181 593h62l-205 -700h-75z" />
    <glyph glyph-name="Yacute" unicode="&#xdd;" horiz-adv-x="580" 
d="M296 778h-47l62 97h75zM249 333l-207 367h75l165 -294h4l173 294h75l-215 -367v-332h-70v332z" />
    <glyph glyph-name="Ycircumflex" unicode="&#x176;" horiz-adv-x="580" 
d="M156 778l111 109h56l115 -109h-54l-88 81h-2l-84 -81h-54zM249 333l-207 367h75l165 -294h4l173 294h75l-215 -367v-332h-70v332z" />
    <glyph glyph-name="Ydieresis" unicode="&#x178;" horiz-adv-x="580" 
d="M193 874c27 0 48 -21 48 -48s-21 -48 -48 -48s-48 21 -48 48s21 48 48 48zM383 874c27 0 48 -21 48 -48s-21 -48 -48 -48s-48 21 -48 48s21 48 48 48zM249 333l-207 367h75l165 -294h4l173 294h75l-215 -367v-332h-70v332z" />
    <glyph glyph-name="Ygrave" unicode="&#x1ef2;" horiz-adv-x="580" 
d="M278 778l-90 97h75l62 -97h-47zM249 333l-207 367h75l165 -294h4l173 294h75l-215 -367v-332h-70v332z" />
    <glyph glyph-name="aacute" unicode="&#xe1;" horiz-adv-x="537" 
d="M281 579h-47l62 97h75zM440 117c0 -48 14 -63 50 -63v-54h-29c-37 0 -76 22 -86 58h-4c-14 -40 -74 -70 -129 -70c-109 0 -176 59 -176 156c0 138 188 147 311 124v93c0 48 -53 87 -120 87c-45 0 -85 -23 -108 -63l-58 23c25 63 90 104 167 104c134 0 182 -90 182 -136
v-259zM377 221c-153 24 -247 -4 -247 -77c0 -151 247 -113 247 14v63z" />
    <glyph glyph-name="acircumflex" unicode="&#xe2;" horiz-adv-x="537" 
d="M125 567l111 109h56l115 -109h-54l-88 81h-2l-84 -81h-54zM440 117c0 -48 14 -63 50 -63v-54h-29c-37 0 -76 22 -86 58h-4c-14 -40 -74 -70 -129 -70c-109 0 -176 59 -176 156c0 138 188 147 311 124v93c0 48 -53 87 -120 87c-45 0 -85 -23 -108 -63l-58 23
c25 63 90 104 167 104c134 0 182 -90 182 -136v-259zM377 221c-153 24 -247 -4 -247 -77c0 -151 247 -113 247 14v63z" />
    <glyph glyph-name="adieresis" unicode="&#xe4;" horiz-adv-x="537" 
d="M169 677c27 0 48 -21 48 -48s-21 -48 -48 -48s-48 21 -48 48s21 48 48 48zM359 677c27 0 48 -21 48 -48s-21 -48 -48 -48s-48 21 -48 48s21 48 48 48zM440 117c0 -48 14 -63 50 -63v-54h-29c-37 0 -76 22 -86 58h-4c-14 -40 -74 -70 -129 -70c-109 0 -176 59 -176 156
c0 138 188 147 311 124v93c0 48 -53 87 -120 87c-45 0 -85 -23 -108 -63l-58 23c25 63 90 104 167 104c134 0 182 -90 182 -136v-259zM377 221c-153 24 -247 -4 -247 -77c0 -151 247 -113 247 14v63z" />
    <glyph glyph-name="agrave" unicode="&#xe0;" horiz-adv-x="537" 
d="M259 579l-90 97h75l62 -97h-47zM440 117c0 -48 14 -63 50 -63v-54h-29c-37 0 -76 22 -86 58h-4c-14 -40 -74 -70 -129 -70c-109 0 -176 59 -176 156c0 138 188 147 311 124v93c0 48 -53 87 -120 87c-45 0 -85 -23 -108 -63l-58 23c25 63 90 104 167 104
c134 0 182 -90 182 -136v-259zM377 221c-153 24 -247 -4 -247 -77c0 -151 247 -113 247 14v63z" />
    <glyph glyph-name="aring" unicode="&#xe5;" horiz-adv-x="537" 
d="M267 557c-41 0 -74 33 -74 74s33 74 74 74s74 -33 74 -74s-33 -74 -74 -74zM267 586c25 0 45 21 45 45c0 25 -20 45 -45 45s-45 -20 -45 -45s20 -45 45 -45zM440 117c0 -48 14 -63 50 -63v-54h-29c-37 0 -76 22 -86 58h-4c-14 -40 -74 -70 -129 -70
c-109 0 -176 59 -176 156c0 138 188 147 311 124v93c0 48 -53 87 -120 87c-45 0 -85 -23 -108 -63l-58 23c25 63 90 104 167 104c134 0 182 -90 182 -136v-259zM377 221c-153 24 -247 -4 -247 -77c0 -151 247 -113 247 14v63z" />
    <glyph glyph-name="atilde" unicode="&#xe3;" horiz-adv-x="537" 
d="M332 584c-60 0 -76 52 -123 52c-27 0 -47 -18 -53 -47h-30c2 55 29 85 77 85c32 0 53 -14 73 -27c17 -10 33 -21 53 -21c28 0 47 17 51 44h28c-1 -31 -8 -51 -21 -64c-14 -15 -32 -22 -55 -22zM440 117c0 -48 14 -63 50 -63v-54h-29c-37 0 -76 22 -86 58h-4
c-14 -40 -74 -70 -129 -70c-109 0 -176 59 -176 156c0 138 188 147 311 124v93c0 48 -53 87 -120 87c-45 0 -85 -23 -108 -63l-58 23c25 63 90 104 167 104c134 0 182 -90 182 -136v-259zM377 221c-153 24 -247 -4 -247 -77c0 -151 247 -113 247 14v63z" />
    <glyph glyph-name="ae" unicode="&#xe6;" horiz-adv-x="901" 
d="M835 248v-21h-396c6 -106 69 -177 167 -177c69 0 120 29 147 79l58 -21c-37 -75 -109 -120 -205 -120c-83 0 -146 35 -187 97c-41 -60 -108 -97 -177 -97c-109 0 -176 59 -176 156c0 138 188 147 311 124v93c0 48 -53 87 -120 87c-45 0 -85 -23 -108 -63l-58 23
c25 63 90 104 167 104c76 0 136 -30 168 -86c41 55 102 86 180 86c136 0 227 -111 229 -264zM441 272h330c-10 106 -71 178 -165 178s-155 -72 -165 -178zM377 158v63c-153 24 -247 -4 -247 -77c0 -151 247 -113 247 14z" />
    <glyph glyph-name="ccedilla" unicode="&#xe7;" horiz-adv-x="557" 
d="M306 54c64 0 113 30 141 82l62 -22c-34 -72 -97 -115 -178 -122l-18 -42c28 6 65 -30 65 -66c0 -47 -33 -79 -81 -79c-45 0 -66 33 -73 50l24 14c9 -15 26 -26 42 -26c28 0 47 16 47 42c0 27 -21 45 -48 43l-29 27l26 37c-125 9 -211 109 -211 259c0 158 95 260 231 260
c93 0 166 -45 203 -123l-62 -23c-28 52 -77 82 -141 82c-100 0 -165 -75 -165 -196s65 -197 165 -197z" />
    <glyph glyph-name="eth" unicode="&#xf0;" horiz-adv-x="630" 
d="M380 624c97 -88 151 -209 151 -345c0 -165 -92 -275 -227 -275c-120 0 -217 97 -217 217c0 123 90 217 206 217c71 0 151 -37 173 -82c-2 69 -58 182 -132 245l-145 -75v45l110 56c-36 24 -72 38 -108 40v47c46 -3 102 -25 154 -63l111 57v-45zM304 59
c88 0 162 74 162 162s-74 162 -162 162s-162 -74 -162 -162s74 -162 162 -162z" />
    <glyph glyph-name="eacute" unicode="&#xe9;" horiz-adv-x="592" 
d="M289 579h-47l62 97h75zM130 227c0 -102 75 -177 165 -177c69 0 120 29 147 79l58 -21c-37 -75 -109 -120 -205 -120c-138 0 -229 106 -229 265c0 155 92 259 229 259c136 0 227 -111 229 -264v-21h-394zM295 450c-94 0 -153 -62 -163 -168h328c-10 106 -71 168 -165 168z
" />
    <glyph glyph-name="ecircumflex" unicode="&#xea;" horiz-adv-x="592" 
d="M152 566l111 109h56l115 -109h-54l-88 81h-2l-84 -81h-54zM130 227c0 -102 75 -177 165 -177c69 0 120 29 147 79l58 -21c-37 -75 -109 -120 -205 -120c-138 0 -229 106 -229 265c0 155 92 259 229 259c136 0 227 -111 229 -264v-21h-394zM295 450
c-94 0 -153 -62 -163 -168h328c-10 106 -71 168 -165 168z" />
    <glyph glyph-name="edieresis" unicode="&#xeb;" horiz-adv-x="592" 
d="M201 678c27 0 48 -21 48 -48s-21 -48 -48 -48s-48 21 -48 48s21 48 48 48zM391 678c27 0 48 -21 48 -48s-21 -48 -48 -48s-48 21 -48 48s21 48 48 48zM130 227c0 -102 75 -177 165 -177c69 0 120 29 147 79l58 -21c-37 -75 -109 -120 -205 -120c-138 0 -229 106 -229 265
c0 155 92 259 229 259c136 0 227 -111 229 -264v-21h-394zM295 450c-94 0 -153 -62 -163 -168h328c-10 106 -71 168 -165 168z" />
    <glyph glyph-name="egrave" unicode="&#xe8;" horiz-adv-x="592" 
d="M281 581l-90 97h75l62 -97h-47zM130 227c0 -102 75 -177 165 -177c69 0 120 29 147 79l58 -21c-37 -75 -109 -120 -205 -120c-138 0 -229 106 -229 265c0 155 92 259 229 259c136 0 227 -111 229 -264v-21h-394zM295 450c-94 0 -153 -62 -163 -168h328
c-10 106 -71 168 -165 168z" />
    <glyph glyph-name="iacute" unicode="&#xed;" horiz-adv-x="254" 
d="M149 580h-47l62 97h75zM87 500h66v-500h-66v500z" />
    <glyph glyph-name="icircumflex" unicode="&#xee;" horiz-adv-x="282" 
d="M-5 567l111 109h56l115 -109h-54l-88 81h-2l-84 -81h-54zM108 500h66v-500h-66v500z" />
    <glyph glyph-name="idieresis" unicode="&#xef;" horiz-adv-x="286" 
d="M43 677c27 0 48 -21 48 -48s-21 -48 -48 -48s-48 21 -48 48s21 48 48 48zM233 677c27 0 48 -21 48 -48s-21 -48 -48 -48s-48 21 -48 48s21 48 48 48zM110 500h66v-500h-66v500z" />
    <glyph glyph-name="igrave" unicode="&#xec;" horiz-adv-x="234" 
d="M95 579l-90 97h75l62 -97h-47zM79 500h66v-500h-66v500z" />
    <glyph glyph-name="ntilde" unicode="&#xf1;" horiz-adv-x="550" 
d="M352 586c-60 0 -76 52 -123 52c-27 0 -47 -18 -53 -47h-30c2 55 29 85 77 85c32 0 53 -14 73 -27c17 -10 33 -21 53 -21c28 0 47 17 51 44h28c-1 -31 -8 -51 -21 -64c-14 -15 -32 -22 -55 -22zM153 500l15 -60h4c17 25 54 72 138 72c106 0 172 -74 172 -195v-317h-66v273
c0 117 -41 179 -120 179c-84 0 -129 -56 -129 -159v-293h-66v500h52z" />
    <glyph glyph-name="oacute" unicode="&#xf3;" horiz-adv-x="596" 
d="M316 580h-47l62 97h75zM297 -9c-136 0 -231 102 -231 260s95 260 231 260s231 -102 231 -260s-95 -260 -231 -260zM297 57c100 0 165 73 165 194s-65 194 -165 194s-165 -73 -165 -194s65 -194 165 -194z" />
    <glyph glyph-name="ocircumflex" unicode="&#xf4;" horiz-adv-x="596" 
d="M154 610l111 109h56l115 -109h-54l-88 81h-2l-84 -81h-54zM297 -9c-136 0 -231 102 -231 260s95 260 231 260s231 -102 231 -260s-95 -260 -231 -260zM297 57c100 0 165 73 165 194s-65 194 -165 194s-165 -73 -165 -194s65 -194 165 -194z" />
    <glyph glyph-name="odieresis" unicode="&#xf6;" horiz-adv-x="594" 
d="M203 710c27 0 48 -21 48 -48s-21 -48 -48 -48s-48 21 -48 48s21 48 48 48zM393 710c27 0 48 -21 48 -48s-21 -48 -48 -48s-48 21 -48 48s21 48 48 48zM297 -9c-136 0 -231 102 -231 260s95 260 231 260s231 -102 231 -260s-95 -260 -231 -260zM297 57
c100 0 165 73 165 194s-65 194 -165 194s-165 -73 -165 -194s65 -194 165 -194z" />
    <glyph glyph-name="ograve" unicode="&#xf2;" horiz-adv-x="596" 
d="M301 581l-90 97h75l62 -97h-47zM297 -9c-136 0 -231 102 -231 260s95 260 231 260s231 -102 231 -260s-95 -260 -231 -260zM297 57c100 0 165 73 165 194s-65 194 -165 194s-165 -73 -165 -194s65 -194 165 -194z" />
    <glyph glyph-name="oslash" unicode="&#xf8;" horiz-adv-x="593" 
d="M527 482l-56 -68c31 -42 49 -99 49 -163c0 -146 -93 -250 -221 -250c-52 0 -98 17 -134 47l-53 -64l-46 39l58 69c-29 42 -46 97 -46 159c0 146 93 250 221 250c50 0 94 -16 130 -43l52 62zM144 251c0 -41 9 -76 24 -105l219 261c-25 18 -54 28 -88 28
c-92 0 -155 -75 -155 -184zM454 251c0 43 -10 81 -27 111l-220 -264c25 -20 56 -31 92 -31c92 0 155 75 155 184z" />
    <glyph glyph-name="otilde" unicode="&#xf5;" horiz-adv-x="594" 
d="M358 584c-60 0 -76 52 -123 52c-27 0 -47 -18 -53 -47h-30c2 55 29 85 77 85c32 0 53 -14 73 -27c17 -10 33 -21 53 -21c28 0 47 17 51 44h28c-1 -31 -8 -51 -21 -64c-14 -15 -32 -22 -55 -22zM297 -9c-136 0 -231 102 -231 260s95 260 231 260s231 -102 231 -260
s-95 -260 -231 -260zM297 57c100 0 165 73 165 194s-65 194 -165 194s-165 -73 -165 -194s65 -194 165 -194z" />
    <glyph glyph-name="oe" unicode="&#x153;" horiz-adv-x="990" 
d="M931 248v-21h-394c0 -102 75 -177 165 -177c69 0 120 29 147 79l58 -21c-37 -75 -109 -120 -205 -120c-93 0 -165 48 -202 129c-38 -79 -111 -126 -203 -126c-136 0 -231 102 -231 260s95 260 231 260c92 0 165 -47 203 -126c37 79 109 127 202 127
c136 0 227 -111 229 -264zM539 282h328c-10 106 -71 168 -165 168s-153 -62 -163 -168zM297 57c100 0 165 73 165 194s-65 194 -165 194s-165 -73 -165 -194s65 -194 165 -194z" />
    <glyph glyph-name="thorn" unicode="&#xfe;" horiz-adv-x="612" 
d="M324 -12c-59 0 -148 39 -167 90h-4v-270h-66v892h63v-279h4c27 53 114 91 170 91c130 0 222 -105 222 -262s-92 -262 -222 -262zM314 451c-96 0 -161 -77 -161 -201s65 -201 161 -201c97 0 166 79 166 201s-69 201 -166 201z" />
    <glyph glyph-name="uacute" unicode="&#xfa;" horiz-adv-x="556" 
d="M301 581h-47l62 97h75zM412 0l-15 65h-4c-10 -19 -31 -77 -138 -77c-106 0 -172 74 -172 195v317h66v-277c0 -117 41 -179 120 -179c84 0 129 56 129 159v297h66v-500h-52z" />
    <glyph glyph-name="ucircumflex" unicode="&#xfb;" horiz-adv-x="556" 
d="M133 610l111 109h56l115 -109h-54l-88 81h-2l-84 -81h-54zM412 0l-15 65h-4c-10 -19 -31 -77 -138 -77c-106 0 -172 74 -172 195v317h66v-277c0 -117 41 -179 120 -179c84 0 129 56 129 159v297h66v-500h-52z" />
    <glyph glyph-name="udieresis" unicode="&#xfc;" horiz-adv-x="555" 
d="M186 710c27 0 48 -21 48 -48s-21 -48 -48 -48s-48 21 -48 48s21 48 48 48zM376 710c27 0 48 -21 48 -48s-21 -48 -48 -48s-48 21 -48 48s21 48 48 48zM416 0l-15 65h-4c-10 -19 -31 -77 -138 -77c-106 0 -172 74 -172 195v317h66v-277c0 -117 41 -179 120 -179
c84 0 129 56 129 159v297h66v-500h-52z" />
    <glyph glyph-name="ugrave" unicode="&#xf9;" horiz-adv-x="556" 
d="M262 581l-90 97h75l62 -97h-47zM412 0l-15 65h-4c-10 -19 -31 -77 -138 -77c-106 0 -172 74 -172 195v317h66v-277c0 -117 41 -179 120 -179c84 0 129 56 129 159v297h66v-500h-52z" />
    <glyph glyph-name="wacute" unicode="&#x1e83;" horiz-adv-x="823" 
d="M453 581h-47l62 97h75zM253 106l121 394h73l121 -394h4l121 394h62l-158 -500h-53l-129 403h-8l-130 -403h-53l-158 500h58l125 -394h4z" />
    <glyph glyph-name="wcircumflex" unicode="&#x175;" horiz-adv-x="823" 
d="M271 610l111 109h56l115 -109h-54l-88 81h-2l-84 -81h-54zM253 106l121 394h73l121 -394h4l121 394h62l-158 -500h-53l-129 403h-8l-130 -403h-53l-158 500h58l125 -394h4z" />
    <glyph glyph-name="wdieresis" unicode="&#x1e85;" horiz-adv-x="821" 
d="M316 710c27 0 48 -21 48 -48s-21 -48 -48 -48s-48 21 -48 48s21 48 48 48zM506 710c27 0 48 -21 48 -48s-21 -48 -48 -48s-48 21 -48 48s21 48 48 48zM253 106l121 394h73l121 -394h4l121 394h62l-158 -500h-53l-129 403h-8l-130 -403h-53l-158 500h58l125 -394h4z" />
    <glyph glyph-name="wgrave" unicode="&#x1e81;" horiz-adv-x="823" 
d="M385 580l-90 97h75l62 -97h-47zM253 106l121 394h73l121 -394h4l121 394h62l-158 -500h-53l-129 403h-8l-130 -403h-53l-158 500h58l125 -394h4z" />
    <glyph glyph-name="yacute" unicode="&#xfd;" horiz-adv-x="531" 
d="M309 581h-47l62 97h75zM274 -109c-26 -79 -92 -119 -167 -95c-19 6 -43 21 -56 37l37 31c11 -14 33 -28 56 -28c42 0 65 42 86 106l19 58h-22l-162 500h66l135 -409h4l140 409h63z" />
    <glyph glyph-name="ycircumflex" unicode="&#x177;" horiz-adv-x="531" 
d="M132 610l111 109h56l115 -109h-54l-88 81h-2l-84 -81h-54zM274 -109c-26 -79 -92 -119 -167 -95c-19 6 -43 21 -56 37l37 31c11 -14 33 -28 56 -28c42 0 65 42 86 106l19 58h-22l-162 500h66l135 -409h4l140 409h63z" />
    <glyph glyph-name="ydieresis" unicode="&#xff;" horiz-adv-x="531" 
d="M171 710c27 0 48 -21 48 -48s-21 -48 -48 -48s-48 21 -48 48s21 48 48 48zM361 710c27 0 48 -21 48 -48s-21 -48 -48 -48s-48 21 -48 48s21 48 48 48zM277 -109c-26 -79 -92 -119 -167 -95c-19 6 -43 21 -56 37l37 31c11 -14 33 -28 56 -28c42 0 65 42 86 106l19 58h-22
l-162 500h66l135 -409h4l140 409h63z" />
    <glyph glyph-name="ygrave" unicode="&#x1ef3;" horiz-adv-x="531" 
d="M276 580l-90 97h75l62 -97h-47zM274 -109c-26 -79 -92 -119 -167 -95c-19 6 -43 21 -56 37l37 31c11 -14 33 -28 56 -28c42 0 65 42 86 106l19 58h-22l-162 500h66l135 -409h4l140 409h63z" />
    <glyph glyph-name="uni0307" unicode="&#x307;" 
d="M-152 700c27 0 48 -21 48 -48s-21 -48 -48 -48s-48 21 -48 48s21 48 48 48z" />
    <glyph glyph-name="gravecomb" unicode="&#x300;" 
d="M-414 778l-90 97h75l62 -97h-47z" />
    <glyph glyph-name="acutecomb" unicode="&#x301;" 
d="M-321 778h-47l62 97h75z" />
    <glyph glyph-name="uni0302" unicode="&#x302;" 
d="M-442 778l107 109h64l111 -109h-54l-87 81h-4l-83 -81h-54z" />
    <glyph glyph-name="uni030A" unicode="&#x30a;" 
d="M-358 575c-12 0 -24 3 -36 8c-11 3 -21 10 -31 21c-9 6 -16 15 -21 28c-5 10 -8 23 -8 37s3 27 8 37c6 13 13 23 22 30c7 8 17 15 30 21c12 5 23 7 36 7s26 -2 38 -7c13 -6 23 -13 30 -21c8 -7 16 -17 21 -30c5 -10 8 -23 8 -37s-3 -27 -8 -37c-6 -13 -13 -23 -21 -29
c-9 -10 -19 -17 -30 -20c-11 -5 -24 -8 -38 -8zM-359 606c18 0 33 6 46 18c12 13 18 28 18 45s-6 32 -18 46c-13 12 -28 18 -46 18c-17 0 -33 -7 -44 -19c-12 -13 -18 -28 -18 -45s6 -32 18 -45c11 -12 27 -18 44 -18z" />
    <glyph glyph-name="tildecomb" unicode="&#x303;" 
d="M-224 604c-60 0 -76 52 -123 52c-27 0 -47 -18 -53 -47h-30c2 55 29 85 77 85c32 0 53 -14 73 -27c17 -10 33 -21 53 -21c28 0 47 17 51 44h28c-1 -31 -8 -51 -21 -64c-14 -15 -32 -22 -55 -22z" />
    <glyph glyph-name="uni0327" unicode="&#x327;" 
d="M-187 6l-34 -63c28 6 66 -34 66 -70c0 -47 -33 -79 -81 -79c-45 0 -66 33 -73 50l24 14c9 -15 26 -26 42 -26c28 0 47 16 47 42c0 27 -21 45 -48 43l-29 27l44 62h42z" />
    <glyph glyph-name="acute" unicode="&#xb4;" horiz-adv-x="311" 
d="M134 778h-47l62 97h75z" />
    <glyph glyph-name="breve" unicode="&#x2d8;" horiz-adv-x="432" 
d="M299 690h46c-5 -68 -61 -120 -129 -120s-124 52 -129 120h46c5 -40 43 -75 83 -75s78 35 83 75z" />
    <glyph glyph-name="caron" unicode="&#x2c7;" horiz-adv-x="456" 
d="M87 719h54l84 -81h2l88 81h54l-111 -109h-64z" />
    <glyph glyph-name="cedilla" unicode="&#xb8;" horiz-adv-x="328" 
d="M200 5l-24 -55c28 6 65 -30 65 -66c0 -47 -33 -79 -81 -79c-45 0 -66 33 -73 50l24 14c9 -15 26 -26 42 -26c28 0 47 16 47 42c0 27 -21 45 -48 43l-29 27l35 50h42z" />
    <glyph glyph-name="circumflex" unicode="&#x2c6;" horiz-adv-x="456" 
d="M87 610l111 109h56l115 -109h-54l-88 81h-2l-84 -81h-54z" />
    <glyph glyph-name="dieresis" unicode="&#xa8;" horiz-adv-x="460" 
d="M135 700c27 0 48 -21 48 -48s-21 -48 -48 -48s-48 21 -48 48s21 48 48 48zM325 700c27 0 48 -21 48 -48s-21 -48 -48 -48s-48 21 -48 48s21 48 48 48z" />
    <glyph glyph-name="dotaccent" unicode="&#x2d9;" horiz-adv-x="270" 
d="M135 700c27 0 48 -21 48 -48s-21 -48 -48 -48s-48 21 -48 48s21 48 48 48z" />
    <glyph glyph-name="grave" unicode="`" horiz-adv-x="311" 
d="M177 778l-90 97h75l62 -97h-47z" />
    <glyph glyph-name="hungarumlaut" unicode="&#x2dd;" horiz-adv-x="484" 
d="M134 778h-47l62 97h75zM307 778h-47l62 97h75z" />
    <glyph glyph-name="macron" unicode="&#xaf;" horiz-adv-x="434" 
d="M87 670h260v-45h-260v45z" />
    <glyph glyph-name="ogonek" unicode="&#x2db;" horiz-adv-x="303" 
d="M181 -191c-53 0 -94 38 -94 89c0 49 49 89 67 101l17 -5c-20 -21 -45 -55 -45 -88c0 -55 55 -65 90 -60v-31c-9 -4 -23 -6 -35 -6z" />
    <glyph glyph-name="ring" unicode="&#x2da;" horiz-adv-x="394" 
d="M198 532c-62 0 -111 49 -111 109c0 61 49 110 111 110c60 0 109 -49 109 -110c0 -60 -49 -109 -109 -109zM198 575c36 0 66 31 66 67s-30 66 -66 66c-37 0 -67 -30 -67 -66c0 -37 30 -67 67 -67z" />
    <glyph glyph-name="tilde" unicode="&#x2dc;" horiz-adv-x="456" 
d="M293 604c-60 0 -76 52 -123 52c-27 0 -47 -18 -53 -47h-30c0 51 27 85 77 85c32 0 53 -14 73 -27c17 -10 33 -21 53 -21c28 0 47 17 51 44h28c-1 -31 -8 -51 -21 -64c-14 -15 -32 -22 -55 -22z" />
    <glyph glyph-name="Gbreve" unicode="&#x11e;" horiz-adv-x="755" 
d="M459 897h46c-5 -68 -61 -120 -129 -120s-124 52 -129 120h46c5 -40 43 -75 83 -75s78 35 83 75zM469 311h201v-311h-50l-16 87h-4c-40 -62 -128 -99 -214 -99c-189 0 -320 144 -320 362s131 362 320 362c133 0 239 -69 289 -188l-65 -22c-41 96 -122 150 -224 150
c-147 0 -255 -120 -255 -302s108 -302 255 -302c130 0 223 90 223 203h-140v60z" />
    <glyph glyph-name="Scedilla" unicode="&#x15e;" horiz-adv-x="629" 
d="M561 164c0 -101 -86 -169 -218 -176l-17 -38c28 6 65 -30 65 -66c0 -47 -33 -79 -81 -79c-45 0 -66 33 -73 50l24 14c9 -15 26 -26 42 -26c28 0 47 16 47 42c0 27 -21 45 -48 43l-29 27l24 34c-123 7 -208 68 -228 168l-3 17h68c11 -78 80 -126 183 -126s178 49 178 119
c0 82 -63 139 -199 169c-147 33 -207 103 -207 205c0 106 84 170 223 170c124 0 193 -40 225 -135l-57 -19c-29 67 -79 95 -164 95c-99 0 -161 -43 -161 -114c0 -74 52 -121 180 -151c154 -37 226 -117 226 -223z" />
    <glyph glyph-name="gbreve" unicode="&#x11f;" horiz-adv-x="534" 
d="M354 690h46c-5 -68 -61 -120 -129 -120s-124 52 -129 120h46c5 -40 43 -75 83 -75s78 35 83 75zM331 64c76 0 138 -62 138 -138c0 -82 -80 -138 -198 -138s-198 56 -198 138c0 53 25 97 69 121c-35 15 -54 42 -54 87c0 48 22 79 66 90c-41 32 -61 76 -61 125
c0 94 75 163 178 163c27 0 54 -5 77 -14c43 5 91 25 111 33l22 -45c-24 -10 -48 -20 -75 -28c28 -28 43 -67 43 -109c0 -94 -75 -163 -178 -163h-4c-23 0 -47 4 -64 13c-29 0 -60 -23 -60 -60c0 -56 55 -75 110 -75h78zM271 456c-66 0 -112 -43 -112 -107
c0 -65 44 -107 112 -107c66 0 112 43 112 107s-46 107 -112 107zM271 -156c82 0 132 33 132 87c0 55 -49 87 -132 87s-132 -32 -132 -87c0 -54 50 -87 132 -87z" />
    <glyph glyph-name="scedilla" unicode="&#x15f;" horiz-adv-x="541" 
d="M449 119c0 -71 -61 -123 -151 -130l-17 -39c28 6 65 -30 65 -66c0 -47 -33 -79 -81 -79c-45 0 -66 33 -73 50l24 14c9 -15 26 -26 42 -26c28 0 47 16 47 42c0 27 -21 45 -48 43l-29 27l24 34c-46 3 -83 17 -111 40c-20 20 -50 53 -53 109h62c4 -56 52 -93 121 -93
s117 29 117 74c0 56 -51 76 -172 125c-76 31 -111 70 -111 137c0 80 63 131 163 131c90 0 141 -34 166 -110l-55 -17c-19 50 -52 71 -109 71c-63 0 -104 -30 -104 -77c0 -42 23 -63 73 -85c165 -73 210 -98 210 -175z" />
    <glyph glyph-name="germandbls" unicode="&#xdf;" horiz-adv-x="530" 
d="M332 251c57 -11 165 -79 165 -226c0 -135 -100 -232 -242 -237v58c107 4 178 77 178 182s-71 177 -178 181v26l86 205h-176v-440h-67v562c0 87 62 150 148 150c20 0 39 -3 55 -10l-27 -55c-9 2 -19 4 -27 3c-50 0 -82 -35 -82 -88v-62h274l-107 -247v-2z" />
    <glyph glyph-name="germandbls.ss01" horiz-adv-x="583" 
d="M322 -8c-18 0 -35 2 -50 6v66c14 -4 31 -6 47 -6c87 0 132 44 132 129c0 67 -59 120 -132 120h-43v66h25c70 0 123 52 123 130c0 83 -53 139 -123 139c-85 0 -144 -62 -144 -164v-478h-70v500c0 113 102 208 214 208c101 0 190 -93 190 -208c0 -72 -52 -138 -121 -155v-3
c72 -10 147 -74 147 -177c0 -99 -83 -173 -195 -173z" />
    <glyph glyph-name="f_f" horiz-adv-x="629" 
d="M450 562v-62h122v-52h-122v-448h-66v448h-173v-448h-66v448h-85v52h85v62c0 87 61 150 147 150c20 0 34 -3 50 -10l-22 -55c-9 2 -19 4 -27 3c-50 0 -82 -35 -82 -88v-62h173v62c0 87 61 150 147 150c20 0 34 -3 50 -10l-22 -55c-9 2 -19 4 -27 3c-50 0 -82 -35 -82 -88z
" />
    <glyph glyph-name="f_f_f" horiz-adv-x="865" 
d="M695 562v-62h122v-52h-122v-448h-66v448h-173v-448h-66v448h-179v-448h-66v448h-85v52h85v62c0 87 61 150 147 150c20 0 34 -3 50 -10l-22 -55c-9 2 -19 4 -27 3c-50 0 -82 -35 -82 -88v-62h179v62c0 87 61 150 147 150c20 0 34 -3 50 -10l-22 -55c-9 2 -19 4 -27 3
c-50 0 -82 -35 -82 -88v-62h173v62c0 87 61 150 147 150c20 0 34 -3 50 -10l-22 -55c-9 2 -19 4 -27 3c-50 0 -82 -35 -82 -88z" />
    <glyph glyph-name="f_f_i" horiz-adv-x="782" 
d="M681 717c27 0 48 -21 48 -48s-21 -48 -48 -48s-48 21 -48 48s21 48 48 48zM714 500v-500h-66v448h-194v-448h-66v448h-177v-448h-66v448h-85v52h85v62c0 87 61 150 147 150c20 0 34 -3 50 -10l-22 -55c-9 2 -19 4 -27 3c-50 0 -82 -35 -82 -88v-62h177v62
c0 87 61 150 147 150c20 0 34 -3 50 -10l-22 -55c-9 2 -19 4 -27 3c-50 0 -82 -35 -82 -88v-62h260z" />
    <glyph glyph-name="f_f_j" horiz-adv-x="812" 
d="M697 717c27 0 48 -21 48 -48s-21 -48 -48 -48s-48 21 -48 48s21 48 48 48zM654 500h76v-562c0 -83 -62 -150 -140 -150c-20 0 -46 7 -63 16l29 52c9 -5 17 -7 28 -7c49 0 80 35 80 89v510h-213v-448h-66v448h-174v-448h-66v448h-85v52h85v62c0 87 61 150 147 150
c20 0 34 -3 50 -10l-22 -55c-9 2 -19 4 -27 3c-50 0 -82 -35 -82 -88v-62h174v62c0 87 61 150 147 150c20 0 39 -3 55 -10l-27 -55c-9 2 -19 4 -27 3c-50 0 -82 -35 -82 -88v-62h203z" />
    <glyph glyph-name="f_f_l" horiz-adv-x="786" 
d="M539 712c96 0 145 -56 160 -78v-634h-66v613c-25 25 -54 37 -93 37c-50 0 -82 -35 -82 -88v-62h92v-52h-92v-448h-66v448h-187v-448h-66v448h-85v52h85v62c0 87 61 150 147 150c20 0 39 -3 55 -10l-27 -55c-9 2 -19 4 -27 3c-50 0 -82 -35 -82 -88v-62h187v62
c0 87 61 150 147 150z" />
    <glyph glyph-name="f_i" horiz-adv-x="541" 
d="M432 717c27 0 48 -21 48 -48s-21 -48 -48 -48s-48 21 -48 48s21 48 48 48zM465 500v-500h-66v448h-194v-448h-66v448h-85v52h85v62c0 87 61 150 147 150c20 0 34 -3 50 -10l-22 -55c-9 2 -19 4 -27 3c-50 0 -82 -35 -82 -88v-62h260z" />
    <glyph glyph-name="f_j" horiz-adv-x="565" 
d="M451 621c-27 0 -48 21 -48 48s21 48 48 48s48 -21 48 -48s-21 -48 -48 -48zM344 -212c-20 0 -46 7 -63 16l29 52c9 -5 17 -7 28 -7c49 0 80 35 80 89v510h-213v-448h-66v448h-85v52h85v62c0 87 61 150 147 150c20 0 39 -3 55 -10l-27 -55c-9 2 -19 4 -27 3
c-50 0 -82 -35 -82 -88v-62h203h76v-562c0 -83 -62 -150 -140 -150z" />
    <glyph glyph-name="f_l" horiz-adv-x="502" 
d="M276 712c96 0 145 -56 160 -78v-634h-66v613c-25 25 -54 37 -93 37c-50 0 -82 -35 -82 -88v-62h92v-52h-92v-448h-66v448h-75v52h75v62c0 87 61 150 147 150z" />
    <glyph glyph-name="uni2080" unicode="&#x2080;" horiz-adv-x="365" 
d="M185 326c85 0 146 -79 146 -189c0 -109 -60 -185 -146 -185c-88 0 -151 77 -151 185c0 109 64 189 151 189zM185 282c-63 0 -112 -64 -112 -145c0 -82 47 -142 112 -142c63 0 107 59 107 142c0 82 -46 145 -107 145z" />
    <glyph glyph-name="uni2081" unicode="&#x2081;" horiz-adv-x="172" 
d="M109 216h-72v29h23c28 0 49 21 49 50v25h41v-360h-41v256z" />
    <glyph glyph-name="uni2082" unicode="&#x2082;" horiz-adv-x="307" 
d="M169 98c-48 -30 -92 -52 -89 -101h180v-37h-223v24c0 55 30 97 96 134c47 27 89 51 89 103c0 41 -26 68 -66 68c-42 0 -75 -32 -78 -72h-41c3 48 40 111 117 111c67 0 109 -41 109 -104c0 -66 -53 -102 -94 -126z" />
    <glyph glyph-name="uni2083" unicode="&#x2083;" horiz-adv-x="302" 
d="M72 40c5 -30 34 -50 74 -50c43 0 76 33 76 74c0 39 -37 69 -85 69h-12v33h12c47 0 76 23 76 62c0 34 -30 62 -68 62s-62 -15 -66 -41h-39c3 44 46 77 105 77c57 0 106 -43 106 -94c0 -37 -15 -70 -56 -82c41 -13 65 -54 65 -88c0 -60 -52 -110 -115 -110
c-62 0 -107 37 -110 88h37z" />
    <glyph glyph-name="uni2084" unicode="&#x2084;" horiz-adv-x="315" 
d="M28 63c62 78 110 164 143 257h54v-252h57v-33h-57v-75h-32v75h-165v28zM194 279c-18 -49 -76 -155 -119 -211h118z" />
    <glyph glyph-name="uni2085" unicode="&#x2085;" horiz-adv-x="314" 
d="M104 287l-16 -108c10 15 42 24 67 24c69 0 125 -57 125 -126c0 -68 -57 -125 -126 -125c-60 0 -113 46 -123 106l34 8c5 -44 42 -79 89 -79c52 0 92 40 92 90c0 52 -40 93 -92 93c-31 0 -56 -12 -70 -34l-36 13l29 171h181v-33h-154z" />
    <glyph glyph-name="uni2086" unicode="&#x2086;" horiz-adv-x="337" 
d="M43 113c0 133 61 213 161 213c40 0 65 -12 78 -19l-18 -32c-20 11 -35 14 -62 14c-77 0 -114 -63 -120 -132v-1c19 32 65 50 101 50c68 0 120 -55 120 -127c0 -70 -57 -127 -127 -127c-79 0 -133 65 -133 161zM82 79c0 -51 43 -94 94 -94s94 43 94 94s-43 94 -94 94
s-94 -43 -94 -94z" />
    <glyph glyph-name="uni2087" unicode="&#x2087;" horiz-adv-x="296" 
d="M289 320v-28c-121 -103 -157 -238 -158 -332h-35c2 123 66 256 145 327h-213v33h261z" />
    <glyph glyph-name="uni2088" unicode="&#x2088;" horiz-adv-x="335" 
d="M166 -48c-76 0 -127 44 -127 108c0 34 23 75 68 96v2c-38 13 -49 58 -49 79c0 57 45 97 108 97c64 0 109 -40 109 -97c0 -21 -15 -65 -51 -79v-2c51 -21 70 -67 70 -96c0 -64 -51 -108 -128 -108zM166 172c47 0 77 25 77 65c0 37 -32 63 -77 63c-44 0 -76 -26 -76 -63
c0 -39 30 -65 76 -65zM166 -14c54 0 90 29 90 74c0 46 -36 75 -90 75s-90 -29 -90 -75c0 -45 36 -74 90 -74z" />
    <glyph glyph-name="uni2089" unicode="&#x2089;" horiz-adv-x="344" 
d="M301 170c0 -136 -63 -218 -164 -218c-41 0 -67 12 -81 19l19 34c23 -12 37 -15 64 -15c78 0 113 84 122 138c-16 -32 -65 -54 -103 -54c-70 0 -123 56 -123 130c0 72 58 130 130 130c81 0 136 -65 136 -164zM261 204c0 52 -44 96 -96 96s-96 -44 -96 -96s44 -96 96 -96
s96 44 96 96z" />
    <glyph glyph-name="uni2070" unicode="&#x2070;" horiz-adv-x="365" 
d="M185 748c85 0 146 -79 146 -189c0 -109 -60 -185 -146 -185c-88 0 -151 77 -151 185c0 109 64 189 151 189zM185 704c-63 0 -112 -64 -112 -145c0 -82 47 -142 112 -142c63 0 107 59 107 142c0 82 -46 145 -107 145z" />
    <glyph glyph-name="uni00B9" unicode="&#xb9;" horiz-adv-x="173" 
d="M109 637h-72v29h23c28 0 49 21 49 50v25h41v-360h-41v256z" />
    <glyph glyph-name="uni00B2" unicode="&#xb2;" horiz-adv-x="304" 
d="M169 518c-48 -30 -92 -52 -89 -101h180v-37h-223v24c0 55 30 97 96 134c47 27 89 51 89 103c0 41 -26 68 -66 68c-42 0 -75 -32 -78 -72h-41c3 48 40 111 117 111c67 0 109 -41 109 -104c0 -66 -54 -101 -94 -126z" />
    <glyph glyph-name="uni00B3" unicode="&#xb3;" horiz-adv-x="301" 
d="M72 462c5 -30 34 -50 74 -50c43 0 76 33 76 74c0 39 -37 69 -85 69h-12v33h12c47 0 76 23 76 62c0 34 -30 62 -68 62s-62 -15 -66 -41h-39c3 44 46 77 105 77c57 0 106 -43 106 -94c0 -37 -15 -70 -56 -82c41 -13 65 -54 65 -88c0 -60 -52 -110 -115 -110
c-62 0 -107 37 -110 88h37z" />
    <glyph glyph-name="uni2074" unicode="&#x2074;" horiz-adv-x="311" 
d="M28 484c62 78 110 164 143 257h54v-252h57v-33h-57v-75h-32v75h-165v28zM194 700c-18 -49 -76 -155 -119 -211h118z" />
    <glyph glyph-name="uni2075" unicode="&#x2075;" horiz-adv-x="314" 
d="M104 707l-18 -108h4c10 15 40 24 65 24c69 0 125 -57 125 -126c0 -68 -57 -125 -126 -125c-60 0 -113 46 -123 106l34 8c5 -44 42 -79 89 -79c52 0 92 40 92 90c0 52 -40 93 -92 93c-31 0 -56 -12 -70 -34l-36 13l29 171h181v-33h-154z" />
    <glyph glyph-name="uni2076" unicode="&#x2076;" horiz-adv-x="336" 
d="M43 535c0 133 61 213 161 213c40 0 65 -12 78 -19l-18 -32c-20 11 -35 14 -62 14c-77 0 -114 -63 -120 -132c19 32 65 49 101 49c68 0 120 -55 120 -127c0 -70 -57 -127 -127 -127c-79 0 -133 65 -133 161zM82 501c0 -51 43 -94 94 -94s94 43 94 94s-43 94 -94 94
s-94 -43 -94 -94z" />
    <glyph glyph-name="uni2077" unicode="&#x2077;" horiz-adv-x="296" 
d="M289 713c-121 -103 -157 -238 -158 -332h-35c2 123 66 256 145 327h-213v33h261v-28z" />
    <glyph glyph-name="uni2078" unicode="&#x2078;" horiz-adv-x="335" 
d="M166 375c-76 0 -127 44 -127 108c0 34 23 75 68 96v2c-38 13 -49 58 -49 79c0 57 45 97 108 97c64 0 109 -40 109 -97c0 -21 -15 -65 -51 -79v-2c51 -21 70 -67 70 -96c0 -64 -51 -108 -128 -108zM166 595c47 0 77 25 77 65c0 37 -32 63 -77 63c-44 0 -76 -26 -76 -63
c0 -39 30 -65 76 -65zM166 409c54 0 90 29 90 74c0 46 -36 75 -90 75s-90 -29 -90 -75c0 -45 36 -74 90 -74z" />
    <glyph glyph-name="uni2079" unicode="&#x2079;" horiz-adv-x="342" 
d="M300 592c0 -136 -63 -218 -164 -218c-41 0 -67 12 -81 19l19 34c23 -12 37 -15 64 -15c78 0 113 84 122 138c-16 -32 -65 -54 -103 -54c-70 0 -123 56 -123 130c0 72 58 130 130 130c81 0 136 -65 136 -164zM260 626c0 52 -44 96 -96 96s-96 -44 -96 -96s44 -96 96 -96
s96 44 96 96z" />
    <glyph glyph-name="fraction" unicode="&#x2044;" horiz-adv-x="164" 
d="M281 700h58l-456 -700h-58z" />
    <glyph glyph-name="ellipsis.001" horiz-adv-x="617" 
d="M110 96c30 0 53 -23 53 -53s-23 -53 -53 -53s-53 23 -53 53s23 53 53 53zM301 96c30 0 53 -23 53 -53s-23 -53 -53 -53s-53 23 -53 53s23 53 53 53z" />
    <glyph glyph-name="cent" unicode="&#xa2;" horiz-adv-x="546" 
d="M312 175c45 7 83 35 106 77l62 -22c-33 -70 -93 -114 -168 -122v-108h-50v108c-115 13 -196 113 -196 249s81 236 196 249v106h50v-106c74 -8 136 -53 168 -122l-62 -23c-23 43 -61 71 -106 78v-364zM132 357c0 -99 52 -170 130 -182v364c-78 -12 -130 -83 -130 -182z
" />
    <glyph glyph-name="currency" unicode="&#xa4;" horiz-adv-x="582" 
d="M474 319c0 -44 -16 -84 -42 -115l84 -84l-39 -38l-85 86c-28 -18 -62 -29 -98 -29c-39 0 -76 12 -105 32l-85 -85l-38 38l84 83c-25 30 -40 69 -40 112c0 37 11 72 30 101l-74 74l38 38l73 -73c31 26 72 41 117 41c41 0 79 -14 110 -37l73 73l39 -38l-75 -75
c21 -29 33 -65 33 -104zM160 319c0 -72 59 -130 134 -130c71 0 130 59 130 130c0 72 -58 131 -130 131c-75 0 -134 -57 -134 -131z" />
    <glyph glyph-name="dollar" unicode="$" horiz-adv-x="566" 
d="M500 156c0 -90 -77 -154 -192 -161v-59h-45v60c-101 9 -172 65 -194 154l-3 16h65c7 -62 58 -105 132 -113v258c-61 11 -110 37 -142 71c-22 22 -34 56 -34 100c0 91 67 151 176 157v61h45v-62c109 -8 177 -64 182 -151h-63c-5 51 -51 87 -119 94v-231
c121 -24 192 -100 192 -194zM150 479c0 -58 39 -98 113 -119v221c-70 -7 -113 -45 -113 -102zM308 53c74 7 130 51 130 106c0 62 -48 114 -130 140v-246z" />
    <glyph glyph-name="Euro" unicode="&#x20ac;" horiz-adv-x="635" 
d="M444 588c-106 0 -186 -63 -217 -169h279v-51h-289c-2 -16 -3 -33 -3 -50s1 -34 3 -50h289v-50h-279c30 -105 110 -167 217 -167c49 0 84 3 125 13v-58c-33 -12 -72 -18 -125 -18c-141 0 -247 88 -281 230h-76v50h68c-2 16 -3 33 -3 50s1 34 3 50h-68v51h76
c34 142 140 230 281 230c53 0 92 -6 125 -18v-57c-39 10 -74 14 -125 14z" />
    <glyph glyph-name="sterling" unicode="&#xa3;" horiz-adv-x="548" 
d="M484 0h-409v62h-9c121 0 161 169 109 240l-100 -2v54h75c-30 33 -45 72 -45 124c0 102 78 171 193 171c99 0 164 -45 195 -136l-57 -19c-28 64 -72 95 -134 95c-76 0 -131 -48 -131 -114c0 -43 20 -77 55 -121h196v-49l-176 -2c62 -98 9 -217 -41 -241h279v-62z" />
    <glyph glyph-name="yen" unicode="&#xa5;" horiz-adv-x="559" 
d="M504 643l-183 -313h138v-41h-151v-73h151v-41h-151v-175h-63v175h-151v41h151v73h-149v41h136l-178 313h68l152 -262h5l158 262h67z" />
    <glyph glyph-name="plus" unicode="+" horiz-adv-x="628" 
d="M562 313v-56h-217v-213h-56v213h-223v56h223v227h56v-227h217z" />
    <glyph glyph-name="minus" unicode="&#x2212;" horiz-adv-x="628" 
d="M66 257v56h496v-56h-496z" />
    <glyph glyph-name="multiply" unicode="&#xd7;" horiz-adv-x="530" 
d="M453 469l-150 -160l150 -160l-40 -39l-149 152l-148 -150l-39 40l147 157l-147 157l39 40l147 -149l150 152z" />
    <glyph glyph-name="divide" unicode="&#xf7;" horiz-adv-x="608" 
d="M304 404c-29 0 -53 24 -53 53c0 30 23 53 53 53s53 -23 53 -53s-23 -53 -53 -53zM66 257v56h476v-56h-476zM304 60c-29 0 -53 24 -53 53c0 30 23 53 53 53s53 -23 53 -53s-23 -53 -53 -53z" />
    <glyph glyph-name="equal" unicode="=" horiz-adv-x="588" 
d="M66 355v56h456v-56h-456zM66 147v56h456v-56h-456z" />
    <glyph glyph-name="notequal" unicode="&#x2260;" horiz-adv-x="588" 
d="M522 355h-156l-80 -152h236v-56h-265l-56 -107h-59l56 107h-132v56h161l80 152h-241v56h270l52 100h59l-52 -100h127v-56z" />
    <glyph glyph-name="greater" unicode="&#x3e;" horiz-adv-x="503" 
d="M77 134v57l315 128l-315 124v58l371 -153v-65z" />
    <glyph glyph-name="less" unicode="&#x3c;" horiz-adv-x="503" 
d="M426 134l-372 149v65l372 153v-58l-315 -124l315 -128v-57z" />
    <glyph glyph-name="greaterequal" unicode="&#x2265;" horiz-adv-x="503" 
d="M66 134v57l315 128l-315 124v58l371 -153v-65zM66 14v47h371v-47h-371z" />
    <glyph glyph-name="lessequal" unicode="&#x2264;" horiz-adv-x="503" 
d="M437 134l-371 149v65l371 153v-58l-315 -124l315 -128v-57zM437 14h-371v47h371v-47z" />
    <glyph glyph-name="plusminus" unicode="&#xb1;" horiz-adv-x="608" 
d="M335 363h207v-56h-207v-153h-56v153h-213v56h213v167h56v-167zM66 22v56h476v-56h-476z" />
    <glyph glyph-name="approxequal" unicode="&#x2248;" horiz-adv-x="591" 
d="M391 316c-29 0 -61 9 -92 26l-46 25c-21 12 -40 17 -59 16c-21 0 -37 -6 -53 -18c-11 -9 -22 -20 -33 -34l-42 31c15 22 32 42 53 58c20 14 46 21 74 21c14 0 31 -2 44 -6c19 -5 34 -12 46 -19l47 -25c20 -10 40 -16 61 -17c21 0 37 5 53 18c9 6 19 16 30 31l42 -30
c-16 -24 -32 -42 -52 -56c-20 -13 -45 -21 -73 -21zM400 129c-29 0 -61 9 -92 26l-46 25c-21 12 -40 17 -59 16c-21 0 -37 -6 -53 -18c-11 -9 -22 -20 -33 -34l-42 31c15 22 32 42 53 58c20 14 46 21 74 21c14 0 31 -2 44 -6c19 -5 34 -12 46 -19l47 -25
c20 -10 40 -16 61 -17c21 0 37 5 53 18c17 11 21 20 30 35l42 -34c-16 -24 -32 -42 -52 -56c-20 -13 -45 -21 -73 -21z" />
    <glyph glyph-name="asciitilde" unicode="~" horiz-adv-x="582" 
d="M391 210c-29 0 -61 9 -92 26l-46 25c-23 12 -41 17 -59 16c-21 0 -37 -6 -53 -18c-20 -16 -23 -22 -33 -37l-42 34c15 22 32 42 53 58c20 14 46 21 74 21c14 0 31 -2 45 -6c16 -4 30 -10 45 -19l46 -25c19 -10 40 -16 62 -17c21 0 37 5 53 18c9 6 19 16 30 31l42 -30
c-17 -26 -34 -43 -52 -56c-20 -13 -45 -21 -73 -21z" />
    <glyph glyph-name="logicalnot" unicode="&#xac;" horiz-adv-x="568" 
d="M502 313v-236h-56v180h-380v56h436z" />
    <glyph glyph-name="emptyset" unicode="&#x2205;" horiz-adv-x="629" 
d="M520 452c41 -48 65 -111 65 -180c0 -154 -121 -276 -270 -276c-71 0 -135 27 -183 71l-58 -57l-26 26l59 58c-39 48 -63 110 -63 178c0 153 122 275 271 275c69 0 132 -26 180 -69l60 59l25 -26zM86 272c0 -56 19 -107 51 -148l327 323c-40 36 -92 58 -149 58
c-126 0 -229 -103 -229 -233zM315 38c126 0 228 103 228 234c0 57 -20 109 -54 149l-326 -323c40 -37 94 -60 152 -60z" />
    <glyph glyph-name="infinity" unicode="&#x221e;" horiz-adv-x="872" 
d="M638 490c105 0 190 -85 190 -190s-85 -190 -190 -190c-65 0 -138 57 -200 148h-4c-59 -90 -134 -148 -200 -148c-105 0 -190 85 -190 190s85 190 190 190c66 0 141 -58 200 -148h4c61 90 135 148 200 148zM234 168c81 0 163 132 163 132s-81 132 -163 132
c-72 0 -132 -60 -132 -132s60 -132 132 -132zM638 168c72 0 132 60 132 132s-60 132 -132 132c-78 0 -163 -132 -163 -132s81 -132 163 -132z" />
    <glyph glyph-name="integral" unicode="&#x222b;" horiz-adv-x="447" 
d="M371 706h10v-58h-11c-45 0 -82 -35 -87 -86l-60 -570c-9 -88 -70 -148 -147 -148h-10v59h11c46 0 82 35 87 87l60 570c9 85 70 146 147 146z" />
    <glyph glyph-name="product" unicode="&#x220f;" horiz-adv-x="716" 
d="M629 700v-50h-110v-742h-60v742h-202v-742h-60v742h-110v50h542z" />
    <glyph glyph-name="summation" unicode="&#x2211;" horiz-adv-x="602" 
d="M547 709v-60h-407v-8l279 -331l-279 -332v-8h407v-60h-493v70l280 328v4l-280 327v70h493z" />
    <glyph glyph-name="radical" unicode="&#x221a;" horiz-adv-x="774" 
d="M752 797v-62h-192l-278 -735h-55l-183 470h59l150 -376h4l267 703h228z" />
    <glyph glyph-name="partialdiff" unicode="&#x2202;" horiz-adv-x="576" 
d="M510 284c1 -170 -91 -285 -226 -285c-120 0 -217 97 -218 222c-1 128 90 222 206 222c54 0 126 -20 173 -83c0 104 -133 292 -275 301v58c127 -8 338 -160 340 -435zM445 221c-1 93 -74 167 -162 167s-163 -74 -162 -167s75 -167 163 -167s162 74 161 167z" />
    <glyph glyph-name="percent" unicode="%" horiz-adv-x="777" 
d="M199 321c-75 0 -133 66 -133 161c0 97 58 165 133 165c73 0 129 -67 129 -165c0 -97 -55 -161 -129 -161zM146 0l436 635h53l-437 -635h-52zM199 360c52 0 90 48 90 122c0 76 -38 126 -90 126c-53 0 -94 -50 -94 -126c0 -73 41 -122 94 -122zM582 -12
c-75 0 -133 66 -133 161c0 97 58 165 133 165c73 0 129 -67 129 -165c0 -97 -55 -161 -129 -161zM582 27c52 0 90 48 90 122c0 76 -38 126 -90 126c-53 0 -94 -50 -94 -126c0 -73 41 -122 94 -122z" />
    <glyph glyph-name="perthousand" unicode="&#x2030;" horiz-adv-x="1090" 
d="M199 321c-75 0 -133 66 -133 161c0 97 58 165 133 165c73 0 129 -67 129 -165c0 -97 -55 -161 -129 -161zM146 0l436 635h53l-437 -635h-52zM199 360c52 0 90 48 90 122c0 76 -38 126 -90 126c-53 0 -94 -50 -94 -126c0 -73 41 -122 94 -122zM582 -12
c-75 0 -133 66 -133 161c0 97 58 165 133 165c73 0 129 -67 129 -165c0 -97 -55 -161 -129 -161zM906 -12c-75 0 -133 66 -133 161c0 97 58 165 133 165c73 0 129 -67 129 -165c0 -97 -55 -161 -129 -161zM582 27c52 0 90 48 90 122c0 76 -38 126 -90 126
c-53 0 -94 -50 -94 -126c0 -73 41 -122 94 -122zM906 27c52 0 90 48 90 122c0 76 -38 126 -90 126c-53 0 -94 -50 -94 -126c0 -73 41 -122 94 -122z" />
    <glyph glyph-name="arrowup" unicode="&#x2191;" horiz-adv-x="586" 
d="M36 417c104 55 158 106 238 254h38c80 -148 134 -199 238 -254v-64c-86 34 -204 119 -229 206v-559h-56v559c-25 -87 -143 -172 -229 -206v64z" />
    <glyph glyph-name="uni2197" unicode="&#x2197;" horiz-adv-x="579" 
d="M176 488c113 -35 187 -37 348 11l27 -26c-48 -162 -46 -236 -11 -348l-45 -46c-37 85 -60 229 -17 308l-395 -395l-39 39l362 362l33 34c-79 -44 -223 -21 -308 16z" />
    <glyph glyph-name="uni2198" unicode="&#x2198;" horiz-adv-x="578" 
d="M551 376c-35 -113 -37 -187 11 -348l-26 -27c-162 48 -236 46 -348 11l-46 45c85 37 229 60 308 17l-396 395l40 39l396 -395c-44 79 -21 223 16 308z" />
    <glyph glyph-name="arrowdown" unicode="&#x2193;" horiz-adv-x="586" 
d="M550 254c-104 -55 -158 -106 -238 -254h-38c-80 148 -134 199 -238 254v64c86 -34 204 -119 229 -206v559h56v-559c25 87 143 172 229 206v-64z" />
    <glyph glyph-name="uni2199" unicode="&#x2199;" horiz-adv-x="578" 
d="M66 376l45 45c37 -85 60 -229 16 -308l396 395l39 -39l-395 -395c79 43 223 20 308 -17l-46 -45c-112 35 -186 37 -348 -11l-27 27c49 161 47 235 12 348z" />
    <glyph glyph-name="uni2196" unicode="&#x2196;" horiz-adv-x="579" 
d="M403 488l45 -45c-85 -37 -229 -60 -308 -16l395 -396l-39 -39l-395 395c43 -79 20 -223 -17 -308l-45 46c35 112 37 186 -11 348l27 26c161 -48 235 -46 348 -11z" />
    <glyph glyph-name="arrowupdn" unicode="&#x2195;" horiz-adv-x="587" 
d="M330 112l136 136l39 -40l-197 -198h-12l-198 198l40 40l136 -136v476l-136 -136l-40 40l198 198h12l197 -198l-39 -40l-136 136v-476z" />
    <glyph glyph-name="lozenge" unicode="&#x25ca;" horiz-adv-x="452" 
d="M258 598l150 -294l-150 -294h-67l-147 294l147 294h67zM228 49l123 255l-123 255l-127 -255z" />
    <glyph glyph-name="at" unicode="@" horiz-adv-x="1000" 
d="M500 740c240 0 434 -194 434 -444c0 -158 -67 -239 -175 -239c-74 0 -132 38 -144 94h-5c-21 -38 -91 -66 -140 -66c-108 0 -186 89 -186 211s78 211 186 211c54 0 114 -21 141 -67h4l10 60h42v-293c0 -55 41 -97 92 -97c81 0 113 103 113 186c0 214 -168 382 -372 382
s-372 -168 -372 -382s168 -382 372 -382c58 0 116 14 168 41l34 -53c-61 -33 -130 -50 -202 -50c-240 0 -434 194 -434 444s194 444 434 444zM479 135c81 0 136 65 136 161s-55 161 -136 161c-82 0 -141 -67 -141 -161s59 -161 141 -161z" />
    <glyph glyph-name="ampersand" unicode="&#x26;" horiz-adv-x="710" 
d="M644 318v-62c-49 0 -80 -21 -130 -71l-24 -24l153 -161h-80l-113 119l-75 -78c-34 -36 -80 -53 -127 -54s-93 18 -127 52c-38 38 -57 90 -55 145c2 49 23 93 61 124c2 2 38 31 81 60c-71 72 -105 129 -105 186c0 93 71 160 170 160c89 0 160 -71 160 -160
c0 -79 -61 -147 -132 -194l150 -157l47 50c37 39 81 65 146 65zM254 400c50 36 121 96 121 154c0 56 -46 102 -102 102c-68 0 -112 -44 -112 -102s61 -121 93 -154zM247 45h1c31 0 63 12 85 36l77 81l-157 167c-79 -50 -126 -86 -129 -148c-2 -37 12 -75 38 -101
c23 -23 52 -35 85 -35z" />
    <glyph glyph-name="paragraph" unicode="&#xb6;" horiz-adv-x="634" 
d="M398 695v-787h-60v417h-87c-108 0 -185 77 -185 185s77 185 185 185h147zM508 695h60v-787h-60v787z" />
    <glyph glyph-name="section" unicode="&#xa7;" horiz-adv-x="538" 
d="M269 -189c-102 0 -182 67 -188 155h59c5 -56 60 -97 129 -97c74 0 130 46 130 112c0 86 -99 93 -152 101c-119 18 -181 78 -181 175c0 72 40 131 107 164c-58 29 -92 82 -92 142c0 97 82 169 188 169c102 0 182 -67 188 -154h-59c-6 55 -60 96 -129 96
c-73 0 -130 -46 -130 -111c0 -58 57 -106 146 -124c125 -25 187 -84 187 -182c0 -65 -62 -137 -90 -149c40 -15 75 -71 75 -127c0 -98 -82 -170 -188 -170zM268 129c81 0 146 54 146 126c0 71 -65 125 -146 125c-80 0 -145 -54 -145 -125c0 -72 65 -126 145 -126z" />
    <glyph glyph-name="copyright" unicode="&#xa9;" horiz-adv-x="891" 
d="M446 -69c-211 0 -380 169 -380 380c0 210 170 379 380 379s379 -169 379 -379s-169 -380 -379 -380zM446 -9c176 0 319 143 319 320c0 176 -143 319 -319 319c-177 0 -320 -142 -320 -319s143 -320 320 -320zM586 226c-27 -55 -78 -88 -140 -88c-93 0 -162 74 -162 174
s69 174 162 174c61 0 113 -33 140 -88l-41 -15c-20 37 -56 59 -99 59c-68 0 -118 -55 -118 -130s50 -130 118 -130c42 0 78 21 99 59z" />
    <glyph glyph-name="registered" unicode="&#xae;" horiz-adv-x="891" 
d="M446 -69c-211 0 -380 169 -380 380c0 210 170 379 380 379s379 -169 379 -379s-169 -380 -379 -380zM446 -9c176 0 319 143 319 320c0 176 -143 319 -319 319c-177 0 -320 -142 -320 -319s143 -320 320 -320zM384 151h-39v322h118c53 0 90 -37 90 -90
c0 -40 -25 -76 -64 -88l82 -144h-49l-80 141h-58v-141zM461 332c30 0 50 20 50 51c0 33 -19 54 -50 54h-77v-105h77z" />
    <glyph glyph-name="trademark" unicode="&#x2122;" horiz-adv-x="759" 
d="M152 360v302h-108v38h261v-38h-109v-302h-44zM667 602l-101 -202h-51l-102 202h-4v-242h-44v340h51l121 -241h8l120 241h50v-340h-43v242h-5z" />
    <glyph glyph-name="degree" unicode="&#xb0;" horiz-adv-x="348" 
d="M174 436c-60 0 -108 48 -108 108s48 108 108 108c59 0 108 -49 108 -108s-49 -108 -108 -108zM174 484c33 0 60 27 60 60s-27 60 -60 60s-60 -27 -60 -60s27 -60 60 -60z" />
    <glyph glyph-name="bar" unicode="|" horiz-adv-x="224" 
d="M87 695h50v-787h-50v787z" />
    <glyph glyph-name="brokenbar" unicode="&#xa6;" horiz-adv-x="224" 
d="M87 384v311h50v-311h-50zM87 -92v283h50v-283h-50z" />
    <glyph glyph-name="dagger" unicode="&#x2020;" horiz-adv-x="430" 
d="M353 580v-56h-107v-305h-56v305h-113v56h113v115h56v-115h107z" />
    <glyph glyph-name="daggerdbl" unicode="&#x2021;" horiz-adv-x="430" 
d="M353 524h-107v-112h107v-56h-107v-115h-56v115h-113v56h113v112h-113v56h113v115h56v-115h107v-56z" />
    <glyph glyph-name="uni0308" unicode="&#x308;" 
d="M-282 710c27 0 48 -21 48 -48s-21 -48 -48 -48s-48 21 -48 48s21 48 48 48zM-92 710c27 0 48 -21 48 -48s-21 -48 -48 -48s-48 21 -48 48s21 48 48 48z" />
    </font>
</defs>
</svg>
